<?xml version="1.0" encoding="utf-8" standalone="no"?>
<!DOCTYPE svg PUBLIC "-//W3C//DTD SVG 1.1//EN"
  "http://www.w3.org/Graphics/SVG/1.1/DTD/svg11.dtd">
<svg xmlns:xlink="http://www.w3.org/1999/xlink" width="564.537187pt" height="420.70875pt" viewBox="0 0 564.537187 420.70875" xmlns="http://www.w3.org/2000/svg" version="1.1">
 <metadata>
  <rdf:RDF xmlns:dc="http://purl.org/dc/elements/1.1/" xmlns:cc="http://creativecommons.org/ns#" xmlns:rdf="http://www.w3.org/1999/02/22-rdf-syntax-ns#">
   <cc:Work>
    <dc:type rdf:resource="http://purl.org/dc/dcmitype/StillImage"/>
    <dc:date>2026-05-05T22:48:44.131242</dc:date>
    <dc:format>image/svg+xml</dc:format>
    <dc:creator>
     <cc:Agent>
      <dc:title>Matplotlib v3.10.8, https://matplotlib.org/</dc:title>
     </cc:Agent>
    </dc:creator>
   </cc:Work>
  </rdf:RDF>
 </metadata>
 <defs>
  <style type="text/css">*{stroke-linejoin: round; stroke-linecap: butt}</style>
 </defs>
 <g id="figure_1">
  <g id="patch_1">
   <path d="M 0 420.70875 
L 564.537187 420.70875 
L 564.537187 0 
L 0 0 
z
" style="fill: #ffffff"/>
  </g>
  <g id="axes_1">
   <g id="patch_2">
    <path d="M 49.154063 377.09625 
L 550.664062 377.09625 
L 550.664062 24.6525 
L 49.154063 24.6525 
z
" style="fill: #ffffff"/>
   </g>
   <g id="matplotlib.axis_1">
    <g id="xtick_1">
     <g id="line2d_1">
      <defs>
       <path id="mda1f32acca" d="M 0 0 
L 0 4.8 
" style="stroke: #262626"/>
      </defs>
      <g>
       <use xlink:href="#mda1f32acca" x="49.154063" y="377.09625" style="fill: #262626; stroke: #262626"/>
      </g>
     </g>
     <g id="text_1">
      <text style="font-size: 12px; font-family: 'Arial', 'DejaVu Sans', 'Liberation Sans', 'Bitstream Vera Sans', sans-serif; text-anchor: middle; fill: #262626" x="49.154063" y="393.985625" transform="rotate(-0 49.154063 393.985625)">0</text>
     </g>
    </g>
    <g id="xtick_2">
     <g id="line2d_2">
      <g>
       <use xlink:href="#mda1f32acca" x="149.456062" y="377.09625" style="fill: #262626; stroke: #262626"/>
      </g>
     </g>
     <g id="text_2">
      <text style="font-size: 12px; font-family: 'Arial', 'DejaVu Sans', 'Liberation Sans', 'Bitstream Vera Sans', sans-serif; text-anchor: middle; fill: #262626" x="149.456062" y="393.985625" transform="rotate(-0 149.456062 393.985625)">2</text>
     </g>
    </g>
    <g id="xtick_3">
     <g id="line2d_3">
      <g>
       <use xlink:href="#mda1f32acca" x="249.758062" y="377.09625" style="fill: #262626; stroke: #262626"/>
      </g>
     </g>
     <g id="text_3">
      <text style="font-size: 12px; font-family: 'Arial', 'DejaVu Sans', 'Liberation Sans', 'Bitstream Vera Sans', sans-serif; text-anchor: middle; fill: #262626" x="249.758062" y="393.985625" transform="rotate(-0 249.758062 393.985625)">4</text>
     </g>
    </g>
    <g id="xtick_4">
     <g id="line2d_4">
      <g>
       <use xlink:href="#mda1f32acca" x="350.060062" y="377.09625" style="fill: #262626; stroke: #262626"/>
      </g>
     </g>
     <g id="text_4">
      <text style="font-size: 12px; font-family: 'Arial', 'DejaVu Sans', 'Liberation Sans', 'Bitstream Vera Sans', sans-serif; text-anchor: middle; fill: #262626" x="350.060062" y="393.985625" transform="rotate(-0 350.060062 393.985625)">6</text>
     </g>
    </g>
    <g id="xtick_5">
     <g id="line2d_5">
      <g>
       <use xlink:href="#mda1f32acca" x="450.362062" y="377.09625" style="fill: #262626; stroke: #262626"/>
      </g>
     </g>
     <g id="text_5">
      <text style="font-size: 12px; font-family: 'Arial', 'DejaVu Sans', 'Liberation Sans', 'Bitstream Vera Sans', sans-serif; text-anchor: middle; fill: #262626" x="450.362062" y="393.985625" transform="rotate(-0 450.362062 393.985625)">8</text>
     </g>
    </g>
    <g id="xtick_6">
     <g id="line2d_6">
      <g>
       <use xlink:href="#mda1f32acca" x="550.664062" y="377.09625" style="fill: #262626; stroke: #262626"/>
      </g>
     </g>
     <g id="text_6">
      <text style="font-size: 12px; font-family: 'Arial', 'DejaVu Sans', 'Liberation Sans', 'Bitstream Vera Sans', sans-serif; text-anchor: middle; fill: #262626" x="550.664062" y="393.985625" transform="rotate(-0 550.664062 393.985625)">10</text>
     </g>
    </g>
    <g id="text_7">
     <text style="font-size: 14px; font-family: 'Arial', 'DejaVu Sans', 'Liberation Sans', 'Bitstream Vera Sans', sans-serif; text-anchor: middle; fill: #262626" x="299.909062" y="410.562187" transform="rotate(-0 299.909062 410.562187)">Absolute Error (°C)</text>
    </g>
   </g>
   <g id="matplotlib.axis_2">
    <g id="ytick_1">
     <g id="line2d_7">
      <defs>
       <path id="m7ddd7655cb" d="M 0 0 
L -4.8 0 
" style="stroke: #262626"/>
      </defs>
      <g>
       <use xlink:href="#m7ddd7655cb" x="49.154063" y="377.09625" style="fill: #262626; stroke: #262626"/>
      </g>
     </g>
     <g id="text_8">
      <text style="font-size: 12px; font-family: 'Arial', 'DejaVu Sans', 'Liberation Sans', 'Bitstream Vera Sans', sans-serif; text-anchor: end; fill: #262626" x="40.854063" y="381.390937" transform="rotate(-0 40.854063 381.390937)">0.0</text>
     </g>
    </g>
    <g id="ytick_2">
     <g id="line2d_8">
      <g>
       <use xlink:href="#m7ddd7655cb" x="49.154063" y="306.6075" style="fill: #262626; stroke: #262626"/>
      </g>
     </g>
     <g id="text_9">
      <text style="font-size: 12px; font-family: 'Arial', 'DejaVu Sans', 'Liberation Sans', 'Bitstream Vera Sans', sans-serif; text-anchor: end; fill: #262626" x="40.854063" y="310.902187" transform="rotate(-0 40.854063 310.902187)">0.2</text>
     </g>
    </g>
    <g id="ytick_3">
     <g id="line2d_9">
      <g>
       <use xlink:href="#m7ddd7655cb" x="49.154063" y="236.11875" style="fill: #262626; stroke: #262626"/>
      </g>
     </g>
     <g id="text_10">
      <text style="font-size: 12px; font-family: 'Arial', 'DejaVu Sans', 'Liberation Sans', 'Bitstream Vera Sans', sans-serif; text-anchor: end; fill: #262626" x="40.854063" y="240.413437" transform="rotate(-0 40.854063 240.413437)">0.4</text>
     </g>
    </g>
    <g id="ytick_4">
     <g id="line2d_10">
      <g>
       <use xlink:href="#m7ddd7655cb" x="49.154063" y="165.63" style="fill: #262626; stroke: #262626"/>
      </g>
     </g>
     <g id="text_11">
      <text style="font-size: 12px; font-family: 'Arial', 'DejaVu Sans', 'Liberation Sans', 'Bitstream Vera Sans', sans-serif; text-anchor: end; fill: #262626" x="40.854063" y="169.924687" transform="rotate(-0 40.854063 169.924687)">0.6</text>
     </g>
    </g>
    <g id="ytick_5">
     <g id="line2d_11">
      <g>
       <use xlink:href="#m7ddd7655cb" x="49.154063" y="95.14125" style="fill: #262626; stroke: #262626"/>
      </g>
     </g>
     <g id="text_12">
      <text style="font-size: 12px; font-family: 'Arial', 'DejaVu Sans', 'Liberation Sans', 'Bitstream Vera Sans', sans-serif; text-anchor: end; fill: #262626" x="40.854063" y="99.435937" transform="rotate(-0 40.854063 99.435937)">0.8</text>
     </g>
    </g>
    <g id="ytick_6">
     <g id="line2d_12">
      <g>
       <use xlink:href="#m7ddd7655cb" x="49.154063" y="24.6525" style="fill: #262626; stroke: #262626"/>
      </g>
     </g>
     <g id="text_13">
      <text style="font-size: 12px; font-family: 'Arial', 'DejaVu Sans', 'Liberation Sans', 'Bitstream Vera Sans', sans-serif; text-anchor: end; fill: #262626" x="40.854063" y="28.947187" transform="rotate(-0 40.854063 28.947187)">1.0</text>
     </g>
    </g>
    <g id="text_14">
     <text style="font-size: 14px; font-family: 'Arial', 'DejaVu Sans', 'Liberation Sans', 'Bitstream Vera Sans', sans-serif; text-anchor: middle; fill: #262626" x="17.391563" y="200.874375" transform="rotate(-90 17.391563 200.874375)">Cumulative Proportion of Datapoints</text>
    </g>
   </g>
   <g id="line2d_13">
    <path d="M 49.154063 377.09625 
L 49.26464 375.954332 
L 49.276406 375.845075 
L 49.387366 374.981587 
L 49.407167 374.87233 
L 49.518127 373.980647 
L 49.530754 373.87139 
L 49.641523 372.849303 
L 49.653862 372.740045 
L 49.763579 371.732056 
L 49.784623 371.622799 
L 49.894818 370.738165 
L 49.908497 370.628907 
L 50.01917 369.603296 
L 50.03524 369.494038 
L 50.146009 368.665795 
L 50.157488 368.556538 
L 50.268066 367.717722 
L 50.281458 367.608464 
L 50.392227 366.889479 
L 50.407149 366.780221 
L 50.516961 365.948454 
L 50.536666 365.839197 
L 50.64667 365.102589 
L 50.657957 364.996856 
L 50.657957 364.993332 
L 50.768918 364.084027 
L 50.786518 363.974769 
L 50.897287 363.023171 
L 50.909914 362.913913 
L 51.019344 362.152635 
L 51.037996 362.043377 
L 51.149052 361.201037 
L 51.163592 361.095304 
L 51.163592 361.091779 
L 51.27417 360.312879 
L 51.29024 360.203621 
L 51.400626 359.442343 
L 51.411914 359.333085 
L 51.5223 358.529513 
L 51.53837 358.420256 
L 51.64933 357.697746 
L 51.661957 357.588488 
L 51.771387 356.777868 
L 51.786213 356.66861 
L 51.896695 355.946101 
L 51.907409 355.836843 
L 52.017891 355.029747 
L 52.040561 354.920489 
L 52.15133 354.152162 
L 52.163478 354.042904 
L 52.274056 353.204088 
L 52.292326 353.094831 
L 52.403287 352.266588 
L 52.42127 352.15733 
L 52.532039 351.392527 
L 52.5483 351.28327 
L 52.658878 350.486747 
L 52.676861 350.377489 
L 52.78763 349.65498 
L 52.803892 349.545722 
L 52.914852 348.86903 
L 52.934748 348.759772 
L 53.045708 347.93153 
L 53.06484 347.822272 
L 53.175609 347.191398 
L 53.195314 347.08214 
L 53.303978 346.373728 
L 53.321005 346.264471 
L 53.431965 345.570157 
L 53.446313 345.464423 
L 53.446313 345.460899 
L 53.557274 344.815927 
L 53.574874 344.706669 
L 53.685261 344.001782 
L 53.706496 343.892524 
L 53.817552 343.184112 
L 53.839266 343.078379 
L 53.839266 343.074855 
L 53.949844 342.352345 
L 53.964383 342.243088 
L 54.075344 341.619262 
L 54.101745 341.510005 
L 54.212705 340.78397 
L 54.231453 340.674713 
L 54.341935 340.001545 
L 54.364414 339.892288 
L 54.474992 339.197974 
L 54.499289 339.088716 
L 54.610249 338.373255 
L 54.62938 338.263998 
L 54.740245 337.509768 
L 54.755836 337.404035 
L 54.755836 337.40051 
L 54.866605 336.723818 
L 54.886502 336.614561 
L 54.99641 335.987211 
L 55.012576 335.881478 
L 55.012576 335.877953 
L 55.123345 335.180115 
L 55.144389 335.070857 
L 55.254871 334.418836 
L 55.279263 334.309579 
L 55.390223 333.569447 
L 55.412128 333.460189 
L 55.523184 332.776448 
L 55.545568 332.667191 
L 55.65605 332.106805 
L 55.679294 331.997548 
L 55.789298 331.45126 
L 55.81436 331.342002 
L 55.924746 330.693506 
L 55.943112 330.584248 
L 56.053689 330.002716 
L 56.080473 329.893459 
L 56.190859 329.294304 
L 56.214869 329.185047 
L 56.325734 328.681052 
L 56.349265 328.571794 
L 56.460225 328.046653 
L 56.480504 327.937396 
L 56.591464 327.310046 
L 56.611552 327.200788 
L 56.721364 326.672123 
L 56.742983 326.562865 
L 56.852412 326.023626 
L 56.874222 325.914369 
L 56.984226 325.315214 
L 57.011583 325.205957 
L 57.122352 324.606802 
L 57.142057 324.497545 
L 57.252826 323.89839 
L 57.274062 323.789133 
L 57.384639 323.147685 
L 57.408171 323.038428 
L 57.519131 322.453371 
L 57.545149 322.344113 
L 57.655727 321.723812 
L 57.680597 321.614555 
L 57.789453 321.07884 
L 57.812602 320.969583 
L 57.922797 320.405673 
L 57.947285 320.296415 
L 58.057288 319.802994 
L 58.078333 319.693736 
L 58.189102 319.196791 
L 58.217607 319.087533 
L 58.327228 318.460183 
L 58.353438 318.350926 
L 58.464207 317.861029 
L 58.493668 317.751771 
L 58.604724 317.180812 
L 58.622038 317.071555 
L 58.732424 316.525267 
L 58.758825 316.41601 
L 58.868446 315.823904 
L 58.886047 315.714646 
L 58.997007 315.25647 
L 59.01786 315.147212 
L 59.127194 314.657315 
L 59.152639 314.548058 
L 59.263312 314.005294 
L 59.287417 313.896037 
L 59.397612 313.434335 
L 59.427074 313.325078 
L 59.537461 312.817559 
L 59.564244 312.708301 
L 59.675013 312.228978 
L 59.693188 312.11972 
L 59.804148 311.566384 
L 59.827488 311.457126 
L 59.938353 310.981327 
L 59.964849 310.872069 
L 60.07447 310.375124 
L 60.098767 310.265866 
L 60.209536 309.761872 
L 60.23785 309.652614 
L 60.346897 309.169766 
L 60.375594 309.060508 
L 60.485789 308.570612 
L 60.509129 308.461354 
L 60.617124 307.936213 
L 60.647255 307.826955 
L 60.754963 307.446316 
L 60.786721 307.340583 
L 60.786721 307.337059 
L 60.896916 306.928224 
L 60.919873 306.818966 
L 61.029877 306.300874 
L 61.055704 306.191616 
L 61.165899 305.796879 
L 61.189621 305.687622 
L 61.300582 305.271738 
L 61.332913 305.162481 
L 61.443874 304.679633 
L 61.477927 304.570375 
L 61.588505 304.091052 
L 61.619497 303.981794 
L 61.729309 303.537715 
L 61.763745 303.428457 
L 61.87394 302.924463 
L 61.899193 302.815205 
L 62.009676 302.31826 
L 62.034259 302.212526 
L 62.034259 302.209002 
L 62.144837 301.747301 
L 62.176403 301.638043 
L 62.286789 301.208062 
L 62.307451 301.098804 
L 62.418124 300.654725 
L 62.43869 300.545467 
L 62.54965 300.108437 
L 62.57213 299.99918 
L 62.682803 299.523381 
L 62.716665 299.414123 
L 62.82686 298.966519 
L 62.85393 298.857262 
L 62.963934 298.423756 
L 62.9933 298.314499 
L 63.103304 297.821077 
L 63.138123 297.71182 
L 63.248127 297.295936 
L 63.274527 297.186679 
L 63.382427 296.746124 
L 63.414184 296.636866 
L 63.525145 296.213934 
L 63.553554 296.104676 
L 63.66461 295.681744 
L 63.70536 295.572486 
L 63.816129 295.10726 
L 63.851904 294.998003 
L 63.961525 294.557448 
L 63.985056 294.448191 
L 64.095538 294.04288 
L 64.129496 293.933623 
L 64.239117 293.549459 
L 64.276614 293.440201 
L 64.387574 292.9785 
L 64.416845 292.869243 
L 64.52704 292.421639 
L 64.552293 292.312381 
L 64.663062 291.843631 
L 64.700941 291.734374 
L 64.811232 291.336112 
L 64.847294 291.226855 
L 64.958255 290.772202 
L 64.986186 290.662945 
L 65.095807 290.236488 
L 65.116469 290.12723 
L 65.227046 289.662004 
L 65.248282 289.552747 
L 65.358477 289.161534 
L 65.387556 289.052277 
L 65.497177 288.643442 
L 65.526448 288.534184 
L 65.637408 288.132399 
L 65.664957 288.023141 
L 65.775726 287.660124 
L 65.804996 287.550866 
L 65.914809 287.113836 
L 65.951541 287.004579 
L 66.05944 286.592219 
L 66.089093 286.482962 
L 66.198332 286.102323 
L 66.227028 285.993065 
L 66.336649 285.594804 
L 66.364963 285.485546 
L 66.475732 285.080236 
L 66.507299 284.970978 
L 66.618068 284.600912 
L 66.651356 284.491655 
L 66.76136 284.012331 
L 66.7847 283.903074 
L 66.894703 283.568252 
L 66.921869 283.458994 
L 67.032256 282.990244 
L 67.070709 282.884511 
L 67.070709 282.880987 
L 67.18167 282.451005 
L 67.205583 282.341748 
L 67.316544 281.939962 
L 67.360163 281.830704 
L 67.470932 281.418345 
L 67.495037 281.312612 
L 67.495037 281.309088 
L 67.605997 280.900253 
L 67.637563 280.790995 
L 67.747567 280.353965 
L 67.782386 280.244707 
L 67.892772 279.842922 
L 67.92166 279.733664 
L 68.03262 279.314256 
L 68.059978 279.204998 
L 68.167877 278.746822 
L 68.201165 278.637564 
L 68.311169 278.186436 
L 68.3391 278.077178 
L 68.450061 277.615477 
L 68.486601 277.50622 
L 68.596987 277.058616 
L 68.626832 276.949358 
L 68.736453 276.515853 
L 68.769359 276.406595 
L 68.879745 275.980138 
L 68.911503 275.870881 
L 69.021698 275.440899 
L 69.049055 275.331642 
L 69.159441 274.961576 
L 69.199043 274.852318 
L 69.309812 274.485777 
L 69.343865 274.380043 
L 69.343865 274.376519 
L 69.454252 274.006453 
L 69.480652 273.897196 
L 69.591421 273.467214 
L 69.61084 273.357957 
L 69.721895 272.942073 
L 69.744088 272.832815 
L 69.85237 272.413407 
L 69.882023 272.30415 
L 69.992313 271.909413 
L 70.025506 271.800155 
L 70.135318 271.405418 
L 70.169754 271.296161 
L 70.280236 270.915521 
L 70.314385 270.806264 
L 70.425154 270.411527 
L 70.454807 270.302269 
L 70.564237 269.928679 
L 70.606039 269.819421 
L 70.715182 269.456404 
L 70.7544 269.347147 
L 70.861726 268.924214 
L 70.907449 268.814957 
L 71.015922 268.448415 
L 71.061263 268.339158 
L 71.172032 268.014909 
L 71.220434 267.905652 
L 71.331011 267.528537 
L 71.364873 267.419279 
L 71.475068 266.982249 
L 71.5074 266.872992 
L 71.617595 266.50645 
L 71.661023 266.397193 
L 71.771218 265.991882 
L 71.803358 265.882625 
L 71.914414 265.494937 
L 71.961189 265.385679 
L 72.070619 265.029711 
L 72.10429 264.920453 
L 72.21525 264.585632 
L 72.249495 264.476374 
L 72.356438 264.099259 
L 72.405413 263.990002 
L 72.516374 263.634034 
L 72.547749 263.524776 
L 72.65737 263.151186 
L 72.686258 263.041928 
L 72.793774 262.618996 
L 72.835097 262.509738 
L 72.944336 262.136148 
L 72.97418 262.02689 
L 73.084949 261.632153 
L 73.117855 261.522895 
L 73.226328 261.149305 
L 73.289078 261.040048 
L 73.399656 260.691128 
L 73.441362 260.581871 
L 73.551365 260.218854 
L 73.586758 260.109596 
L 73.69657 259.764201 
L 73.727945 259.654944 
L 73.836227 259.348318 
L 73.87162 259.23906 
L 73.980858 258.844323 
L 74.013094 258.735065 
L 74.12415 258.410817 
L 74.167004 258.30156 
L 74.27739 257.95264 
L 74.319479 257.843383 
L 74.429291 257.505037 
L 74.466405 257.395779 
L 74.577174 257.060958 
L 74.621367 256.9517 
L 74.730414 256.599256 
L 74.76332 256.489999 
L 74.87428 256.193946 
L 74.898003 256.084688 
L 75.008963 255.679378 
L 75.032303 255.570121 
L 75.143072 255.189481 
L 75.189369 255.080224 
L 75.299373 254.805318 
L 75.332852 254.69606 
L 75.44343 254.371812 
L 75.479779 254.262554 
L 75.589592 253.984124 
L 75.631871 253.878391 
L 75.631871 253.874866 
L 75.741875 253.557667 
L 75.781094 253.448409 
L 75.891863 253.085392 
L 75.934716 252.976135 
L 76.04472 252.634264 
L 76.08853 252.525007 
L 76.199108 252.169038 
L 76.227231 252.059781 
L 76.338191 251.668568 
L 76.377984 251.562835 
L 76.377984 251.559311 
L 76.484161 251.259733 
L 76.524337 251.150476 
L 76.632427 250.790983 
L 76.661698 250.681726 
L 76.770554 250.385673 
L 76.80939 250.276415 
L 76.92035 249.966265 
L 76.963204 249.857007 
L 77.073016 249.515137 
L 77.116444 249.405879 
L 77.225491 249.014667 
L 77.259162 248.905409 
L 77.370218 248.605832 
L 77.409723 248.500099 
L 77.409723 248.496574 
L 77.520301 248.140606 
L 77.573103 248.031349 
L 77.684063 247.668332 
L 77.717543 247.562599 
L 77.717543 247.559074 
L 77.827164 247.213679 
L 77.856052 247.104422 
L 77.965481 246.773125 
L 77.993987 246.667391 
L 77.993987 246.663867 
L 78.103608 246.346668 
L 78.142253 246.23741 
L 78.25283 245.944882 
L 78.280953 245.835624 
L 78.389905 245.525474 
L 78.427689 245.416216 
L 78.536927 245.060248 
L 78.569259 244.95099 
L 78.679836 244.521009 
L 78.716568 244.411751 
L 78.826763 244.07693 
L 78.853929 243.974721 
L 78.853929 243.967672 
L 78.964316 243.643424 
L 79.011569 243.534166 
L 79.12253 243.128856 
L 79.149313 243.019599 
L 79.258552 242.72707 
L 79.303127 242.617813 
L 79.413513 242.251271 
L 79.445654 242.142014 
L 79.55451 241.831863 
L 79.588946 241.722606 
L 79.697419 241.373686 
L 79.746203 241.264429 
L 79.855059 240.933132 
L 79.898487 240.823874 
L 80.009064 240.47143 
L 80.039291 240.365697 
L 80.039291 240.362173 
L 80.149104 240.094315 
L 80.197888 239.985058 
L 80.308466 239.576223 
L 80.345389 239.466966 
L 80.455775 239.125095 
L 80.505899 239.015838 
L 80.616094 238.730358 
L 80.654738 238.621101 
L 80.765699 238.300377 
L 80.816779 238.191119 
L 80.927739 237.863347 
L 80.960645 237.754089 
L 81.071414 237.475658 
L 81.102215 237.366401 
L 81.212984 237.066824 
L 81.265785 236.957566 
L 81.373876 236.654464 
L 81.418643 236.548731 
L 81.418643 236.545207 
L 81.529029 236.263252 
L 81.5671 236.153994 
L 81.677104 235.819173 
L 81.717088 235.709915 
L 81.827092 235.375094 
L 81.873963 235.265836 
L 81.984923 234.902819 
L 82.016872 234.793561 
L 82.127641 234.479887 
L 82.170686 234.370629 
L 82.278777 234.042856 
L 82.316465 233.933599 
L 82.421494 233.595253 
L 82.479844 233.485995 
L 82.590613 233.1406 
L 82.628302 233.034867 
L 82.628302 233.031343 
L 82.738305 232.685948 
L 82.781733 232.57669 
L 82.890971 232.280638 
L 82.948939 232.17138 
L 83.059708 231.850656 
L 83.102944 231.741399 
L 83.213713 231.48059 
L 83.267089 231.371333 
L 83.377858 231.068231 
L 83.424346 230.958973 
L 83.535115 230.66997 
L 83.573377 230.560712 
L 83.682329 230.292855 
L 83.720687 230.183597 
L 83.829734 229.901642 
L 83.863022 229.792385 
L 83.972261 229.513954 
L 84.010523 229.404697 
L 84.120718 229.09807 
L 84.179546 228.988813 
L 84.290219 228.576454 
L 84.327334 228.467196 
L 84.438294 228.114752 
L 84.488035 228.005495 
L 84.59823 227.727064 
L 84.645101 227.617807 
L 84.75587 227.335852 
L 84.802167 227.226594 
L 84.911023 226.884724 
L 84.959425 226.775466 
L 85.070289 226.451218 
L 85.113047 226.34196 
L 85.222668 226.052956 
L 85.264183 225.943699 
L 85.375143 225.619451 
L 85.413979 225.510193 
L 85.523887 225.252909 
L 85.575446 225.143652 
L 85.686502 224.847599 
L 85.718833 224.738341 
L 85.829315 224.438764 
L 85.871021 224.329507 
L 85.981407 224.008783 
L 86.010104 223.899525 
L 86.120873 223.575277 
L 86.154065 223.466019 
L 86.265121 223.155869 
L 86.315436 223.046611 
L 86.425249 222.789327 
L 86.465807 222.68007 
L 86.57581 222.366395 
L 86.621151 222.257137 
L 86.731729 221.982231 
L 86.770756 221.872974 
L 86.876168 221.598067 
L 86.926292 221.48881 
L 87.037061 221.259721 
L 87.07628 221.150464 
L 87.18724 220.864984 
L 87.236789 220.755727 
L 87.347176 220.466723 
L 87.386203 220.357465 
L 87.496781 220.064937 
L 87.547096 219.95568 
L 87.657865 219.684298 
L 87.688666 219.57504 
L 87.799243 219.243743 
L 87.840949 219.134486 
L 87.950188 218.813762 
L 87.993041 218.704504 
L 88.103906 218.394354 
L 88.150108 218.285096 
L 88.260685 218.024288 
L 88.314635 217.91503 
L 88.42483 217.657746 
L 88.481075 217.548489 
L 88.589931 217.277107 
L 88.631063 217.16785 
L 88.741641 216.804832 
L 88.777033 216.695575 
L 88.88742 216.406571 
L 88.925491 216.297313 
L 89.034155 216.036505 
L 89.083896 215.927248 
L 89.194569 215.673488 
L 89.243641 215.56423 
L 89.350966 215.204738 
L 89.403003 215.09548 
L 89.513772 214.767708 
L 89.557773 214.65845 
L 89.668733 214.344775 
L 89.731866 214.235518 
L 89.840913 213.942989 
L 89.895628 213.833732 
L 90.005154 213.495386 
L 90.038155 213.386128 
L 90.147776 213.153515 
L 90.187951 213.044258 
L 90.29872 212.716485 
L 90.332008 212.607227 
L 90.442395 212.325272 
L 90.493283 212.216015 
L 90.604052 211.860047 
L 90.655515 211.750789 
L 90.763797 211.475883 
L 90.816025 211.366625 
L 90.926028 211.077622 
L 90.996813 210.968364 
L 91.107009 210.700507 
L 91.169759 210.591249 
L 91.27804 210.295196 
L 91.318503 210.185939 
L 91.429559 209.840544 
L 91.460168 209.731286 
L 91.570937 209.477527 
L 91.623165 209.368269 
L 91.734126 209.089839 
L 91.781379 208.980581 
L 91.891574 208.67748 
L 91.941315 208.568222 
L 92.051128 208.240449 
L 92.096086 208.131192 
L 92.203794 207.877432 
L 92.250474 207.771699 
L 92.250474 207.768175 
L 92.36086 207.450975 
L 92.40907 207.341718 
L 92.519074 207.049189 
L 92.565945 206.939932 
L 92.675853 206.629781 
L 92.71842 206.520524 
L 92.829189 206.26324 
L 92.863625 206.157507 
L 92.863625 206.153982 
L 92.974585 205.798014 
L 93.023561 205.688757 
L 93.134139 205.41385 
L 93.176227 205.304593 
L 93.286805 205.04026 
L 93.333676 204.931003 
L 93.443871 204.673719 
L 93.476585 204.564461 
L 93.58678 204.331848 
L 93.642643 204.222591 
L 93.753029 203.954733 
L 93.792822 203.845476 
L 93.903591 203.478934 
L 93.950654 203.369677 
L 94.059701 203.031331 
L 94.109633 202.922073 
L 94.217724 202.583727 
L 94.25656 202.47447 
L 94.366181 202.181941 
L 94.407121 202.072684 
L 94.517699 201.833022 
L 94.564857 201.723764 
L 94.675913 201.441809 
L 94.709584 201.332552 
L 94.820161 201.054121 
L 94.854024 200.944864 
L 94.964027 200.677006 
L 95.017977 200.567749 
L 95.129033 200.278745 
L 95.174852 200.169487 
L 95.284664 199.859337 
L 95.331153 199.750079 
L 95.440391 199.443453 
L 95.493958 199.334196 
L 95.601475 199.031094 
L 95.649685 198.921837 
L 95.759498 198.615211 
L 95.794508 198.505953 
L 95.905085 198.24162 
L 95.9532 198.132363 
L 96.062726 197.850408 
L 96.102136 197.74115 
L 96.210035 197.455671 
L 96.255567 197.346413 
L 96.366623 197.057409 
L 96.411677 196.948152 
L 96.52235 196.648574 
L 96.557456 196.539317 
L 96.668416 196.148104 
L 96.724183 196.038847 
L 96.833517 195.767465 
L 96.892632 195.658207 
L 97.003593 195.351581 
L 97.044533 195.242324 
L 97.155111 194.949796 
L 97.205617 194.840538 
L 97.316386 194.618498 
L 97.362109 194.512765 
L 97.362109 194.509241 
L 97.4702 194.23081 
L 97.516497 194.121553 
L 97.624779 193.860744 
L 97.660554 193.751487 
L 97.766158 193.508301 
L 97.834647 193.399043 
L 97.942929 193.138235 
L 97.990948 193.028977 
L 98.101334 192.743498 
L 98.144762 192.637765 
L 98.144762 192.63424 
L 98.254766 192.369907 
L 98.310629 192.26065 
L 98.421015 191.985744 
L 98.464251 191.876486 
L 98.572724 191.650922 
L 98.619213 191.541664 
L 98.729408 191.266758 
L 98.778192 191.157501 
L 98.887048 190.861448 
L 98.937554 190.75219 
L 99.046793 190.427942 
L 99.098638 190.318685 
L 99.209407 190.089596 
L 99.249774 189.980339 
L 99.360543 189.691335 
L 99.409901 189.582077 
L 99.52067 189.349464 
L 99.557402 189.240207 
L 99.667501 188.975874 
L 99.709876 188.866616 
L 99.820454 188.665723 
L 99.848577 188.556466 
L 99.953606 188.288609 
L 99.99359 188.182876 
L 99.99359 188.179351 
L 100.102064 187.960836 
L 100.15257 187.851578 
L 100.262669 187.594294 
L 100.319967 187.488561 
L 100.319967 187.485037 
L 100.430162 187.210131 
L 100.491764 187.100873 
L 100.599472 186.808345 
L 100.652656 186.699087 
L 100.763617 186.417132 
L 100.812975 186.311399 
L 100.812975 186.307875 
L 100.92317 186.043542 
L 100.98812 185.934284 
L 101.098411 185.687574 
L 101.149108 185.578316 
L 101.260068 185.317508 
L 101.290487 185.20825 
L 101.401447 184.954491 
L 101.440857 184.845233 
L 101.551148 184.633767 
L 101.604619 184.524509 
L 101.714432 184.284848 
L 101.753459 184.17559 
L 101.862506 183.953551 
L 101.912821 183.844293 
L 102.02072 183.565862 
L 102.087105 183.456605 
L 102.196918 183.209894 
L 102.236519 183.100637 
L 102.34614 182.822206 
L 102.38402 182.712949 
L 102.490963 182.438042 
L 102.573418 182.332309 
L 102.573418 182.328785 
L 102.680934 182.04683 
L 102.731058 181.937572 
L 102.841444 181.613324 
L 102.902951 181.504066 
L 103.013815 181.264405 
L 103.070443 181.155147 
L 103.179108 180.869668 
L 103.242623 180.76041 
L 103.353009 180.48198 
L 103.40715 180.372722 
L 103.51658 180.076669 
L 103.550442 179.967412 
L 103.660829 179.692506 
L 103.710952 179.583248 
L 103.82153 179.304817 
L 103.869166 179.19556 
L 103.978596 178.917129 
L 104.051103 178.807872 
L 104.161681 178.518868 
L 104.195925 178.40961 
L 104.306886 178.085362 
L 104.363896 177.976105 
L 104.471796 177.722345 
L 104.525936 177.613087 
L 104.636705 177.348755 
L 104.709978 177.243022 
L 104.709978 177.239497 
L 104.817686 176.978689 
L 104.874027 176.869431 
L 104.982978 176.626245 
L 105.039798 176.516987 
L 105.147888 176.305521 
L 105.19782 176.196264 
L 105.305528 175.953077 
L 105.376122 175.84382 
L 105.486508 175.646451 
L 105.538928 175.537194 
L 105.649888 175.325728 
L 105.70422 175.21647 
L 105.814989 175.071968 
L 105.87927 174.96271 
L 105.988699 174.719524 
L 106.040736 174.610267 
L 106.149401 174.374129 
L 106.201055 174.264872 
L 106.30991 173.989966 
L 106.351425 173.880708 
L 106.462385 173.693913 
L 106.522074 173.584655 
L 106.633035 173.355567 
L 106.70248 173.246309 
L 106.812867 172.985501 
L 106.873991 172.876243 
L 106.983133 172.629533 
L 107.043396 172.520275 
L 107.1534 172.262991 
L 107.192428 172.153734 
L 107.303005 171.899974 
L 107.36652 171.790717 
L 107.474898 171.551055 
L 107.5299 171.445322 
L 107.5299 171.441797 
L 107.635695 171.255002 
L 107.699784 171.145745 
L 107.807109 170.944852 
L 107.871199 170.835594 
L 107.979098 170.620603 
L 108.031517 170.511346 
L 108.140947 170.282257 
L 108.188009 170.173 
L 108.298491 169.891045 
L 108.367842 169.781787 
L 108.47775 169.556223 
L 108.572927 169.446966 
L 108.67987 169.193206 
L 108.734967 169.083949 
L 108.845354 168.816091 
L 108.910017 168.706834 
L 109.021073 168.446026 
L 109.093484 168.336768 
L 109.203488 168.104155 
L 109.248063 167.994898 
L 109.358449 167.751711 
L 109.41393 167.642454 
L 109.522211 167.413365 
L 109.590127 167.304108 
L 109.700513 167.039775 
L 109.739254 166.930517 
L 109.850118 166.676758 
L 109.895076 166.5675 
L 110.004506 166.296119 
L 110.070126 166.186861 
L 110.181086 165.926053 
L 110.225853 165.816795 
L 110.335283 165.591231 
L 110.402624 165.481974 
L 110.511671 165.221165 
L 110.557586 165.111908 
L 110.668164 164.925112 
L 110.719244 164.815855 
L 110.829343 164.576193 
L 110.880519 164.466936 
L 110.990331 164.181456 
L 111.035576 164.072199 
L 111.146058 163.84311 
L 111.195034 163.733853 
L 111.304272 163.480093 
L 111.348656 163.370836 
L 111.459617 163.15232 
L 111.515288 163.043063 
L 111.626249 162.831597 
L 111.662311 162.722339 
L 111.771071 162.514397 
L 111.821577 162.40514 
L 111.931581 162.172527 
L 111.989931 162.063269 
L 112.100221 161.834181 
L 112.153884 161.724923 
L 112.264844 161.520506 
L 112.316881 161.411248 
L 112.427076 161.185684 
L 112.489443 161.079951 
L 112.489443 161.076427 
L 112.597151 160.829716 
L 112.663536 160.720459 
L 112.772201 160.470223 
L 112.835333 160.360966 
L 112.942659 160.177695 
L 112.992591 160.068438 
L 113.096473 159.828776 
L 113.165727 159.719518 
L 113.276688 159.525674 
L 113.319063 159.416417 
L 113.428014 159.190853 
L 113.497843 159.081595 
L 113.60756 158.884227 
L 113.657205 158.774969 
L 113.767209 158.559978 
L 113.836846 158.450721 
L 113.946084 158.232206 
L 114.012661 158.122948 
L 114.121612 157.907957 
L 114.182353 157.7987 
L 114.292931 157.60838 
L 114.34975 157.499123 
L 114.459563 157.301754 
L 114.532835 157.192497 
L 114.643413 156.977506 
L 114.711902 156.868248 
L 114.822288 156.63916 
L 114.878342 156.529902 
L 114.987868 156.325485 
L 115.034261 156.216227 
L 115.145221 155.997712 
L 115.198788 155.888455 
L 115.309748 155.655842 
L 115.400047 155.546584 
L 115.506416 155.359789 
L 115.583897 155.250532 
L 115.694666 155.01087 
L 115.752442 154.901612 
L 115.863402 154.728915 
L 115.92883 154.619657 
L 116.039791 154.390569 
L 116.115932 154.284836 
L 116.115932 154.281311 
L 116.226797 154.115663 
L 116.298443 154.006405 
L 116.40156 153.81961 
L 116.464501 153.710352 
L 116.575078 153.520033 
L 116.647777 153.410775 
L 116.75778 153.157016 
L 116.809434 153.047758 
L 116.920012 152.846865 
L 116.990223 152.737608 
L 117.095635 152.550812 
L 117.154368 152.441555 
L 117.265328 152.22304 
L 117.346061 152.113782 
L 117.455874 151.87412 
L 117.53565 151.764863 
L 117.645272 151.556921 
L 117.705917 151.447663 
L 117.814199 151.218575 
L 117.878288 151.109317 
L 117.988196 150.954242 
L 118.038607 150.844985 
L 118.148611 150.577127 
L 118.204665 150.46787 
L 118.312564 150.249355 
L 118.372444 150.140097 
L 118.483405 149.889862 
L 118.528363 149.780605 
L 118.639323 149.593809 
L 118.68409 149.488076 
L 118.68409 149.484552 
L 118.79065 149.297757 
L 118.856078 149.188499 
L 118.966656 148.966459 
L 119.037632 148.857202 
L 119.147827 148.688029 
L 119.209238 148.578771 
L 119.319242 148.413123 
L 119.395384 148.303865 
L 119.497926 148.110021 
L 119.569476 148.000764 
L 119.677567 147.817493 
L 119.732282 147.708235 
L 119.836546 147.493245 
L 119.89834 147.383987 
L 120.0093 147.176045 
L 120.077981 147.066788 
L 120.184924 146.834175 
L 120.256665 146.724917 
L 120.367051 146.541646 
L 120.429993 146.432389 
L 120.540953 146.263216 
L 120.604468 146.153958 
L 120.712368 145.991834 
L 120.802092 145.882577 
L 120.911618 145.667586 
L 120.97829 145.558328 
L 121.087337 145.410302 
L 121.148365 145.301044 
L 121.257604 145.135396 
L 121.308492 145.026138 
L 121.417731 144.807623 
L 121.501908 144.698366 
L 121.609233 144.493948 
L 121.696471 144.384691 
L 121.806475 144.211993 
L 121.866355 144.102736 
L 121.975976 143.930038 
L 122.045613 143.820781 
L 122.155808 143.644559 
L 122.214349 143.535301 
L 122.320144 143.369653 
L 122.404512 143.260395 
L 122.513368 143.055978 
L 122.600032 142.94672 
L 122.701236 142.809267 
L 122.800717 142.70001 
L 122.910912 142.523788 
L 122.996811 142.41453 
L 123.099162 142.213637 
L 123.17033 142.10438 
L 123.278994 141.956353 
L 123.371589 141.847096 
L 123.482358 141.649727 
L 123.569787 141.54047 
L 123.676251 141.374821 
L 123.754593 141.265564 
L 123.862684 141.106964 
L 123.947148 140.997706 
L 124.056864 140.84968 
L 124.129945 140.740422 
L 124.237079 140.532481 
L 124.317813 140.423223 
L 124.428008 140.218806 
L 124.529402 140.109548 
L 124.640171 139.961522 
L 124.682834 139.852264 
L 124.793794 139.686616 
L 124.88811 139.577358 
L 124.996966 139.432856 
L 125.065838 139.323598 
L 125.175651 139.150901 
L 125.257723 139.041643 
L 125.363518 138.865422 
L 125.464913 138.756164 
L 125.574916 138.615187 
L 125.650867 138.505929 
L 125.760871 138.301512 
L 125.835673 138.192254 
L 125.94472 138.008983 
L 126.021436 137.899726 
L 126.13144 137.758748 
L 126.212556 137.649491 
L 126.322368 137.4345 
L 126.410562 137.325242 
L 126.521044 137.18074 
L 126.602256 137.071483 
L 126.713025 136.87059 
L 126.80868 136.761332 
L 126.91811 136.620355 
L 126.991573 136.511097 
L 127.095647 136.380693 
L 127.202781 136.271436 
L 127.31355 136.109311 
L 127.393805 136.000054 
L 127.501226 135.841454 
L 127.580428 135.732197 
L 127.690815 135.58417 
L 127.748591 135.474913 
L 127.851707 135.288118 
L 127.939519 135.17886 
L 128.048566 135.009687 
L 128.148239 134.900429 
L 128.254895 134.787647 
L 128.339359 134.67839 
L 128.44324 134.540937 
L 128.520913 134.431679 
L 128.630725 134.24136 
L 128.689075 134.132102 
L 128.800035 133.980551 
L 128.882108 133.874818 
L 128.882108 133.871294 
L 128.99039 133.723267 
L 129.069401 133.61401 
L 129.178448 133.437788 
L 129.293617 133.32853 
L 129.404578 133.138211 
L 129.482632 133.028953 
L 129.589193 132.902073 
L 129.680639 132.792816 
L 129.786338 132.602496 
L 129.861428 132.493239 
L 129.972006 132.331114 
L 130.043747 132.221857 
L 130.152603 132.066782 
L 130.259163 131.957524 
L 130.361132 131.816547 
L 130.456979 131.707289 
L 130.567556 131.559263 
L 130.654412 131.450005 
L 130.763363 131.273783 
L 130.856245 131.164526 
L 130.965866 131.030597 
L 131.036077 130.921339 
L 131.145698 130.755691 
L 131.22777 130.646433 
L 131.337391 130.44554 
L 131.397654 130.336283 
L 131.508232 130.170634 
L 131.582652 130.061377 
L 131.689977 129.941546 
L 131.78085 129.832288 
L 131.89181 129.649018 
L 132.009275 129.53976 
L 132.11794 129.377636 
L 132.212447 129.268378 
L 132.323408 129.130925 
L 132.416576 129.021668 
L 132.510797 128.873641 
L 132.610374 128.764384 
L 132.715595 128.637504 
L 132.832486 128.528246 
L 132.943064 128.359073 
L 133.028771 128.249816 
L 133.139731 128.119412 
L 133.225247 128.010154 
L 133.334581 127.869177 
L 133.414645 127.759919 
L 133.525605 127.608368 
L 133.626617 127.499111 
L 133.737386 127.329938 
L 133.824433 127.22068 
L 133.930228 127.097325 
L 133.995274 126.988067 
L 134.103555 126.885859 
L 134.194428 126.776601 
L 134.302327 126.646197 
L 134.40487 126.536939 
L 134.51143 126.395962 
L 134.609955 126.286704 
L 134.714602 126.163349 
L 134.814658 126.054091 
L 134.924279 125.916638 
L 135.008073 125.807381 
L 135.101624 125.666403 
L 135.232672 125.557146 
L 135.338659 125.430266 
L 135.449236 125.321008 
L 135.560005 125.169457 
L 135.635956 125.0602 
L 135.741559 124.926271 
L 135.838937 124.817014 
L 135.949132 124.676036 
L 136.028239 124.566779 
L 136.138912 124.429326 
L 136.225767 124.320068 
L 136.336536 124.182615 
L 136.420904 124.073357 
L 136.531482 123.911233 
L 136.637468 123.801976 
L 136.746515 123.671572 
L 136.860537 123.562314 
L 136.970158 123.386092 
L 137.080735 123.276835 
L 137.1894 123.135857 
L 137.27702 123.026599 
L 137.387215 122.896195 
L 137.481149 122.786938 
L 137.590579 122.663582 
L 137.654859 122.554325 
L 137.764672 122.434494 
L 137.874484 122.325236 
L 137.984679 122.191308 
L 138.065413 122.08205 
L 138.172547 121.905828 
L 138.288672 121.796571 
L 138.381841 121.673215 
L 138.48534 121.563958 
L 138.595535 121.384212 
L 138.679903 121.278478 
L 138.679903 121.274954 
L 138.784741 121.162172 
L 138.889962 121.052914 
L 139.000158 120.92251 
L 139.098874 120.813253 
L 139.209069 120.640555 
L 139.286359 120.531298 
L 139.397319 120.39032 
L 139.478243 120.281063 
L 139.578873 120.157707 
L 139.673954 120.04845 
L 139.783193 119.88985 
L 139.877892 119.780593 
L 139.981582 119.643139 
L 140.098665 119.533882 
L 140.209242 119.417575 
L 140.28768 119.308318 
L 140.397492 119.160292 
L 140.516488 119.051034 
L 140.626491 118.92063 
L 140.703207 118.811372 
L 140.810724 118.684492 
L 140.905423 118.575235 
L 141.015809 118.423684 
L 141.105247 118.314427 
L 141.216016 118.145254 
L 141.314828 118.035996 
L 141.422919 117.880921 
L 141.543827 117.771663 
L 141.652109 117.630686 
L 141.739729 117.521428 
L 141.848394 117.35578 
L 141.922623 117.246522 
L 142.031861 117.10202 
L 142.134786 116.992762 
L 142.24192 116.862358 
L 142.351159 116.753101 
L 142.458484 116.598025 
L 142.531756 116.488768 
L 142.639847 116.337217 
L 142.753868 116.22796 
L 142.861576 116.086982 
L 142.956275 115.977724 
L 143.065896 115.840271 
L 143.151986 115.731014 
L 143.262181 115.590036 
L 143.364341 115.480779 
L 143.470902 115.360948 
L 143.574018 115.25169 
L 143.684213 115.128335 
L 143.76112 115.019077 
L 143.866915 114.881624 
L 143.986102 114.772367 
L 144.096679 114.631389 
L 144.200083 114.522132 
L 144.308652 114.363532 
L 144.391681 114.254275 
L 144.493458 114.09215 
L 144.631011 113.982893 
L 144.740249 113.810195 
L 144.822513 113.704462 
L 144.822513 113.700938 
L 144.923716 113.584631 
L 145.013632 113.475374 
L 145.117419 113.373165 
L 145.2015 113.263908 
L 145.310738 113.144077 
L 145.404863 113.034819 
L 145.510658 112.907939 
L 145.617792 112.798682 
L 145.726266 112.661229 
L 145.851383 112.551971 
L 145.961578 112.414518 
L 146.034659 112.305261 
L 146.144662 112.164283 
L 146.260979 112.055026 
L 146.36907 111.917572 
L 146.4741 111.808315 
L 146.581425 111.688484 
L 146.659097 111.579226 
L 146.761257 111.427676 
L 146.862652 111.318418 
L 146.972465 111.191538 
L 147.08993 111.082281 
L 147.197638 110.976548 
L 147.323137 110.86729 
L 147.427785 110.77213 
L 147.532049 110.662873 
L 147.641479 110.553615 
L 147.747082 110.444358 
L 147.854025 110.324527 
L 147.993491 110.215269 
L 148.093929 110.098963 
L 148.220003 109.989705 
L 148.330389 109.848728 
L 148.416479 109.73947 
L 148.523231 109.598493 
L 148.60779 109.489235 
L 148.717985 109.337684 
L 148.827224 109.228427 
L 148.937227 109.122694 
L 149.02083 109.013436 
L 149.127008 108.914752 
L 149.249064 108.805494 
L 149.358111 108.657468 
L 149.449175 108.54821 
L 149.558127 108.403708 
L 149.657895 108.294451 
L 149.768282 108.185193 
L 149.861068 108.075936 
L 149.971358 107.931434 
L 150.086241 107.822176 
L 150.192992 107.719967 
L 150.309118 107.61071 
L 150.412426 107.529648 
L 150.489907 107.423915 
L 150.489907 107.42039 
L 150.583458 107.311133 
L 150.734402 107.201875 
L 150.844214 107.085569 
L 150.929922 106.976311 
L 151.039925 106.838858 
L 151.139216 106.7296 
L 151.250176 106.616818 
L 151.355971 106.507561 
L 151.463679 106.415926 
L 151.559334 106.306668 
L 151.667616 106.204459 
L 151.768055 106.095202 
L 151.873084 105.968322 
L 151.978688 105.859064 
L 152.089265 105.711038 
L 152.22127 105.60178 
L 152.322091 105.506621 
L 152.435729 105.397363 
L 152.544394 105.302203 
L 152.646363 105.192946 
L 152.752923 105.059017 
L 152.874023 104.94976 
L 152.979818 104.840502 
L 153.111057 104.731244 
L 153.221826 104.565596 
L 153.327812 104.456338 
L 153.436477 104.276592 
L 153.550498 104.167334 
L 153.660119 104.022832 
L 153.795376 103.913575 
L 153.903658 103.793744 
L 154.025332 103.684486 
L 154.135527 103.564656 
L 154.249548 103.455398 
L 154.360317 103.300323 
L 154.472043 103.191065 
L 154.572863 103.085332 
L 154.743895 102.976075 
L 154.854664 102.887964 
L 154.957972 102.778706 
L 155.060323 102.676497 
L 155.17511 102.570764 
L 155.17511 102.56724 
L 155.285879 102.457982 
L 155.475468 102.348725 
L 155.584133 102.221845 
L 155.728381 102.112587 
L 155.837811 101.975134 
L 155.977468 101.865877 
L 156.083071 101.738997 
L 156.234972 101.629739 
L 156.33675 101.531055 
L 156.460337 101.421798 
L 156.569288 101.287869 
L 156.677283 101.178611 
L 156.784035 101.086976 
L 156.928857 100.977718 
L 157.034843 100.864936 
L 157.178709 100.755679 
L 157.282017 100.671092 
L 157.439083 100.561835 
L 157.548895 100.477248 
L 157.679752 100.367991 
L 157.775025 100.269307 
L 157.90129 100.160049 
L 158.008998 100.064889 
L 158.131628 99.959156 
L 158.131628 99.955632 
L 158.239336 99.832276 
L 158.407499 99.723019 
L 158.511763 99.613761 
L 158.658881 99.504504 
L 158.76812 99.39877 
L 158.920977 99.289513 
L 159.02792 99.201402 
L 159.178482 99.092144 
L 159.287337 98.972314 
L 159.442299 98.863056 
L 159.553068 98.729127 
L 159.669959 98.61987 
L 159.776328 98.496514 
L 159.924211 98.387257 
L 160.025989 98.292097 
L 160.228013 98.18284 
L 160.332277 98.070058 
L 160.490109 97.9608 
L 160.597243 97.890311 
L 160.744457 97.781054 
L 160.852069 97.685894 
L 160.974125 97.576636 
L 161.084512 97.467379 
L 161.220917 97.358121 
L 161.32499 97.259437 
L 161.485499 97.150179 
L 161.59206 97.076166 
L 161.703977 96.966909 
L 161.797719 96.840029 
L 161.922262 96.730771 
L 162.030927 96.635611 
L 162.124478 96.526354 
L 162.232186 96.445292 
L 162.395948 96.336034 
L 162.506334 96.226777 
L 162.633939 96.117519 
L 162.742603 96.029408 
L 162.864277 95.920151 
L 162.975237 95.839089 
L 163.094615 95.729831 
L 163.193906 95.634671 
L 163.399182 95.525414 
L 163.497516 95.440827 
L 163.659556 95.33157 
L 163.767264 95.229361 
L 163.909217 95.120103 
L 164.012908 95.067237 
L 164.133051 94.957979 
L 164.244011 94.859295 
L 164.388833 94.753562 
L 164.388833 94.750037 
L 164.498072 94.658402 
L 164.653225 94.549144 
L 164.75902 94.478656 
L 164.912069 94.369398 
L 165.022072 94.267189 
L 165.157712 94.157932 
L 165.265229 94.069821 
L 165.417129 93.960563 
L 165.524264 93.85483 
L 165.663729 93.745573 
L 165.77335 93.657462 
L 165.910138 93.548204 
L 166.019759 93.442471 
L 166.169173 93.333214 
L 166.269611 93.252151 
L 166.393963 93.142894 
L 166.503775 93.07593 
L 166.633293 92.966672 
L 166.728183 92.878561 
L 166.94226 92.769304 
L 167.044228 92.712913 
L 167.220617 92.603655 
L 167.328325 92.533166 
L 167.468365 92.423909 
L 167.578751 92.307602 
L 167.702912 92.198345 
L 167.804115 92.13138 
L 167.908188 92.022123 
L 168.018192 91.934012 
L 168.141014 91.824754 
L 168.24547 91.740168 
L 168.387422 91.63091 
L 168.494939 91.553373 
L 168.688737 91.444115 
L 168.799315 91.341906 
L 168.955807 91.232649 
L 169.065237 91.133965 
L 169.193511 91.024707 
L 169.303993 90.954218 
L 169.473494 90.844961 
L 169.584263 90.767423 
L 169.716459 90.658165 
L 169.823019 90.580628 
L 170.038626 90.47137 
L 170.143656 90.358588 
L 170.245051 90.249331 
L 170.352376 90.19294 
L 170.544548 90.083682 
L 170.634942 90.020242 
L 170.838497 89.910985 
L 170.948692 89.822874 
L 171.064435 89.713616 
L 171.171952 89.621981 
L 171.273156 89.512723 
L 171.35848 89.43871 
L 171.547687 89.329453 
L 171.653864 89.251915 
L 171.855123 89.142657 
L 171.965127 89.058071 
L 172.126593 88.948813 
L 172.233154 88.821934 
L 172.401316 88.712676 
L 172.504624 88.631614 
L 172.674316 88.522356 
L 172.781451 88.444819 
L 172.921299 88.335561 
L 173.032068 88.24745 
L 173.155846 88.138193 
L 173.266806 88.011313 
L 173.393263 87.902055 
L 173.493318 87.7787 
L 173.683481 87.669442 
L 173.792337 87.567234 
L 173.939455 87.457976 
L 174.047546 87.380439 
L 174.228335 87.271181 
L 174.337956 87.200692 
L 174.493683 87.091435 
L 174.602156 87.013897 
L 174.7443 86.90464 
L 174.854878 86.802431 
L 175.005057 86.693173 
L 175.113148 86.590965 
L 175.277484 86.481707 
L 175.387487 86.414743 
L 175.556224 86.305485 
L 175.662784 86.189179 
L 175.836685 86.079921 
L 175.945159 85.988286 
L 176.083476 85.879028 
L 176.190037 85.787393 
L 176.337155 85.678135 
L 176.444671 85.600598 
L 176.676349 85.49134 
L 176.754404 85.39618 
L 176.987612 85.286923 
L 177.097233 85.223483 
L 177.23622 85.114225 
L 177.333502 85.040212 
L 177.504916 84.930955 
L 177.613198 84.839319 
L 177.731046 84.730062 
L 177.83818 84.656048 
L 178.001368 84.546791 
L 178.099893 84.479827 
L 178.238785 84.370569 
L 178.349362 84.257787 
L 178.506811 84.148529 
L 178.61758 84.078041 
L 178.779812 83.968783 
L 178.885798 83.877148 
L 179.035021 83.76789 
L 179.140242 83.693877 
L 179.358527 83.584619 
L 179.453992 83.510606 
L 179.640902 83.401349 
L 179.748228 83.337909 
L 179.947191 83.228651 
L 180.040168 83.158162 
L 180.254054 83.048905 
L 180.364631 82.953745 
L 180.504671 82.844488 
L 180.612666 82.770474 
L 180.737305 82.661217 
L 180.847117 82.594252 
L 180.982374 82.484995 
L 181.088169 82.372213 
L 181.261688 82.262955 
L 181.352752 82.195991 
L 181.551333 82.086733 
L 181.662293 82.009196 
L 181.797359 81.899938 
L 181.908319 81.825925 
L 182.129474 81.716668 
L 182.229721 81.603886 
L 182.422562 81.494628 
L 182.533331 81.41709 
L 182.72426 81.307833 
L 182.816089 81.240868 
L 182.938719 81.131611 
L 183.038201 81.025878 
L 183.261078 80.91662 
L 183.367447 80.839083 
L 183.569089 80.729825 
L 183.665509 80.676958 
L 183.830802 80.567701 
L 183.936788 80.490163 
L 184.092324 80.380906 
L 184.202519 80.285746 
L 184.408561 80.176488 
L 184.517034 80.116573 
L 184.657265 80.007315 
L 184.762486 79.922729 
L 184.926057 79.813471 
L 185.03606 79.767654 
L 185.214553 79.658396 
L 185.318627 79.580858 
L 185.474162 79.471601 
L 185.581105 79.41521 
L 185.751754 79.305952 
L 185.862332 79.214317 
L 186.017103 79.105059 
L 186.121941 79.045144 
L 186.269633 78.935886 
L 186.376767 78.854824 
L 186.532112 78.745567 
L 186.626236 78.682127 
L 186.803773 78.572869 
L 186.913394 78.516478 
L 187.117523 78.407221 
L 187.225805 78.329683 
L 187.393393 78.220426 
L 187.50378 78.125266 
L 187.677872 78.016008 
L 187.77085 77.956093 
L 187.979761 77.846835 
L 188.088617 77.783395 
L 188.271893 77.674138 
L 188.380749 77.603649 
L 188.529971 77.494391 
L 188.633853 77.430952 
L 188.803546 77.321694 
L 188.87567 77.279401 
L 189.042684 77.170143 
L 189.14427 77.089081 
L 189.347442 76.979824 
L 189.453429 76.926957 
L 189.628287 76.817699 
L 189.731595 76.750735 
L 189.921758 76.641478 
L 190.032527 76.585087 
L 190.268222 76.475829 
L 190.378608 76.401816 
L 190.51463 76.296083 
L 190.51463 76.292558 
L 190.622147 76.243216 
L 190.761039 76.133959 
L 190.866642 76.077568 
L 191.058336 75.96831 
L 191.14653 75.880199 
L 191.336119 75.770941 
L 191.431009 75.689879 
L 191.608163 75.580622 
L 191.717784 75.49956 
L 191.895321 75.390302 
L 192.003985 75.291618 
L 192.171765 75.18236 
L 192.275264 75.122445 
L 192.45127 75.013187 
L 192.562231 74.914503 
L 192.727523 74.80877 
L 192.727523 74.805246 
L 192.835805 74.748855 
L 192.95767 74.639597 
L 193.067291 74.572633 
L 193.219575 74.463375 
L 193.321352 74.396411 
L 193.496593 74.287153 
L 193.594161 74.202567 
L 193.770359 74.093309 
L 193.874241 74.012247 
L 194.087744 73.90299 
L 194.197173 73.836025 
L 194.403215 73.726768 
L 194.513602 73.645706 
L 194.667224 73.536448 
L 194.765558 73.465959 
L 194.940416 73.360226 
L 194.940416 73.356702 
L 195.049463 73.272115 
L 195.229487 73.162858 
L 195.337195 73.071222 
L 195.503635 72.961965 
L 195.613639 72.902049 
L 195.821785 72.792792 
L 195.926624 72.729352 
L 196.111813 72.620094 
L 196.215694 72.563703 
L 196.402797 72.454446 
L 196.512992 72.39453 
L 196.726112 72.285273 
L 196.832481 72.235931 
L 197.031635 72.126673 
L 197.137622 72.035038 
L 197.255278 71.92578 
L 197.364516 71.844718 
L 197.590263 71.735461 
L 197.686684 71.703741 
L 197.84222 71.594483 
L 197.942467 71.534568 
L 198.125934 71.42531 
L 198.23632 71.340724 
L 198.404482 71.231466 
L 198.511808 71.168026 
L 198.701971 71.058769 
L 198.81274 71.009426 
L 198.966745 70.900169 
L 199.077323 70.836729 
L 199.242233 70.727471 
L 199.346497 70.674605 
L 199.573392 70.565347 
L 199.684352 70.512481 
L 199.885037 70.403223 
L 199.99198 70.322161 
L 200.191326 70.216428 
L 200.191326 70.212904 
L 200.293486 70.149464 
L 200.477718 70.040206 
L 200.584087 69.966193 
L 200.817678 69.856935 
L 200.90855 69.79702 
L 201.154768 69.687762 
L 201.264006 69.603176 
L 201.448238 69.493918 
L 201.559199 69.405807 
L 201.716456 69.29655 
L 201.820721 69.236634 
L 202.095347 69.127377 
L 202.199325 69.07451 
L 202.381836 68.965253 
L 202.492796 68.880666 
L 202.673202 68.771409 
L 202.773449 68.70092 
L 202.985039 68.591662 
L 203.09466 68.524698 
L 203.29018 68.41544 
L 203.400949 68.369623 
L 203.626887 68.260365 
L 203.736317 68.165205 
L 203.955559 68.055948 
L 204.066137 68.01013 
L 204.292649 67.900873 
L 204.396722 67.837433 
L 204.660731 67.728175 
L 204.767291 67.643589 
L 204.93354 67.534331 
L 205.042587 67.484989 
L 205.246142 67.375731 
L 205.341415 67.315816 
L 205.648278 67.206558 
L 205.758855 67.129021 
L 205.954949 67.019763 
L 206.059979 66.959848 
L 206.301413 66.85059 
L 206.404147 66.773053 
L 206.627215 66.663795 
L 206.714453 66.621502 
L 206.954166 66.512244 
L 207.046186 66.473475 
L 207.295847 66.364218 
L 207.402407 66.314876 
L 207.662207 66.205618 
L 207.754993 66.149227 
L 207.950513 66.03997 
L 208.057264 65.973005 
L 208.25661 65.863748 
L 208.367188 65.765063 
L 208.635788 65.655806 
L 208.741009 65.578268 
L 209.03448 65.469011 
L 209.142762 65.391473 
L 209.332925 65.282215 
L 209.439485 65.208202 
L 209.771601 65.098945 
L 209.881509 65.042554 
L 210.087455 64.933296 
L 210.193824 64.88043 
L 210.426076 64.771172 
L 210.527853 64.72183 
L 210.802958 64.612572 
L 210.896318 64.559706 
L 211.165301 64.450448 
L 211.267078 64.404631 
L 211.639369 64.295373 
L 211.750329 64.231933 
L 212.035383 64.122676 
L 212.12109 64.080382 
L 212.369985 63.971125 
L 212.46545 63.893587 
L 212.739981 63.78433 
L 212.84501 63.749085 
L 213.087975 63.639828 
L 213.190135 63.583437 
L 213.40536 63.474179 
L 213.51479 63.431886 
L 213.767511 63.322628 
L 213.87235 63.255664 
L 214.203318 63.146406 
L 214.305669 63.121735 
L 214.585174 63.012478 
L 214.694221 62.96666 
L 215.04719 62.860927 
L 215.04719 62.857402 
L 215.155281 62.801011 
L 215.406663 62.691754 
L 215.511501 62.65651 
L 215.753318 62.547252 
L 215.845339 62.494385 
L 216.153541 62.385128 
L 216.260292 62.356932 
L 216.476282 62.247675 
L 216.581503 62.191284 
L 216.829059 62.082026 
L 216.936002 62.053831 
L 217.181454 61.944573 
L 217.28744 61.884658 
L 217.508213 61.7754 
L 217.606356 61.71196 
L 217.894278 61.602703 
L 218.0039 61.542787 
L 218.252986 61.43353 
L 218.347877 61.384188 
L 218.635034 61.27493 
L 218.733559 61.225588 
L 218.963898 61.11633 
L 219.070458 61.081086 
L 219.394347 60.971828 
L 219.478524 60.929535 
L 219.664861 60.820278 
L 219.775438 60.77446 
L 220.081536 60.665202 
L 220.192113 60.612336 
L 220.569761 60.503078 
L 220.674982 60.446687 
L 220.986054 60.33743 
L 221.093762 60.295136 
L 221.372693 60.185879 
L 221.482505 60.136537 
L 221.779037 60.027279 
L 221.872014 59.981461 
L 222.076526 59.872204 
L 222.180981 59.826386 
L 222.422416 59.717129 
L 222.528402 59.664262 
L 222.812116 59.555005 
L 222.90605 59.509187 
L 223.231661 59.399929 
L 223.326551 59.364685 
L 223.706877 59.255427 
L 223.80215 59.216659 
L 224.105569 59.107401 
L 224.216338 59.047486 
L 224.454903 58.938228 
L 224.564332 58.871264 
L 224.892622 58.762006 
L 224.992486 58.716188 
L 225.380465 58.606931 
L 225.482433 58.578735 
L 225.717554 58.469478 
L 225.826793 58.42366 
L 226.034365 58.314403 
L 226.145326 58.243914 
L 226.349646 58.138181 
L 226.349646 58.134656 
L 226.418135 58.095887 
L 226.700892 57.98663 
L 226.805157 57.947861 
L 227.156212 57.838603 
L 227.266025 57.785737 
L 227.655916 57.676479 
L 227.763433 57.616564 
L 228.017876 57.507306 
L 228.116593 57.457964 
L 228.512224 57.348707 
L 228.611131 57.324036 
L 228.995475 57.214778 
L 229.10567 57.161911 
L 229.415211 57.052654 
L 229.521963 56.992738 
L 229.821555 56.883481 
L 229.917593 56.837663 
L 230.30672 56.728406 
L 230.41481 56.686112 
L 230.738126 56.576855 
L 230.843538 56.520464 
L 231.259639 56.411206 
L 231.365817 56.35834 
L 231.679184 56.249082 
L 231.786318 56.196216 
L 232.213133 56.086958 
L 232.315101 56.069336 
L 232.705758 55.960078 
L 232.802753 55.931883 
L 233.166435 55.822625 
L 233.268404 55.776808 
L 233.658486 55.66755 
L 233.759116 55.621732 
L 234.041491 55.512475 
L 234.149008 55.466657 
L 234.426217 55.357399 
L 234.536412 55.29396 
L 234.859154 55.184702 
L 234.968583 55.121262 
L 235.325952 55.012005 
L 235.395398 54.987334 
L 235.7124 54.878076 
L 235.818004 54.825209 
L 236.19393 54.715952 
L 236.297811 54.673659 
L 236.552064 54.564401 
L 236.656711 54.522108 
L 236.947886 54.41285 
L 237.058655 54.384655 
L 237.30755 54.278922 
L 237.30755 54.275397 
L 237.396892 54.236628 
L 237.673145 54.127371 
L 237.766122 54.078029 
L 238.274818 53.968771 
L 238.380804 53.940576 
L 238.718851 53.831318 
L 238.785809 53.796074 
L 239.140691 53.686816 
L 239.223146 53.655096 
L 239.761878 53.545839 
L 239.860785 53.489448 
L 240.213563 53.38019 
L 240.321653 53.327323 
L 240.700449 53.218066 
L 240.8028 53.18987 
L 241.136255 53.080613 
L 241.241859 53.017173 
L 241.628115 52.907915 
L 241.73104 52.87972 
L 242.153072 52.770462 
L 242.263459 52.731694 
L 242.627715 52.622436 
L 242.734083 52.583667 
L 243.104844 52.47441 
L 243.197056 52.432116 
L 243.522476 52.322859 
L 243.632288 52.287614 
L 243.975308 52.178357 
L 244.074407 52.12549 
L 244.494335 52.016233 
L 244.604913 51.963366 
L 244.965342 51.854109 
L 245.071711 51.822389 
L 245.433289 51.713131 
L 245.527031 51.681411 
L 245.862973 51.572154 
L 245.97202 51.52986 
L 246.270274 51.420603 
L 246.368225 51.364212 
L 246.6638 51.254954 
L 246.767682 51.223234 
L 247.06077 51.113977 
L 247.171539 51.071683 
L 247.507673 50.962426 
L 247.604667 50.909559 
L 247.941374 50.800302 
L 248.042195 50.754484 
L 248.420608 50.645227 
L 248.52602 50.599409 
L 248.786777 50.490151 
L 248.878989 50.454907 
L 249.356501 50.345649 
L 249.464018 50.296307 
L 249.863092 50.18705 
L 249.960087 50.158854 
L 250.456921 50.049597 
L 250.545115 50.017877 
L 250.905163 49.908619 
L 251.003496 49.873375 
L 251.275349 49.764117 
L 251.375405 49.714775 
L 251.664284 49.605517 
L 251.760705 49.566749 
L 252.103151 49.457491 
L 252.147344 49.446918 
L 252.543549 49.33766 
L 252.646092 49.302416 
L 253.012069 49.193158 
L 253.11289 49.154389 
L 253.544487 49.045132 
L 253.653343 49.002839 
L 254.136977 48.893581 
L 254.241624 48.83719 
L 254.678961 48.727933 
L 254.779782 48.703261 
L 255.21884 48.594004 
L 255.329418 48.555235 
L 255.853036 48.445978 
L 255.904881 48.43188 
L 256.311225 48.322622 
L 256.416064 48.290902 
L 256.830061 48.181645 
L 256.924951 48.153449 
L 257.338182 48.044192 
L 257.446464 48.015996 
L 257.965108 47.906739 
L 258.049859 47.885592 
L 258.390201 47.776334 
L 258.491978 47.74109 
L 258.834425 47.631832 
L 258.944046 47.596588 
L 259.325137 47.487331 
L 259.415436 47.462659 
L 259.955315 47.353402 
L 260.052118 47.325206 
L 260.512986 47.215949 
L 260.611703 47.180704 
L 260.98055 47.071447 
L 261.083475 47.0503 
L 261.584901 46.941043 
L 261.690314 46.888176 
L 262.084988 46.778919 
L 262.168591 46.754248 
L 262.650694 46.64499 
L 262.760315 46.602697 
L 263.331952 46.493439 
L 263.430669 46.458195 
L 263.964043 46.348937 
L 264.064673 46.327791 
L 264.542759 46.218533 
L 264.646641 46.169191 
L 265.106935 46.059933 
L 265.216364 46.007067 
L 265.721616 45.897809 
L 265.81402 45.869614 
L 266.490878 45.760356 
L 266.594951 45.725112 
L 267.163144 45.615854 
L 267.241964 45.591183 
L 267.732103 45.481926 
L 267.839045 45.450206 
L 268.179579 45.340948 
L 268.275617 45.312753 
L 268.718501 45.203495 
L 268.820088 45.178824 
L 269.458109 45.069566 
L 269.562756 45.044895 
L 270.110671 44.935638 
L 270.219144 44.900393 
L 270.688621 44.791136 
L 270.794416 44.76294 
L 271.406993 44.653683 
L 271.512597 44.618438 
L 271.998718 44.509181 
L 272.089782 44.48451 
L 272.607852 44.375252 
L 272.672132 44.347057 
L 273.209142 44.237799 
L 273.312832 44.209604 
L 273.808136 44.100346 
L 273.882365 44.082724 
L 274.372121 43.973466 
L 274.479637 43.934698 
L 275.0463 43.82544 
L 275.133538 43.786671 
L 275.854015 43.677414 
L 275.951009 43.645694 
L 276.757002 43.536436 
L 276.838883 43.525863 
L 277.395789 43.416605 
L 277.495271 43.381361 
L 278.098091 43.272103 
L 278.203695 43.247432 
L 278.65098 43.138175 
L 278.757923 43.092357 
L 279.287089 42.983099 
L 279.368587 42.958428 
L 280.028036 42.849171 
L 280.135744 42.828024 
L 280.753486 42.718767 
L 280.841681 42.687047 
L 281.467267 42.577789 
L 281.536331 42.563691 
L 282.209936 42.454434 
L 282.316496 42.433287 
L 282.863072 42.32403 
L 282.973649 42.29231 
L 283.511615 42.183052 
L 283.581253 42.158381 
L 284.200909 42.049123 
L 284.299816 42.035026 
L 284.846391 41.925768 
L 284.864183 41.918719 
L 285.610678 41.809462 
L 285.702508 41.777742 
L 286.3742 41.668484 
L 286.484013 41.643813 
L 287.040919 41.534556 
L 287.073059 41.509885 
L 287.733273 41.400627 
L 287.809414 41.386529 
L 288.510377 41.277272 
L 288.587284 41.249076 
L 289.196992 41.139819 
L 289.260316 41.129245 
L 290.020203 41.019988 
L 290.110693 40.998841 
L 290.687878 40.889584 
L 290.781812 40.857864 
L 291.268315 40.748606 
L 291.361675 40.730984 
L 292.055368 40.621726 
L 292.139736 40.607629 
L 292.863465 40.498371 
L 292.946494 40.480749 
L 293.563281 40.371491 
L 293.64937 40.360918 
L 294.256782 40.25166 
L 294.367743 40.21994 
L 295.000599 40.110683 
L 295.105438 40.086012 
L 295.642447 39.976754 
L 295.750347 39.945034 
L 296.271477 39.835777 
L 296.363498 39.81463 
L 297.103297 39.705373 
L 297.176187 39.694799 
L 297.758919 39.585542 
L 297.845583 39.571444 
L 298.685247 39.462186 
L 298.791616 39.437515 
L 299.4723 39.328258 
L 299.577138 39.293013 
L 300.414123 39.183756 
L 300.51437 39.152036 
L 301.372208 39.042778 
L 301.462124 39.011058 
L 302.260847 38.901801 
L 302.347128 38.891227 
L 303.018056 38.78197 
L 303.128251 38.760823 
L 303.759003 38.651566 
L 303.802048 38.630419 
L 304.627554 38.521162 
L 304.72914 38.503539 
L 305.472192 38.394282 
L 305.55809 38.380184 
L 306.517132 38.270926 
L 306.614509 38.260353 
L 307.495496 38.151096 
L 307.595934 38.126425 
L 308.437702 38.017167 
L 308.533166 37.99602 
L 309.443806 37.886763 
L 309.519947 37.876189 
L 310.450675 37.766932 
L 310.450675 37.763407 
L 311.318652 37.65415 
L 311.378533 37.636528 
L 312.095757 37.52727 
L 312.204039 37.513172 
L 313.098226 37.403915 
L 313.199812 37.379244 
L 314.091512 37.269986 
L 314.184681 37.252364 
L 315.188297 37.143106 
L 315.294475 37.12196 
L 316.145234 37.012702 
L 316.205115 36.99508 
L 317.511385 36.885823 
L 317.545056 36.875249 
L 318.602814 36.765992 
L 318.684313 36.751894 
L 319.69673 36.642636 
L 319.792768 36.625014 
L 320.794472 36.515757 
L 320.888979 36.498134 
L 322.080846 36.388877 
L 322.103421 36.381828 
L 323.012913 36.27257 
L 323.122916 36.265522 
L 323.812783 36.156264 
L 323.880699 36.145691 
L 324.862889 36.036433 
L 324.923343 36.015286 
L 325.927151 35.906029 
L 326.015346 35.891931 
L 327.032545 35.782674 
L 327.101609 35.768576 
L 328.189594 35.659318 
L 328.282762 35.645221 
L 329.350277 35.535963 
L 329.418957 35.52539 
L 330.749907 35.416132 
L 330.852833 35.405559 
L 332.076648 35.296301 
L 332.187417 35.282203 
L 333.090213 35.172946 
L 333.196773 35.158848 
L 334.366639 35.049591 
L 334.389405 35.039017 
L 335.61456 34.92976 
L 335.702563 34.912138 
L 336.51793 34.80288 
L 336.623534 34.785258 
L 337.639395 34.676 
L 337.717067 34.658378 
L 339.090296 34.54912 
L 339.176769 34.538547 
L 340.328078 34.42929 
L 340.39408 34.418716 
L 341.803276 34.309459 
L 341.899123 34.298885 
L 342.674697 34.189628 
L 342.701481 34.179055 
L 344.075475 34.069797 
L 344.093841 34.055699 
L 345.347884 33.946442 
L 345.438183 33.932344 
L 346.694713 33.823086 
L 346.79496 33.80194 
L 347.764141 33.692682 
L 347.865918 33.664487 
L 349.090882 33.555229 
L 349.118048 33.541131 
L 350.548288 33.431874 
L 350.59822 33.424825 
L 351.911187 33.315567 
L 351.992494 33.30147 
L 353.059626 33.192212 
L 353.059626 33.188688 
L 354.496179 33.07943 
L 354.604653 33.065332 
L 356.025901 32.956075 
L 356.098599 32.941977 
L 357.315336 32.832719 
L 357.420749 32.818622 
L 358.649539 32.709364 
L 358.730654 32.691742 
L 360.098527 32.582484 
L 360.204513 32.564862 
L 362.033637 32.455605 
L 362.064438 32.448556 
L 364.204059 32.339298 
L 364.308897 32.3252 
L 366.062453 32.215943 
L 366.125011 32.201845 
L 367.920846 32.092588 
L 367.999284 32.07849 
L 369.892496 31.969232 
L 369.918706 31.962183 
L 371.671879 31.852926 
L 371.756247 31.838828 
L 373.349675 31.72957 
L 373.445522 31.708424 
L 374.918042 31.599166 
L 375.020776 31.570971 
L 376.582064 31.461713 
L 376.689389 31.447615 
L 378.447919 31.338358 
L 378.521382 31.331309 
L 379.967693 31.222051 
L 380.006338 31.207954 
L 381.877549 31.098696 
L 381.944508 31.088123 
L 383.693855 30.978865 
L 383.781284 30.971816 
L 385.142078 30.862559 
L 385.246725 30.848461 
L 387.208427 30.739204 
L 387.208427 30.735679 
L 389.303473 30.626422 
L 389.348048 30.615848 
L 391.644352 30.506591 
L 391.64684 30.499542 
L 393.783973 30.390284 
L 393.783973 30.38676 
L 395.54939 30.277502 
L 395.54939 30.273978 
L 397.457334 30.16472 
L 397.51664 30.154147 
L 400.123633 30.044889 
L 400.133582 30.03784 
L 402.343031 29.928583 
L 402.343031 29.925058 
L 404.733652 29.815801 
L 404.835047 29.805228 
L 407.519138 29.69597 
L 407.554531 29.685397 
L 409.706396 29.576139 
L 409.706396 29.572615 
L 412.581415 29.463357 
L 412.581415 29.459833 
L 414.674548 29.350575 
L 414.73328 29.343526 
L 417.449704 29.234269 
L 417.449704 29.230744 
L 419.585307 29.121487 
L 419.605968 29.114438 
L 421.947805 29.00518 
L 422.053217 28.998131 
L 425.249066 28.888874 
L 425.293641 28.881825 
L 428.301239 28.772567 
L 428.304109 28.765519 
L 431.361448 28.656261 
L 431.361448 28.652737 
L 434.341689 28.543479 
L 434.367707 28.53643 
L 437.784137 28.427173 
L 437.869079 28.416599 
L 440.282083 28.307342 
L 440.376782 28.300293 
L 443.879493 28.191035 
L 443.930573 28.180462 
L 447.019479 28.071204 
L 447.113795 28.060631 
L 451.510693 27.951373 
L 451.585496 27.944325 
L 455.868946 27.835067 
L 455.94681 27.824494 
L 459.697651 27.715236 
L 459.697651 27.711712 
L 464.068148 27.602454 
L 464.096653 27.595405 
L 469.68714 27.486148 
L 469.747786 27.47205 
L 474.555619 27.362792 
L 474.606891 27.355744 
L 478.435978 27.246486 
L 478.435978 27.242962 
L 487.114605 27.133704 
L 487.114605 27.13018 
L 493.965639 27.020922 
L 494.006197 27.013873 
L 503.114891 26.904616 
L 503.114891 26.901091 
L 511.102502 26.791834 
L 511.102502 26.788309 
L 520.008407 26.679052 
L 520.008407 26.675527 
L 529.893057 26.56627 
L 529.893057 26.562745 
L 542.443434 26.453488 
L 542.443434 26.449963 
L 550.366574 26.340706 
L 550.366574 26.337181 
L 550.931324 26.333657 
L 550.931324 26.330132 
" clip-path="url(#pf7c86792b0)" style="fill: none; stroke: #003f5c; stroke-width: 2.5; stroke-linecap: round"/>
   </g>
   <g id="line2d_14">
    <path d="M 282.861732 377.09625 
L 282.861732 24.6525 
" clip-path="url(#pf7c86792b0)" style="fill: none; stroke-dasharray: 7.4,3.2; stroke-dashoffset: 0; stroke: #d45087; stroke-width: 2"/>
   </g>
   <g id="line2d_15">
    <path d="M 447.844794 377.09625 
L 447.844794 24.6525 
" clip-path="url(#pf7c86792b0)" style="fill: none; stroke-dasharray: 2.5,4.125; stroke-dashoffset: 0; stroke: #ffa600; stroke-width: 2.5"/>
   </g>
   <g id="patch_3">
    <path d="M 49.154063 377.09625 
L 49.154063 24.6525 
" style="fill: none; stroke: #262626; stroke-linejoin: miter; stroke-linecap: square"/>
   </g>
   <g id="patch_4">
    <path d="M 49.154063 377.09625 
L 550.664062 377.09625 
" style="fill: none; stroke: #262626; stroke-linejoin: miter; stroke-linecap: square"/>
   </g>
   <g id="text_15">
    <text style="font-size: 16px; font-family: 'Arial', 'DejaVu Sans', 'Liberation Sans', 'Bitstream Vera Sans', sans-serif; text-anchor: middle; fill: #262626" x="299.909062" y="18.6525" transform="rotate(-0 299.909062 18.6525)">Cumulative Distribution of Absolute Prediction Errors</text>
   </g>
   <g id="legend_1">
    <g id="patch_5">
     <path d="M 375.675937 371.09625 
L 542.264062 371.09625 
Q 544.664062 371.09625 544.664062 368.69625 
L 544.664062 335.37375 
Q 544.664062 332.97375 542.264062 332.97375 
L 375.675937 332.97375 
Q 373.275937 332.97375 373.275937 335.37375 
L 373.275937 368.69625 
Q 373.275937 371.09625 375.675937 371.09625 
z
" style="fill: #ffffff; opacity: 0.8; stroke: #cccccc; stroke-width: 0.8; stroke-linejoin: miter"/>
    </g>
    <g id="line2d_16">
     <path d="M 378.075937 342.309375 
L 390.075937 342.309375 
L 402.075937 342.309375 
" style="fill: none; stroke-dasharray: 7.4,3.2; stroke-dashoffset: 0; stroke: #d45087; stroke-width: 2"/>
    </g>
    <g id="text_16">
     <text style="font-size: 12px; font-family: 'Arial', 'DejaVu Sans', 'Liberation Sans', 'Bitstream Vera Sans', sans-serif; text-anchor: start; fill: #262626" x="411.675937" y="346.509375" transform="rotate(-0 411.675937 346.509375)">95th Percentile (4.66°C)</text>
    </g>
    <g id="line2d_17">
     <path d="M 378.075937 359.570625 
L 390.075937 359.570625 
L 402.075937 359.570625 
" style="fill: none; stroke-dasharray: 2.5,4.125; stroke-dashoffset: 0; stroke: #ffa600; stroke-width: 2.5"/>
    </g>
    <g id="text_17">
     <text style="font-size: 12px; font-family: 'Arial', 'DejaVu Sans', 'Liberation Sans', 'Bitstream Vera Sans', sans-serif; text-anchor: start; fill: #262626" x="411.675937" y="363.770625" transform="rotate(-0 411.675937 363.770625)">99th Percentile (7.95°C)</text>
    </g>
   </g>
  </g>
 </g>
 <defs>
  <clipPath id="pf7c86792b0">
   <rect x="49.154063" y="24.6525" width="501.51" height="352.44375"/>
  </clipPath>
 </defs>
</svg>
