<?xml version="1.0" encoding="utf-8" standalone="no"?>
<!DOCTYPE svg PUBLIC "-//W3C//DTD SVG 1.1//EN"
  "http://www.w3.org/Graphics/SVG/1.1/DTD/svg11.dtd">
<svg xmlns:xlink="http://www.w3.org/1999/xlink" width="564.537187pt" height="420.845pt" viewBox="0 0 564.537187 420.845" xmlns="http://www.w3.org/2000/svg" version="1.1">
 <metadata>
  <rdf:RDF xmlns:dc="http://purl.org/dc/elements/1.1/" xmlns:cc="http://creativecommons.org/ns#" xmlns:rdf="http://www.w3.org/1999/02/22-rdf-syntax-ns#">
   <cc:Work>
    <dc:type rdf:resource="http://purl.org/dc/dcmitype/StillImage"/>
    <dc:date>2026-05-05T22:51:50.605599</dc:date>
    <dc:format>image/svg+xml</dc:format>
    <dc:creator>
     <cc:Agent>
      <dc:title>Matplotlib v3.10.8, https://matplotlib.org/</dc:title>
     </cc:Agent>
    </dc:creator>
   </cc:Work>
  </rdf:RDF>
 </metadata>
 <defs>
  <style type="text/css">*{stroke-linejoin: round; stroke-linecap: butt}</style>
 </defs>
 <g id="figure_1">
  <g id="patch_1">
   <path d="M 0 420.845 
L 564.537187 420.845 
L 564.537187 0 
L 0 0 
z
" style="fill: #ffffff"/>
  </g>
  <g id="axes_1">
   <g id="patch_2">
    <path d="M 55.820625 377.22375 
L 554.000625 377.22375 
L 554.000625 24.8475 
L 55.820625 24.8475 
z
" style="fill: #ffffff"/>
   </g>
   <g id="matplotlib.axis_1">
    <g id="xtick_1">
     <g id="line2d_1">
      <defs>
       <path id="m09c5e2dd9c" d="M 0 0 
L 0 4.8 
" style="stroke: #262626"/>
      </defs>
      <g>
       <use xlink:href="#m09c5e2dd9c" x="55.820625" y="377.22375" style="fill: #262626; stroke: #262626"/>
      </g>
     </g>
     <g id="text_1">
      <text style="font-size: 12px; font-family: 'Arial', 'DejaVu Sans', 'Liberation Sans', 'Bitstream Vera Sans', sans-serif; text-anchor: middle; fill: #262626" x="55.820625" y="394.113125" transform="rotate(-0 55.820625 394.113125)">−8</text>
     </g>
    </g>
    <g id="xtick_2">
     <g id="line2d_2">
      <g>
       <use xlink:href="#m09c5e2dd9c" x="118.093125" y="377.22375" style="fill: #262626; stroke: #262626"/>
      </g>
     </g>
     <g id="text_2">
      <text style="font-size: 12px; font-family: 'Arial', 'DejaVu Sans', 'Liberation Sans', 'Bitstream Vera Sans', sans-serif; text-anchor: middle; fill: #262626" x="118.093125" y="394.113125" transform="rotate(-0 118.093125 394.113125)">−6</text>
     </g>
    </g>
    <g id="xtick_3">
     <g id="line2d_3">
      <g>
       <use xlink:href="#m09c5e2dd9c" x="180.365625" y="377.22375" style="fill: #262626; stroke: #262626"/>
      </g>
     </g>
     <g id="text_3">
      <text style="font-size: 12px; font-family: 'Arial', 'DejaVu Sans', 'Liberation Sans', 'Bitstream Vera Sans', sans-serif; text-anchor: middle; fill: #262626" x="180.365625" y="394.113125" transform="rotate(-0 180.365625 394.113125)">−4</text>
     </g>
    </g>
    <g id="xtick_4">
     <g id="line2d_4">
      <g>
       <use xlink:href="#m09c5e2dd9c" x="242.638125" y="377.22375" style="fill: #262626; stroke: #262626"/>
      </g>
     </g>
     <g id="text_4">
      <text style="font-size: 12px; font-family: 'Arial', 'DejaVu Sans', 'Liberation Sans', 'Bitstream Vera Sans', sans-serif; text-anchor: middle; fill: #262626" x="242.638125" y="394.113125" transform="rotate(-0 242.638125 394.113125)">−2</text>
     </g>
    </g>
    <g id="xtick_5">
     <g id="line2d_5">
      <g>
       <use xlink:href="#m09c5e2dd9c" x="304.910625" y="377.22375" style="fill: #262626; stroke: #262626"/>
      </g>
     </g>
     <g id="text_5">
      <text style="font-size: 12px; font-family: 'Arial', 'DejaVu Sans', 'Liberation Sans', 'Bitstream Vera Sans', sans-serif; text-anchor: middle; fill: #262626" x="304.910625" y="394.113125" transform="rotate(-0 304.910625 394.113125)">0</text>
     </g>
    </g>
    <g id="xtick_6">
     <g id="line2d_6">
      <g>
       <use xlink:href="#m09c5e2dd9c" x="367.183125" y="377.22375" style="fill: #262626; stroke: #262626"/>
      </g>
     </g>
     <g id="text_6">
      <text style="font-size: 12px; font-family: 'Arial', 'DejaVu Sans', 'Liberation Sans', 'Bitstream Vera Sans', sans-serif; text-anchor: middle; fill: #262626" x="367.183125" y="394.113125" transform="rotate(-0 367.183125 394.113125)">2</text>
     </g>
    </g>
    <g id="xtick_7">
     <g id="line2d_7">
      <g>
       <use xlink:href="#m09c5e2dd9c" x="429.455625" y="377.22375" style="fill: #262626; stroke: #262626"/>
      </g>
     </g>
     <g id="text_7">
      <text style="font-size: 12px; font-family: 'Arial', 'DejaVu Sans', 'Liberation Sans', 'Bitstream Vera Sans', sans-serif; text-anchor: middle; fill: #262626" x="429.455625" y="394.113125" transform="rotate(-0 429.455625 394.113125)">4</text>
     </g>
    </g>
    <g id="xtick_8">
     <g id="line2d_8">
      <g>
       <use xlink:href="#m09c5e2dd9c" x="491.728125" y="377.22375" style="fill: #262626; stroke: #262626"/>
      </g>
     </g>
     <g id="text_8">
      <text style="font-size: 12px; font-family: 'Arial', 'DejaVu Sans', 'Liberation Sans', 'Bitstream Vera Sans', sans-serif; text-anchor: middle; fill: #262626" x="491.728125" y="394.113125" transform="rotate(-0 491.728125 394.113125)">6</text>
     </g>
    </g>
    <g id="xtick_9">
     <g id="line2d_9">
      <g>
       <use xlink:href="#m09c5e2dd9c" x="554.000625" y="377.22375" style="fill: #262626; stroke: #262626"/>
      </g>
     </g>
     <g id="text_9">
      <text style="font-size: 12px; font-family: 'Arial', 'DejaVu Sans', 'Liberation Sans', 'Bitstream Vera Sans', sans-serif; text-anchor: middle; fill: #262626" x="554.000625" y="394.113125" transform="rotate(-0 554.000625 394.113125)">8</text>
     </g>
    </g>
    <g id="text_10">
     <text style="font-size: 14px; font-family: 'Arial', 'DejaVu Sans', 'Liberation Sans', 'Bitstream Vera Sans', sans-serif; text-anchor: middle; fill: #262626" x="304.910625" y="410.698437" transform="rotate(-0 304.910625 410.698437)">Residual Error (°C)  [ Negative = Underpredict | Positive = Overpredict ]</text>
    </g>
   </g>
   <g id="matplotlib.axis_2">
    <g id="ytick_1">
     <g id="line2d_10">
      <defs>
       <path id="mc0fde09d6b" d="M 0 0 
L -4.8 0 
" style="stroke: #262626"/>
      </defs>
      <g>
       <use xlink:href="#mc0fde09d6b" x="55.820625" y="377.22375" style="fill: #262626; stroke: #262626"/>
      </g>
     </g>
     <g id="text_11">
      <text style="font-size: 12px; font-family: 'Arial', 'DejaVu Sans', 'Liberation Sans', 'Bitstream Vera Sans', sans-serif; text-anchor: end; fill: #262626" x="47.520625" y="381.518437" transform="rotate(-0 47.520625 381.518437)">0.00</text>
     </g>
    </g>
    <g id="ytick_2">
     <g id="line2d_11">
      <g>
       <use xlink:href="#mc0fde09d6b" x="55.820625" y="333.247103" style="fill: #262626; stroke: #262626"/>
      </g>
     </g>
     <g id="text_12">
      <text style="font-size: 12px; font-family: 'Arial', 'DejaVu Sans', 'Liberation Sans', 'Bitstream Vera Sans', sans-serif; text-anchor: end; fill: #262626" x="47.520625" y="337.541791" transform="rotate(-0 47.520625 337.541791)">0.05</text>
     </g>
    </g>
    <g id="ytick_3">
     <g id="line2d_12">
      <g>
       <use xlink:href="#mc0fde09d6b" x="55.820625" y="289.270456" style="fill: #262626; stroke: #262626"/>
      </g>
     </g>
     <g id="text_13">
      <text style="font-size: 12px; font-family: 'Arial', 'DejaVu Sans', 'Liberation Sans', 'Bitstream Vera Sans', sans-serif; text-anchor: end; fill: #262626" x="47.520625" y="293.565144" transform="rotate(-0 47.520625 293.565144)">0.10</text>
     </g>
    </g>
    <g id="ytick_4">
     <g id="line2d_13">
      <g>
       <use xlink:href="#mc0fde09d6b" x="55.820625" y="245.293809" style="fill: #262626; stroke: #262626"/>
      </g>
     </g>
     <g id="text_14">
      <text style="font-size: 12px; font-family: 'Arial', 'DejaVu Sans', 'Liberation Sans', 'Bitstream Vera Sans', sans-serif; text-anchor: end; fill: #262626" x="47.520625" y="249.588497" transform="rotate(-0 47.520625 249.588497)">0.15</text>
     </g>
    </g>
    <g id="ytick_5">
     <g id="line2d_14">
      <g>
       <use xlink:href="#mc0fde09d6b" x="55.820625" y="201.317162" style="fill: #262626; stroke: #262626"/>
      </g>
     </g>
     <g id="text_15">
      <text style="font-size: 12px; font-family: 'Arial', 'DejaVu Sans', 'Liberation Sans', 'Bitstream Vera Sans', sans-serif; text-anchor: end; fill: #262626" x="47.520625" y="205.61185" transform="rotate(-0 47.520625 205.61185)">0.20</text>
     </g>
    </g>
    <g id="ytick_6">
     <g id="line2d_15">
      <g>
       <use xlink:href="#mc0fde09d6b" x="55.820625" y="157.340515" style="fill: #262626; stroke: #262626"/>
      </g>
     </g>
     <g id="text_16">
      <text style="font-size: 12px; font-family: 'Arial', 'DejaVu Sans', 'Liberation Sans', 'Bitstream Vera Sans', sans-serif; text-anchor: end; fill: #262626" x="47.520625" y="161.635203" transform="rotate(-0 47.520625 161.635203)">0.25</text>
     </g>
    </g>
    <g id="ytick_7">
     <g id="line2d_16">
      <g>
       <use xlink:href="#mc0fde09d6b" x="55.820625" y="113.363868" style="fill: #262626; stroke: #262626"/>
      </g>
     </g>
     <g id="text_17">
      <text style="font-size: 12px; font-family: 'Arial', 'DejaVu Sans', 'Liberation Sans', 'Bitstream Vera Sans', sans-serif; text-anchor: end; fill: #262626" x="47.520625" y="117.658556" transform="rotate(-0 47.520625 117.658556)">0.30</text>
     </g>
    </g>
    <g id="ytick_8">
     <g id="line2d_17">
      <g>
       <use xlink:href="#mc0fde09d6b" x="55.820625" y="69.387221" style="fill: #262626; stroke: #262626"/>
      </g>
     </g>
     <g id="text_18">
      <text style="font-size: 12px; font-family: 'Arial', 'DejaVu Sans', 'Liberation Sans', 'Bitstream Vera Sans', sans-serif; text-anchor: end; fill: #262626" x="47.520625" y="73.681909" transform="rotate(-0 47.520625 73.681909)">0.35</text>
     </g>
    </g>
    <g id="ytick_9">
     <g id="line2d_18">
      <g>
       <use xlink:href="#mc0fde09d6b" x="55.820625" y="25.410575" style="fill: #262626; stroke: #262626"/>
      </g>
     </g>
     <g id="text_19">
      <text style="font-size: 12px; font-family: 'Arial', 'DejaVu Sans', 'Liberation Sans', 'Bitstream Vera Sans', sans-serif; text-anchor: end; fill: #262626" x="47.520625" y="29.705262" transform="rotate(-0 47.520625 29.705262)">0.40</text>
     </g>
    </g>
    <g id="text_20">
     <text style="font-size: 14px; font-family: 'Arial', 'DejaVu Sans', 'Liberation Sans', 'Bitstream Vera Sans', sans-serif; text-anchor: middle; fill: #262626" x="17.220938" y="201.035625" transform="rotate(-90 17.220938 201.035625)">Density</text>
    </g>
   </g>
   <g id="patch_3">
    <path d="M -738.016446 377.22375 
L -721.167974 377.22375 
L -721.167974 377.207496 
L -738.016446 377.207496 
z
" clip-path="url(#p3ec3bf3fbb)" style="fill: #003f5c; fill-opacity: 0.7; stroke: #ffffff; stroke-width: 0.405818; stroke-linejoin: miter"/>
   </g>
   <g id="patch_4">
    <path d="M -721.167974 377.22375 
L -704.319503 377.22375 
L -704.319503 377.22375 
L -721.167974 377.22375 
z
" clip-path="url(#p3ec3bf3fbb)" style="fill: #003f5c; fill-opacity: 0.7; stroke: #ffffff; stroke-width: 0.405818; stroke-linejoin: miter"/>
   </g>
   <g id="patch_5">
    <path d="M -704.319503 377.22375 
L -687.471032 377.22375 
L -687.471032 377.22375 
L -704.319503 377.22375 
z
" clip-path="url(#p3ec3bf3fbb)" style="fill: #003f5c; fill-opacity: 0.7; stroke: #ffffff; stroke-width: 0.405818; stroke-linejoin: miter"/>
   </g>
   <g id="patch_6">
    <path d="M -687.471032 377.22375 
L -670.622561 377.22375 
L -670.622561 377.22375 
L -687.471032 377.22375 
z
" clip-path="url(#p3ec3bf3fbb)" style="fill: #003f5c; fill-opacity: 0.7; stroke: #ffffff; stroke-width: 0.405818; stroke-linejoin: miter"/>
   </g>
   <g id="patch_7">
    <path d="M -670.622561 377.22375 
L -653.77409 377.22375 
L -653.77409 377.22375 
L -670.622561 377.22375 
z
" clip-path="url(#p3ec3bf3fbb)" style="fill: #003f5c; fill-opacity: 0.7; stroke: #ffffff; stroke-width: 0.405818; stroke-linejoin: miter"/>
   </g>
   <g id="patch_8">
    <path d="M -653.77409 377.22375 
L -636.925618 377.22375 
L -636.925618 377.22375 
L -653.77409 377.22375 
z
" clip-path="url(#p3ec3bf3fbb)" style="fill: #003f5c; fill-opacity: 0.7; stroke: #ffffff; stroke-width: 0.405818; stroke-linejoin: miter"/>
   </g>
   <g id="patch_9">
    <path d="M -636.925618 377.22375 
L -620.077147 377.22375 
L -620.077147 377.22375 
L -636.925618 377.22375 
z
" clip-path="url(#p3ec3bf3fbb)" style="fill: #003f5c; fill-opacity: 0.7; stroke: #ffffff; stroke-width: 0.405818; stroke-linejoin: miter"/>
   </g>
   <g id="patch_10">
    <path d="M -620.077147 377.22375 
L -603.228676 377.22375 
L -603.228676 377.22375 
L -620.077147 377.22375 
z
" clip-path="url(#p3ec3bf3fbb)" style="fill: #003f5c; fill-opacity: 0.7; stroke: #ffffff; stroke-width: 0.405818; stroke-linejoin: miter"/>
   </g>
   <g id="patch_11">
    <path d="M -603.228676 377.22375 
L -586.380205 377.22375 
L -586.380205 377.22375 
L -603.228676 377.22375 
z
" clip-path="url(#p3ec3bf3fbb)" style="fill: #003f5c; fill-opacity: 0.7; stroke: #ffffff; stroke-width: 0.405818; stroke-linejoin: miter"/>
   </g>
   <g id="patch_12">
    <path d="M -586.380205 377.22375 
L -569.531734 377.22375 
L -569.531734 377.207496 
L -586.380205 377.207496 
z
" clip-path="url(#p3ec3bf3fbb)" style="fill: #003f5c; fill-opacity: 0.7; stroke: #ffffff; stroke-width: 0.405818; stroke-linejoin: miter"/>
   </g>
   <g id="patch_13">
    <path d="M -569.531734 377.22375 
L -552.683262 377.22375 
L -552.683262 377.22375 
L -569.531734 377.22375 
z
" clip-path="url(#p3ec3bf3fbb)" style="fill: #003f5c; fill-opacity: 0.7; stroke: #ffffff; stroke-width: 0.405818; stroke-linejoin: miter"/>
   </g>
   <g id="patch_14">
    <path d="M -552.683262 377.22375 
L -535.834791 377.22375 
L -535.834791 377.207496 
L -552.683262 377.207496 
z
" clip-path="url(#p3ec3bf3fbb)" style="fill: #003f5c; fill-opacity: 0.7; stroke: #ffffff; stroke-width: 0.405818; stroke-linejoin: miter"/>
   </g>
   <g id="patch_15">
    <path d="M -535.834791 377.22375 
L -518.98632 377.22375 
L -518.98632 377.207496 
L -535.834791 377.207496 
z
" clip-path="url(#p3ec3bf3fbb)" style="fill: #003f5c; fill-opacity: 0.7; stroke: #ffffff; stroke-width: 0.405818; stroke-linejoin: miter"/>
   </g>
   <g id="patch_16">
    <path d="M -518.98632 377.22375 
L -502.137849 377.22375 
L -502.137849 377.207496 
L -518.98632 377.207496 
z
" clip-path="url(#p3ec3bf3fbb)" style="fill: #003f5c; fill-opacity: 0.7; stroke: #ffffff; stroke-width: 0.405818; stroke-linejoin: miter"/>
   </g>
   <g id="patch_17">
    <path d="M -502.137849 377.22375 
L -485.289378 377.22375 
L -485.289378 377.174988 
L -502.137849 377.174988 
z
" clip-path="url(#p3ec3bf3fbb)" style="fill: #003f5c; fill-opacity: 0.7; stroke: #ffffff; stroke-width: 0.405818; stroke-linejoin: miter"/>
   </g>
   <g id="patch_18">
    <path d="M -485.289378 377.22375 
L -468.440906 377.22375 
L -468.440906 377.22375 
L -485.289378 377.22375 
z
" clip-path="url(#p3ec3bf3fbb)" style="fill: #003f5c; fill-opacity: 0.7; stroke: #ffffff; stroke-width: 0.405818; stroke-linejoin: miter"/>
   </g>
   <g id="patch_19">
    <path d="M -468.440906 377.22375 
L -451.592435 377.22375 
L -451.592435 377.126227 
L -468.440906 377.126227 
z
" clip-path="url(#p3ec3bf3fbb)" style="fill: #003f5c; fill-opacity: 0.7; stroke: #ffffff; stroke-width: 0.405818; stroke-linejoin: miter"/>
   </g>
   <g id="patch_20">
    <path d="M -451.592435 377.22375 
L -434.743964 377.22375 
L -434.743964 377.22375 
L -451.592435 377.22375 
z
" clip-path="url(#p3ec3bf3fbb)" style="fill: #003f5c; fill-opacity: 0.7; stroke: #ffffff; stroke-width: 0.405818; stroke-linejoin: miter"/>
   </g>
   <g id="patch_21">
    <path d="M -434.743964 377.22375 
L -417.895493 377.22375 
L -417.895493 377.22375 
L -434.743964 377.22375 
z
" clip-path="url(#p3ec3bf3fbb)" style="fill: #003f5c; fill-opacity: 0.7; stroke: #ffffff; stroke-width: 0.405818; stroke-linejoin: miter"/>
   </g>
   <g id="patch_22">
    <path d="M -417.895493 377.22375 
L -401.047022 377.22375 
L -401.047022 377.174988 
L -417.895493 377.174988 
z
" clip-path="url(#p3ec3bf3fbb)" style="fill: #003f5c; fill-opacity: 0.7; stroke: #ffffff; stroke-width: 0.405818; stroke-linejoin: miter"/>
   </g>
   <g id="patch_23">
    <path d="M -401.047022 377.22375 
L -384.19855 377.22375 
L -384.19855 377.174988 
L -401.047022 377.174988 
z
" clip-path="url(#p3ec3bf3fbb)" style="fill: #003f5c; fill-opacity: 0.7; stroke: #ffffff; stroke-width: 0.405818; stroke-linejoin: miter"/>
   </g>
   <g id="patch_24">
    <path d="M -384.19855 377.22375 
L -367.350079 377.22375 
L -367.350079 377.14248 
L -384.19855 377.14248 
z
" clip-path="url(#p3ec3bf3fbb)" style="fill: #003f5c; fill-opacity: 0.7; stroke: #ffffff; stroke-width: 0.405818; stroke-linejoin: miter"/>
   </g>
   <g id="patch_25">
    <path d="M -367.350079 377.22375 
L -350.501608 377.22375 
L -350.501608 377.174988 
L -367.350079 377.174988 
z
" clip-path="url(#p3ec3bf3fbb)" style="fill: #003f5c; fill-opacity: 0.7; stroke: #ffffff; stroke-width: 0.405818; stroke-linejoin: miter"/>
   </g>
   <g id="patch_26">
    <path d="M -350.501608 377.22375 
L -333.653137 377.22375 
L -333.653137 377.174988 
L -350.501608 377.174988 
z
" clip-path="url(#p3ec3bf3fbb)" style="fill: #003f5c; fill-opacity: 0.7; stroke: #ffffff; stroke-width: 0.405818; stroke-linejoin: miter"/>
   </g>
   <g id="patch_27">
    <path d="M -333.653137 377.22375 
L -316.804666 377.22375 
L -316.804666 377.126227 
L -333.653137 377.126227 
z
" clip-path="url(#p3ec3bf3fbb)" style="fill: #003f5c; fill-opacity: 0.7; stroke: #ffffff; stroke-width: 0.405818; stroke-linejoin: miter"/>
   </g>
   <g id="patch_28">
    <path d="M -316.804666 377.22375 
L -299.956194 377.22375 
L -299.956194 377.14248 
L -316.804666 377.14248 
z
" clip-path="url(#p3ec3bf3fbb)" style="fill: #003f5c; fill-opacity: 0.7; stroke: #ffffff; stroke-width: 0.405818; stroke-linejoin: miter"/>
   </g>
   <g id="patch_29">
    <path d="M -299.956194 377.22375 
L -283.107723 377.22375 
L -283.107723 377.174988 
L -299.956194 377.174988 
z
" clip-path="url(#p3ec3bf3fbb)" style="fill: #003f5c; fill-opacity: 0.7; stroke: #ffffff; stroke-width: 0.405818; stroke-linejoin: miter"/>
   </g>
   <g id="patch_30">
    <path d="M -283.107723 377.22375 
L -266.259252 377.22375 
L -266.259252 377.061211 
L -283.107723 377.061211 
z
" clip-path="url(#p3ec3bf3fbb)" style="fill: #003f5c; fill-opacity: 0.7; stroke: #ffffff; stroke-width: 0.405818; stroke-linejoin: miter"/>
   </g>
   <g id="patch_31">
    <path d="M -266.259252 377.22375 
L -249.410781 377.22375 
L -249.410781 377.174988 
L -266.259252 377.174988 
z
" clip-path="url(#p3ec3bf3fbb)" style="fill: #003f5c; fill-opacity: 0.7; stroke: #ffffff; stroke-width: 0.405818; stroke-linejoin: miter"/>
   </g>
   <g id="patch_32">
    <path d="M -249.410781 377.22375 
L -232.56231 377.22375 
L -232.56231 377.109973 
L -249.410781 377.109973 
z
" clip-path="url(#p3ec3bf3fbb)" style="fill: #003f5c; fill-opacity: 0.7; stroke: #ffffff; stroke-width: 0.405818; stroke-linejoin: miter"/>
   </g>
   <g id="patch_33">
    <path d="M -232.56231 377.22375 
L -215.713838 377.22375 
L -215.713838 377.077465 
L -232.56231 377.077465 
z
" clip-path="url(#p3ec3bf3fbb)" style="fill: #003f5c; fill-opacity: 0.7; stroke: #ffffff; stroke-width: 0.405818; stroke-linejoin: miter"/>
   </g>
   <g id="patch_34">
    <path d="M -215.713838 377.22375 
L -198.865367 377.22375 
L -198.865367 377.093719 
L -215.713838 377.093719 
z
" clip-path="url(#p3ec3bf3fbb)" style="fill: #003f5c; fill-opacity: 0.7; stroke: #ffffff; stroke-width: 0.405818; stroke-linejoin: miter"/>
   </g>
   <g id="patch_35">
    <path d="M -198.865367 377.22375 
L -182.016896 377.22375 
L -182.016896 377.061211 
L -198.865367 377.061211 
z
" clip-path="url(#p3ec3bf3fbb)" style="fill: #003f5c; fill-opacity: 0.7; stroke: #ffffff; stroke-width: 0.405818; stroke-linejoin: miter"/>
   </g>
   <g id="patch_36">
    <path d="M -182.016896 377.22375 
L -165.168425 377.22375 
L -165.168425 377.077465 
L -182.016896 377.077465 
z
" clip-path="url(#p3ec3bf3fbb)" style="fill: #003f5c; fill-opacity: 0.7; stroke: #ffffff; stroke-width: 0.405818; stroke-linejoin: miter"/>
   </g>
   <g id="patch_37">
    <path d="M -165.168425 377.22375 
L -148.319954 377.22375 
L -148.319954 377.077465 
L -165.168425 377.077465 
z
" clip-path="url(#p3ec3bf3fbb)" style="fill: #003f5c; fill-opacity: 0.7; stroke: #ffffff; stroke-width: 0.405818; stroke-linejoin: miter"/>
   </g>
   <g id="patch_38">
    <path d="M -148.319954 377.22375 
L -131.471482 377.22375 
L -131.471482 377.012449 
L -148.319954 377.012449 
z
" clip-path="url(#p3ec3bf3fbb)" style="fill: #003f5c; fill-opacity: 0.7; stroke: #ffffff; stroke-width: 0.405818; stroke-linejoin: miter"/>
   </g>
   <g id="patch_39">
    <path d="M -131.471482 377.22375 
L -114.623011 377.22375 
L -114.623011 377.109973 
L -131.471482 377.109973 
z
" clip-path="url(#p3ec3bf3fbb)" style="fill: #003f5c; fill-opacity: 0.7; stroke: #ffffff; stroke-width: 0.405818; stroke-linejoin: miter"/>
   </g>
   <g id="patch_40">
    <path d="M -114.623011 377.22375 
L -97.77454 377.22375 
L -97.77454 376.963687 
L -114.623011 376.963687 
z
" clip-path="url(#p3ec3bf3fbb)" style="fill: #003f5c; fill-opacity: 0.7; stroke: #ffffff; stroke-width: 0.405818; stroke-linejoin: miter"/>
   </g>
   <g id="patch_41">
    <path d="M -97.77454 377.22375 
L -80.926069 377.22375 
L -80.926069 377.061211 
L -97.77454 377.061211 
z
" clip-path="url(#p3ec3bf3fbb)" style="fill: #003f5c; fill-opacity: 0.7; stroke: #ffffff; stroke-width: 0.405818; stroke-linejoin: miter"/>
   </g>
   <g id="patch_42">
    <path d="M -80.926069 377.22375 
L -64.077598 377.22375 
L -64.077598 376.898672 
L -80.926069 376.898672 
z
" clip-path="url(#p3ec3bf3fbb)" style="fill: #003f5c; fill-opacity: 0.7; stroke: #ffffff; stroke-width: 0.405818; stroke-linejoin: miter"/>
   </g>
   <g id="patch_43">
    <path d="M -64.077598 377.22375 
L -47.229126 377.22375 
L -47.229126 376.93118 
L -64.077598 376.93118 
z
" clip-path="url(#p3ec3bf3fbb)" style="fill: #003f5c; fill-opacity: 0.7; stroke: #ffffff; stroke-width: 0.405818; stroke-linejoin: miter"/>
   </g>
   <g id="patch_44">
    <path d="M -47.229126 377.22375 
L -30.380655 377.22375 
L -30.380655 376.784894 
L -47.229126 376.784894 
z
" clip-path="url(#p3ec3bf3fbb)" style="fill: #003f5c; fill-opacity: 0.7; stroke: #ffffff; stroke-width: 0.405818; stroke-linejoin: miter"/>
   </g>
   <g id="patch_45">
    <path d="M -30.380655 377.22375 
L -13.532184 377.22375 
L -13.532184 376.638609 
L -30.380655 376.638609 
z
" clip-path="url(#p3ec3bf3fbb)" style="fill: #003f5c; fill-opacity: 0.7; stroke: #ffffff; stroke-width: 0.405818; stroke-linejoin: miter"/>
   </g>
   <g id="patch_46">
    <path d="M -13.532184 377.22375 
L 3.316287 377.22375 
L 3.316287 376.687371 
L -13.532184 376.687371 
z
" clip-path="url(#p3ec3bf3fbb)" style="fill: #003f5c; fill-opacity: 0.7; stroke: #ffffff; stroke-width: 0.405818; stroke-linejoin: miter"/>
   </g>
   <g id="patch_47">
    <path d="M 3.316287 377.22375 
L 20.164758 377.22375 
L 20.164758 376.736133 
L 3.316287 376.736133 
z
" clip-path="url(#p3ec3bf3fbb)" style="fill: #003f5c; fill-opacity: 0.7; stroke: #ffffff; stroke-width: 0.405818; stroke-linejoin: miter"/>
   </g>
   <g id="patch_48">
    <path d="M 20.164758 377.22375 
L 37.01323 377.22375 
L 37.01323 376.541086 
L 20.164758 376.541086 
z
" clip-path="url(#p3ec3bf3fbb)" style="fill: #003f5c; fill-opacity: 0.7; stroke: #ffffff; stroke-width: 0.405818; stroke-linejoin: miter"/>
   </g>
   <g id="patch_49">
    <path d="M 37.01323 377.22375 
L 53.861701 377.22375 
L 53.861701 376.167246 
L 37.01323 376.167246 
z
" clip-path="url(#p3ec3bf3fbb)" style="fill: #003f5c; fill-opacity: 0.7; stroke: #ffffff; stroke-width: 0.405818; stroke-linejoin: miter"/>
   </g>
   <g id="patch_50">
    <path d="M 53.861701 377.22375 
L 70.710172 377.22375 
L 70.710172 375.874675 
L 53.861701 375.874675 
z
" clip-path="url(#p3ec3bf3fbb)" style="fill: #003f5c; fill-opacity: 0.7; stroke: #ffffff; stroke-width: 0.405818; stroke-linejoin: miter"/>
   </g>
   <g id="patch_51">
    <path d="M 70.710172 377.22375 
L 87.558643 377.22375 
L 87.558643 375.078234 
L 70.710172 375.078234 
z
" clip-path="url(#p3ec3bf3fbb)" style="fill: #003f5c; fill-opacity: 0.7; stroke: #ffffff; stroke-width: 0.405818; stroke-linejoin: miter"/>
   </g>
   <g id="patch_52">
    <path d="M 87.558643 377.22375 
L 104.407114 377.22375 
L 104.407114 374.785663 
L 87.558643 374.785663 
z
" clip-path="url(#p3ec3bf3fbb)" style="fill: #003f5c; fill-opacity: 0.7; stroke: #ffffff; stroke-width: 0.405818; stroke-linejoin: miter"/>
   </g>
   <g id="patch_53">
    <path d="M 104.407114 377.22375 
L 121.255586 377.22375 
L 121.255586 374.168014 
L 104.407114 374.168014 
z
" clip-path="url(#p3ec3bf3fbb)" style="fill: #003f5c; fill-opacity: 0.7; stroke: #ffffff; stroke-width: 0.405818; stroke-linejoin: miter"/>
   </g>
   <g id="patch_54">
    <path d="M 121.255586 377.22375 
L 138.104057 377.22375 
L 138.104057 373.046495 
L 121.255586 373.046495 
z
" clip-path="url(#p3ec3bf3fbb)" style="fill: #003f5c; fill-opacity: 0.7; stroke: #ffffff; stroke-width: 0.405818; stroke-linejoin: miter"/>
   </g>
   <g id="patch_55">
    <path d="M 138.104057 377.22375 
L 154.952528 377.22375 
L 154.952528 370.624662 
L 138.104057 370.624662 
z
" clip-path="url(#p3ec3bf3fbb)" style="fill: #003f5c; fill-opacity: 0.7; stroke: #ffffff; stroke-width: 0.405818; stroke-linejoin: miter"/>
   </g>
   <g id="patch_56">
    <path d="M 154.952528 377.22375 
L 171.800999 377.22375 
L 171.800999 367.95902 
L 154.952528 367.95902 
z
" clip-path="url(#p3ec3bf3fbb)" style="fill: #003f5c; fill-opacity: 0.7; stroke: #ffffff; stroke-width: 0.405818; stroke-linejoin: miter"/>
   </g>
   <g id="patch_57">
    <path d="M 171.800999 377.22375 
L 188.64947 377.22375 
L 188.64947 361.327424 
L 171.800999 361.327424 
z
" clip-path="url(#p3ec3bf3fbb)" style="fill: #003f5c; fill-opacity: 0.7; stroke: #ffffff; stroke-width: 0.405818; stroke-linejoin: miter"/>
   </g>
   <g id="patch_58">
    <path d="M 188.64947 377.22375 
L 205.497942 377.22375 
L 205.497942 356.321219 
L 188.64947 356.321219 
z
" clip-path="url(#p3ec3bf3fbb)" style="fill: #003f5c; fill-opacity: 0.7; stroke: #ffffff; stroke-width: 0.405818; stroke-linejoin: miter"/>
   </g>
   <g id="patch_59">
    <path d="M 205.497942 377.22375 
L 222.346413 377.22375 
L 222.346413 343.594405 
L 205.497942 343.594405 
z
" clip-path="url(#p3ec3bf3fbb)" style="fill: #003f5c; fill-opacity: 0.7; stroke: #ffffff; stroke-width: 0.405818; stroke-linejoin: miter"/>
   </g>
   <g id="patch_60">
    <path d="M 222.346413 377.22375 
L 239.194884 377.22375 
L 239.194884 335.22364 
L 222.346413 335.22364 
z
" clip-path="url(#p3ec3bf3fbb)" style="fill: #003f5c; fill-opacity: 0.7; stroke: #ffffff; stroke-width: 0.405818; stroke-linejoin: miter"/>
   </g>
   <g id="patch_61">
    <path d="M 239.194884 377.22375 
L 256.043355 377.22375 
L 256.043355 309.038588 
L 239.194884 309.038588 
z
" clip-path="url(#p3ec3bf3fbb)" style="fill: #003f5c; fill-opacity: 0.7; stroke: #ffffff; stroke-width: 0.405818; stroke-linejoin: miter"/>
   </g>
   <g id="patch_62">
    <path d="M 256.043355 377.22375 
L 272.891827 377.22375 
L 272.891827 261.39837 
L 256.043355 261.39837 
z
" clip-path="url(#p3ec3bf3fbb)" style="fill: #003f5c; fill-opacity: 0.7; stroke: #ffffff; stroke-width: 0.405818; stroke-linejoin: miter"/>
   </g>
   <g id="patch_63">
    <path d="M 272.891827 377.22375 
L 289.740298 377.22375 
L 289.740298 222.080156 
L 272.891827 222.080156 
z
" clip-path="url(#p3ec3bf3fbb)" style="fill: #003f5c; fill-opacity: 0.7; stroke: #ffffff; stroke-width: 0.405818; stroke-linejoin: miter"/>
   </g>
   <g id="patch_64">
    <path d="M 289.740298 377.22375 
L 306.588769 377.22375 
L 306.588769 76.753926 
L 289.740298 76.753926 
z
" clip-path="url(#p3ec3bf3fbb)" style="fill: #003f5c; fill-opacity: 0.7; stroke: #ffffff; stroke-width: 0.405818; stroke-linejoin: miter"/>
   </g>
   <g id="patch_65">
    <path d="M 306.588769 377.22375 
L 323.43724 377.22375 
L 323.43724 97.445156 
L 306.588769 97.445156 
z
" clip-path="url(#p3ec3bf3fbb)" style="fill: #003f5c; fill-opacity: 0.7; stroke: #ffffff; stroke-width: 0.405818; stroke-linejoin: miter"/>
   </g>
   <g id="patch_66">
    <path d="M 323.43724 377.22375 
L 340.285711 377.22375 
L 340.285711 204.574693 
L 323.43724 204.574693 
z
" clip-path="url(#p3ec3bf3fbb)" style="fill: #003f5c; fill-opacity: 0.7; stroke: #ffffff; stroke-width: 0.405818; stroke-linejoin: miter"/>
   </g>
   <g id="patch_67">
    <path d="M 340.285711 377.22375 
L 357.134183 377.22375 
L 357.134183 267.737396 
L 340.285711 267.737396 
z
" clip-path="url(#p3ec3bf3fbb)" style="fill: #003f5c; fill-opacity: 0.7; stroke: #ffffff; stroke-width: 0.405818; stroke-linejoin: miter"/>
   </g>
   <g id="patch_68">
    <path d="M 357.134183 377.22375 
L 373.982654 377.22375 
L 373.982654 300.992901 
L 357.134183 300.992901 
z
" clip-path="url(#p3ec3bf3fbb)" style="fill: #003f5c; fill-opacity: 0.7; stroke: #ffffff; stroke-width: 0.405818; stroke-linejoin: miter"/>
   </g>
   <g id="patch_69">
    <path d="M 373.982654 377.22375 
L 390.831125 377.22375 
L 390.831125 325.552563 
L 373.982654 325.552563 
z
" clip-path="url(#p3ec3bf3fbb)" style="fill: #003f5c; fill-opacity: 0.7; stroke: #ffffff; stroke-width: 0.405818; stroke-linejoin: miter"/>
   </g>
   <g id="patch_70">
    <path d="M 390.831125 377.22375 
L 407.679596 377.22375 
L 407.679596 338.019313 
L 390.831125 338.019313 
z
" clip-path="url(#p3ec3bf3fbb)" style="fill: #003f5c; fill-opacity: 0.7; stroke: #ffffff; stroke-width: 0.405818; stroke-linejoin: miter"/>
   </g>
   <g id="patch_71">
    <path d="M 407.679596 377.22375 
L 424.528067 377.22375 
L 424.528067 350.46981 
L 407.679596 350.46981 
z
" clip-path="url(#p3ec3bf3fbb)" style="fill: #003f5c; fill-opacity: 0.7; stroke: #ffffff; stroke-width: 0.405818; stroke-linejoin: miter"/>
   </g>
   <g id="patch_72">
    <path d="M 424.528067 377.22375 
L 441.376539 377.22375 
L 441.376539 356.126172 
L 424.528067 356.126172 
z
" clip-path="url(#p3ec3bf3fbb)" style="fill: #003f5c; fill-opacity: 0.7; stroke: #ffffff; stroke-width: 0.405818; stroke-linejoin: miter"/>
   </g>
   <g id="patch_73">
    <path d="M 441.376539 377.22375 
L 458.22501 377.22375 
L 458.22501 361.961326 
L 441.376539 361.961326 
z
" clip-path="url(#p3ec3bf3fbb)" style="fill: #003f5c; fill-opacity: 0.7; stroke: #ffffff; stroke-width: 0.405818; stroke-linejoin: miter"/>
   </g>
   <g id="patch_74">
    <path d="M 458.22501 377.22375 
L 475.073481 377.22375 
L 475.073481 366.414898 
L 458.22501 366.414898 
z
" clip-path="url(#p3ec3bf3fbb)" style="fill: #003f5c; fill-opacity: 0.7; stroke: #ffffff; stroke-width: 0.405818; stroke-linejoin: miter"/>
   </g>
   <g id="patch_75">
    <path d="M 475.073481 377.22375 
L 491.921952 377.22375 
L 491.921952 368.219083 
L 475.073481 368.219083 
z
" clip-path="url(#p3ec3bf3fbb)" style="fill: #003f5c; fill-opacity: 0.7; stroke: #ffffff; stroke-width: 0.405818; stroke-linejoin: miter"/>
   </g>
   <g id="patch_76">
    <path d="M 491.921952 377.22375 
L 508.770423 377.22375 
L 508.770423 370.5759 
L 491.921952 370.5759 
z
" clip-path="url(#p3ec3bf3fbb)" style="fill: #003f5c; fill-opacity: 0.7; stroke: #ffffff; stroke-width: 0.405818; stroke-linejoin: miter"/>
   </g>
   <g id="patch_77">
    <path d="M 508.770423 377.22375 
L 525.618895 377.22375 
L 525.618895 372.266307 
L 508.770423 372.266307 
z
" clip-path="url(#p3ec3bf3fbb)" style="fill: #003f5c; fill-opacity: 0.7; stroke: #ffffff; stroke-width: 0.405818; stroke-linejoin: miter"/>
   </g>
   <g id="patch_78">
    <path d="M 525.618895 377.22375 
L 542.467366 377.22375 
L 542.467366 373.826682 
L 525.618895 373.826682 
z
" clip-path="url(#p3ec3bf3fbb)" style="fill: #003f5c; fill-opacity: 0.7; stroke: #ffffff; stroke-width: 0.405818; stroke-linejoin: miter"/>
   </g>
   <g id="patch_79">
    <path d="M 542.467366 377.22375 
L 559.315837 377.22375 
L 559.315837 374.379315 
L 542.467366 374.379315 
z
" clip-path="url(#p3ec3bf3fbb)" style="fill: #003f5c; fill-opacity: 0.7; stroke: #ffffff; stroke-width: 0.405818; stroke-linejoin: miter"/>
   </g>
   <g id="patch_80">
    <path d="M 559.315837 377.22375 
L 576.164308 377.22375 
L 576.164308 375.452074 
L 559.315837 375.452074 
z
" clip-path="url(#p3ec3bf3fbb)" style="fill: #003f5c; fill-opacity: 0.7; stroke: #ffffff; stroke-width: 0.405818; stroke-linejoin: miter"/>
   </g>
   <g id="patch_81">
    <path d="M 576.164308 377.22375 
L 593.012779 377.22375 
L 593.012779 376.085976 
L 576.164308 376.085976 
z
" clip-path="url(#p3ec3bf3fbb)" style="fill: #003f5c; fill-opacity: 0.7; stroke: #ffffff; stroke-width: 0.405818; stroke-linejoin: miter"/>
   </g>
   <g id="patch_82">
    <path d="M 593.012779 377.22375 
L 609.861251 377.22375 
L 609.861251 376.362293 
L 593.012779 376.362293 
z
" clip-path="url(#p3ec3bf3fbb)" style="fill: #003f5c; fill-opacity: 0.7; stroke: #ffffff; stroke-width: 0.405818; stroke-linejoin: miter"/>
   </g>
   <g id="patch_83">
    <path d="M 609.861251 377.22375 
L 626.709722 377.22375 
L 626.709722 376.47607 
L 609.861251 376.47607 
z
" clip-path="url(#p3ec3bf3fbb)" style="fill: #003f5c; fill-opacity: 0.7; stroke: #ffffff; stroke-width: 0.405818; stroke-linejoin: miter"/>
   </g>
   <g id="patch_84">
    <path d="M 626.709722 377.22375 
L 643.558193 377.22375 
L 643.558193 376.654863 
L 626.709722 376.654863 
z
" clip-path="url(#p3ec3bf3fbb)" style="fill: #003f5c; fill-opacity: 0.7; stroke: #ffffff; stroke-width: 0.405818; stroke-linejoin: miter"/>
   </g>
   <g id="patch_85">
    <path d="M 643.558193 377.22375 
L 660.406664 377.22375 
L 660.406664 376.801148 
L 643.558193 376.801148 
z
" clip-path="url(#p3ec3bf3fbb)" style="fill: #003f5c; fill-opacity: 0.7; stroke: #ffffff; stroke-width: 0.405818; stroke-linejoin: miter"/>
   </g>
   <g id="patch_86">
    <path d="M 660.406664 377.22375 
L 677.255135 377.22375 
L 677.255135 376.833656 
L 660.406664 376.833656 
z
" clip-path="url(#p3ec3bf3fbb)" style="fill: #003f5c; fill-opacity: 0.7; stroke: #ffffff; stroke-width: 0.405818; stroke-linejoin: miter"/>
   </g>
   <g id="patch_87">
    <path d="M 677.255135 377.22375 
L 694.103607 377.22375 
L 694.103607 377.012449 
L 677.255135 377.012449 
z
" clip-path="url(#p3ec3bf3fbb)" style="fill: #003f5c; fill-opacity: 0.7; stroke: #ffffff; stroke-width: 0.405818; stroke-linejoin: miter"/>
   </g>
   <g id="patch_88">
    <path d="M 694.103607 377.22375 
L 710.952078 377.22375 
L 710.952078 377.093719 
L 694.103607 377.093719 
z
" clip-path="url(#p3ec3bf3fbb)" style="fill: #003f5c; fill-opacity: 0.7; stroke: #ffffff; stroke-width: 0.405818; stroke-linejoin: miter"/>
   </g>
   <g id="patch_89">
    <path d="M 710.952078 377.22375 
L 727.800549 377.22375 
L 727.800549 376.996195 
L 710.952078 376.996195 
z
" clip-path="url(#p3ec3bf3fbb)" style="fill: #003f5c; fill-opacity: 0.7; stroke: #ffffff; stroke-width: 0.405818; stroke-linejoin: miter"/>
   </g>
   <g id="patch_90">
    <path d="M 727.800549 377.22375 
L 744.64902 377.22375 
L 744.64902 377.109973 
L 727.800549 377.109973 
z
" clip-path="url(#p3ec3bf3fbb)" style="fill: #003f5c; fill-opacity: 0.7; stroke: #ffffff; stroke-width: 0.405818; stroke-linejoin: miter"/>
   </g>
   <g id="patch_91">
    <path d="M 744.64902 377.22375 
L 761.497491 377.22375 
L 761.497491 377.061211 
L 744.64902 377.061211 
z
" clip-path="url(#p3ec3bf3fbb)" style="fill: #003f5c; fill-opacity: 0.7; stroke: #ffffff; stroke-width: 0.405818; stroke-linejoin: miter"/>
   </g>
   <g id="patch_92">
    <path d="M 761.497491 377.22375 
L 778.345963 377.22375 
L 778.345963 377.207496 
L 761.497491 377.207496 
z
" clip-path="url(#p3ec3bf3fbb)" style="fill: #003f5c; fill-opacity: 0.7; stroke: #ffffff; stroke-width: 0.405818; stroke-linejoin: miter"/>
   </g>
   <g id="patch_93">
    <path d="M 778.345963 377.22375 
L 795.194434 377.22375 
L 795.194434 377.14248 
L 778.345963 377.14248 
z
" clip-path="url(#p3ec3bf3fbb)" style="fill: #003f5c; fill-opacity: 0.7; stroke: #ffffff; stroke-width: 0.405818; stroke-linejoin: miter"/>
   </g>
   <g id="patch_94">
    <path d="M 795.194434 377.22375 
L 812.042905 377.22375 
L 812.042905 377.077465 
L 795.194434 377.077465 
z
" clip-path="url(#p3ec3bf3fbb)" style="fill: #003f5c; fill-opacity: 0.7; stroke: #ffffff; stroke-width: 0.405818; stroke-linejoin: miter"/>
   </g>
   <g id="patch_95">
    <path d="M 812.042905 377.22375 
L 828.891376 377.22375 
L 828.891376 377.109973 
L 812.042905 377.109973 
z
" clip-path="url(#p3ec3bf3fbb)" style="fill: #003f5c; fill-opacity: 0.7; stroke: #ffffff; stroke-width: 0.405818; stroke-linejoin: miter"/>
   </g>
   <g id="patch_96">
    <path d="M 828.891376 377.22375 
L 845.739847 377.22375 
L 845.739847 377.158734 
L 828.891376 377.158734 
z
" clip-path="url(#p3ec3bf3fbb)" style="fill: #003f5c; fill-opacity: 0.7; stroke: #ffffff; stroke-width: 0.405818; stroke-linejoin: miter"/>
   </g>
   <g id="patch_97">
    <path d="M 845.739847 377.22375 
L 862.588319 377.22375 
L 862.588319 377.126227 
L 845.739847 377.126227 
z
" clip-path="url(#p3ec3bf3fbb)" style="fill: #003f5c; fill-opacity: 0.7; stroke: #ffffff; stroke-width: 0.405818; stroke-linejoin: miter"/>
   </g>
   <g id="patch_98">
    <path d="M 862.588319 377.22375 
L 879.43679 377.22375 
L 879.43679 377.14248 
L 862.588319 377.14248 
z
" clip-path="url(#p3ec3bf3fbb)" style="fill: #003f5c; fill-opacity: 0.7; stroke: #ffffff; stroke-width: 0.405818; stroke-linejoin: miter"/>
   </g>
   <g id="patch_99">
    <path d="M 879.43679 377.22375 
L 896.285261 377.22375 
L 896.285261 377.126227 
L 879.43679 377.126227 
z
" clip-path="url(#p3ec3bf3fbb)" style="fill: #003f5c; fill-opacity: 0.7; stroke: #ffffff; stroke-width: 0.405818; stroke-linejoin: miter"/>
   </g>
   <g id="patch_100">
    <path d="M 896.285261 377.22375 
L 913.133732 377.22375 
L 913.133732 377.191242 
L 896.285261 377.191242 
z
" clip-path="url(#p3ec3bf3fbb)" style="fill: #003f5c; fill-opacity: 0.7; stroke: #ffffff; stroke-width: 0.405818; stroke-linejoin: miter"/>
   </g>
   <g id="patch_101">
    <path d="M 913.133732 377.22375 
L 929.982203 377.22375 
L 929.982203 377.174988 
L 913.133732 377.174988 
z
" clip-path="url(#p3ec3bf3fbb)" style="fill: #003f5c; fill-opacity: 0.7; stroke: #ffffff; stroke-width: 0.405818; stroke-linejoin: miter"/>
   </g>
   <g id="patch_102">
    <path d="M 929.982203 377.22375 
L 946.830675 377.22375 
L 946.830675 377.174988 
L 929.982203 377.174988 
z
" clip-path="url(#p3ec3bf3fbb)" style="fill: #003f5c; fill-opacity: 0.7; stroke: #ffffff; stroke-width: 0.405818; stroke-linejoin: miter"/>
   </g>
   <g id="line2d_19">
    <path d="M -1 376.679004 
L 13.271817 376.712665 
L 30.630921 376.475656 
L 56.669578 376.041885 
L 74.028682 375.226624 
L 91.387786 374.93253 
L 117.426443 373.905772 
L 126.105995 373.31488 
L 134.785547 372.522344 
L 143.465099 371.207088 
L 160.824203 367.941097 
L 169.503756 365.7519 
L 178.183308 362.403942 
L 195.542412 356.305837 
L 204.221964 351.508449 
L 212.901516 344.79203 
L 230.26062 334.040572 
L 238.940173 323.504148 
L 247.619725 308.931429 
L 256.299277 288.763851 
L 264.978829 260.849034 
L 273.658381 238.87029 
L 282.337933 215.073519 
L 291.017485 165.67518 
L 299.697038 73.824034 
L 308.37659 41.627321 
L 317.056142 114.408514 
L 325.735694 177.934871 
L 334.415246 213.574914 
L 343.094798 246.741134 
L 351.77435 273.458756 
L 360.453903 291.641639 
L 369.133455 306.667979 
L 377.813007 319.726275 
L 386.492559 328.58841 
L 395.172111 335.026597 
L 403.851663 341.71301 
L 412.531215 348.06397 
L 421.210768 352.293003 
L 429.89032 355.26112 
L 438.569872 358.382777 
L 447.249424 361.21858 
L 464.608528 365.571534 
L 473.28808 367.289533 
L 490.647185 369.155626 
L 499.326737 370.480545 
L 525.365393 373.077888 
L 534.044945 373.761168 
L 560.083602 374.908732 
L 565.537187 375.258885 
L 565.537187 375.258885 
" clip-path="url(#p3ec3bf3fbb)" style="fill: none; stroke: #d45087; stroke-width: 2; stroke-linecap: round"/>
   </g>
   <g id="line2d_20">
    <path d="M 304.910625 377.22375 
L 304.910625 24.8475 
" clip-path="url(#p3ec3bf3fbb)" style="fill: none; stroke: #a0a0a0; stroke-width: 1.5; stroke-linecap: round"/>
   </g>
   <g id="line2d_21">
    <path d="M 311.080662 377.22375 
L 311.080662 24.8475 
" clip-path="url(#p3ec3bf3fbb)" style="fill: none; stroke-dasharray: 9.25,4; stroke-dashoffset: 0; stroke: #ffa600; stroke-width: 2.5"/>
   </g>
   <g id="patch_103">
    <path d="M 55.820625 377.22375 
L 55.820625 24.8475 
" style="fill: none; stroke: #262626; stroke-linejoin: miter; stroke-linecap: square"/>
   </g>
   <g id="patch_104">
    <path d="M 55.820625 377.22375 
L 554.000625 377.22375 
" style="fill: none; stroke: #262626; stroke-linejoin: miter; stroke-linecap: square"/>
   </g>
   <g id="text_21">
    <text style="font-size: 16px; font-family: 'Arial', 'DejaVu Sans', 'Liberation Sans', 'Bitstream Vera Sans', sans-serif; text-anchor: middle; fill: #262626" x="304.910625" y="18.8475" transform="rotate(-0 304.910625 18.8475)">Distribution of Directional Residuals (Pred - True)</text>
   </g>
   <g id="legend_1">
    <g id="patch_105">
     <path d="M 400.014375 51.421875 
L 545.600625 51.421875 
Q 548.000625 51.421875 548.000625 49.021875 
L 548.000625 33.2475 
Q 548.000625 30.8475 545.600625 30.8475 
L 400.014375 30.8475 
Q 397.614375 30.8475 397.614375 33.2475 
L 397.614375 49.021875 
Q 397.614375 51.421875 400.014375 51.421875 
z
" style="fill: #ffffff; opacity: 0.8; stroke: #cccccc; stroke-width: 0.8; stroke-linejoin: miter"/>
    </g>
    <g id="line2d_22">
     <path d="M 402.414375 40.036875 
L 414.414375 40.036875 
L 426.414375 40.036875 
" style="fill: none; stroke-dasharray: 9.25,4; stroke-dashoffset: 0; stroke: #ffa600; stroke-width: 2.5"/>
    </g>
    <g id="text_22">
     <text style="font-size: 12px; font-family: 'Arial', 'DejaVu Sans', 'Liberation Sans', 'Bitstream Vera Sans', sans-serif; text-anchor: start; fill: #262626" x="436.014375" y="44.236875" transform="rotate(-0 436.014375 44.236875)">Mean Bias: +0.20°C</text>
    </g>
   </g>
  </g>
 </g>
 <defs>
  <clipPath id="p3ec3bf3fbb">
   <rect x="55.820625" y="24.8475" width="498.18" height="352.37625"/>
  </clipPath>
 </defs>
</svg>
