<?xml version="1.0" encoding="utf-8" standalone="no"?>
<!DOCTYPE svg PUBLIC "-//W3C//DTD SVG 1.1//EN"
  "http://www.w3.org/Graphics/SVG/1.1/DTD/svg11.dtd">
<svg xmlns:xlink="http://www.w3.org/1999/xlink" width="564.628125pt" height="421.12725pt" viewBox="0 0 564.628125 421.12725" xmlns="http://www.w3.org/2000/svg" version="1.1">
 <metadata>
  <rdf:RDF xmlns:dc="http://purl.org/dc/elements/1.1/" xmlns:cc="http://creativecommons.org/ns#" xmlns:rdf="http://www.w3.org/1999/02/22-rdf-syntax-ns#">
   <cc:Work>
    <dc:type rdf:resource="http://purl.org/dc/dcmitype/StillImage"/>
    <dc:date>2026-05-05T23:26:37.122090</dc:date>
    <dc:format>image/svg+xml</dc:format>
    <dc:creator>
     <cc:Agent>
      <dc:title>Matplotlib v3.10.8, https://matplotlib.org/</dc:title>
     </cc:Agent>
    </dc:creator>
   </cc:Work>
  </rdf:RDF>
 </metadata>
 <defs>
  <style type="text/css">*{stroke-linejoin: round; stroke-linecap: butt}</style>
 </defs>
 <g id="figure_1">
  <g id="patch_1">
   <path d="M 0 421.12725 
L 564.628125 421.12725 
L 564.628125 0 
L 0 0 
z
" style="fill: #ffffff"/>
  </g>
  <g id="axes_1">
   <g id="patch_2">
    <path d="M 45.984375 381.6445 
L 557.428125 381.6445 
L 557.428125 24.8475 
L 45.984375 24.8475 
z
" style="fill: #ffffff"/>
   </g>
   <g id="matplotlib.axis_1">
    <g id="xtick_1">
     <g id="line2d_1">
      <defs>
       <path id="m5a7d55bfac" d="M 0 0 
L 0 4.8 
" style="stroke: #262626"/>
      </defs>
      <g>
       <use xlink:href="#m5a7d55bfac" x="173.845312" y="381.6445" style="fill: #262626; stroke: #262626"/>
      </g>
     </g>
     <g id="text_1">
      <text style="font-size: 12px; font-family: 'Arial', 'DejaVu Sans', 'Liberation Sans', 'Bitstream Vera Sans', sans-serif; fill: #262626" transform="translate(114.934687 398.533875)">First 10% of Workload</text>
      <text style="font-size: 12px; font-family: 'Arial', 'DejaVu Sans', 'Liberation Sans', 'Bitstream Vera Sans', sans-serif; fill: #262626" transform="translate(115.169062 411.401625)">(Cold Start Dynamics)</text>
     </g>
    </g>
    <g id="xtick_2">
     <g id="line2d_2">
      <g>
       <use xlink:href="#m5a7d55bfac" x="429.567187" y="381.6445" style="fill: #262626; stroke: #262626"/>
      </g>
     </g>
     <g id="text_2">
      <text style="font-size: 12px; font-family: 'Arial', 'DejaVu Sans', 'Liberation Sans', 'Bitstream Vera Sans', sans-serif; fill: #262626" transform="translate(370.979062 398.533875)">Last 10% of Workload</text>
      <text style="font-size: 12px; font-family: 'Arial', 'DejaVu Sans', 'Liberation Sans', 'Bitstream Vera Sans', sans-serif; fill: #262626" transform="translate(356.53125 411.401625)">(Steady State / Exhaustion)</text>
     </g>
    </g>
   </g>
   <g id="matplotlib.axis_2">
    <g id="ytick_1">
     <g id="line2d_3">
      <defs>
       <path id="m46a28553bd" d="M 0 0 
L -4.8 0 
" style="stroke: #262626"/>
      </defs>
      <g>
       <use xlink:href="#m46a28553bd" x="45.984375" y="365.496929" style="fill: #262626; stroke: #262626"/>
      </g>
     </g>
     <g id="text_3">
      <text style="font-size: 12px; font-family: 'Arial', 'DejaVu Sans', 'Liberation Sans', 'Bitstream Vera Sans', sans-serif; text-anchor: end; fill: #262626" x="37.684375" y="369.791617" transform="rotate(-0 37.684375 369.791617)">0</text>
     </g>
    </g>
    <g id="ytick_2">
     <g id="line2d_4">
      <g>
       <use xlink:href="#m46a28553bd" x="45.984375" y="296.424619" style="fill: #262626; stroke: #262626"/>
      </g>
     </g>
     <g id="text_4">
      <text style="font-size: 12px; font-family: 'Arial', 'DejaVu Sans', 'Liberation Sans', 'Bitstream Vera Sans', sans-serif; text-anchor: end; fill: #262626" x="37.684375" y="300.719307" transform="rotate(-0 37.684375 300.719307)">5</text>
     </g>
    </g>
    <g id="ytick_3">
     <g id="line2d_5">
      <g>
       <use xlink:href="#m46a28553bd" x="45.984375" y="227.352309" style="fill: #262626; stroke: #262626"/>
      </g>
     </g>
     <g id="text_5">
      <text style="font-size: 12px; font-family: 'Arial', 'DejaVu Sans', 'Liberation Sans', 'Bitstream Vera Sans', sans-serif; text-anchor: end; fill: #262626" x="37.684375" y="231.646997" transform="rotate(-0 37.684375 231.646997)">10</text>
     </g>
    </g>
    <g id="ytick_4">
     <g id="line2d_6">
      <g>
       <use xlink:href="#m46a28553bd" x="45.984375" y="158.279999" style="fill: #262626; stroke: #262626"/>
      </g>
     </g>
     <g id="text_6">
      <text style="font-size: 12px; font-family: 'Arial', 'DejaVu Sans', 'Liberation Sans', 'Bitstream Vera Sans', sans-serif; text-anchor: end; fill: #262626" x="37.684375" y="162.574687" transform="rotate(-0 37.684375 162.574687)">15</text>
     </g>
    </g>
    <g id="ytick_5">
     <g id="line2d_7">
      <g>
       <use xlink:href="#m46a28553bd" x="45.984375" y="89.207689" style="fill: #262626; stroke: #262626"/>
      </g>
     </g>
     <g id="text_7">
      <text style="font-size: 12px; font-family: 'Arial', 'DejaVu Sans', 'Liberation Sans', 'Bitstream Vera Sans', sans-serif; text-anchor: end; fill: #262626" x="37.684375" y="93.502377" transform="rotate(-0 37.684375 93.502377)">20</text>
     </g>
    </g>
    <g id="text_8">
     <text style="font-size: 14px; font-family: 'Arial', 'DejaVu Sans', 'Liberation Sans', 'Bitstream Vera Sans', sans-serif; text-anchor: middle; fill: #262626" x="17.391563" y="203.246" transform="rotate(-90 17.391563 203.246)">Job-level RMSE (°C)</text>
    </g>
   </g>
   <g id="FillBetweenPolyCollection_1">
    <defs>
     <path id="m086a900b57" d="M 237.379089 -55.700795 
L 110.311536 -55.700795 
L 99.134743 -58.977168 
L 89.126956 -62.253541 
L 80.975891 -65.529914 
L 75.187972 -68.806287 
L 72.038327 -72.08266 
L 71.556562 -75.359032 
L 73.542942 -78.635405 
L 77.608473 -81.911778 
L 83.233213 -85.188151 
L 89.83636 -88.464524 
L 96.848771 -91.740896 
L 103.775929 -95.017269 
L 110.240137 -98.293642 
L 115.995909 -101.570015 
L 120.920223 -104.846388 
L 124.985952 -108.122761 
L 128.229666 -111.399133 
L 130.723458 -114.675506 
L 132.556018 -117.951879 
L 133.823387 -121.228252 
L 134.626485 -124.504625 
L 135.071557 -127.780997 
L 135.270432 -131.05737 
L 135.339051 -134.333743 
L 135.393864 -137.610116 
L 135.546259 -140.886489 
L 135.895291 -144.162862 
L 136.519271 -147.439234 
L 137.467437 -150.715607 
L 138.753728 -153.99198 
L 140.354946 -157.268353 
L 142.214868 -160.544726 
L 144.254324 -163.821098 
L 146.385401 -167.097471 
L 148.52663 -170.373844 
L 150.615541 -173.650217 
L 152.615512 -176.92659 
L 154.515197 -180.202963 
L 156.320857 -183.479335 
L 158.044171 -186.755708 
L 159.689958 -190.032081 
L 161.248562 -193.308454 
L 162.696079 -196.584827 
L 164.002308 -199.861199 
L 165.142841 -203.137572 
L 166.109774 -206.413945 
L 166.916197 -209.690318 
L 167.592673 -212.966691 
L 168.177664 -216.243064 
L 168.706353 -219.519436 
L 169.202489 -222.795809 
L 169.675786 -226.072182 
L 170.124532 -229.348555 
L 170.540849 -232.624928 
L 170.915589 -235.901301 
L 171.240902 -239.177673 
L 171.510371 -242.454046 
L 171.718069 -245.730419 
L 171.858323 -249.006792 
L 171.927301 -252.283165 
L 171.926246 -255.559537 
L 171.864929 -258.83591 
L 171.763374 -262.112283 
L 171.650337 -265.388656 
L 171.558265 -268.665029 
L 171.515982 -271.941402 
L 171.541441 -275.217774 
L 171.637016 -278.494147 
L 171.788902 -281.77052 
L 171.970735 -285.046893 
L 172.150145 -288.323266 
L 172.296236 -291.599638 
L 172.386181 -294.876011 
L 172.409666 -298.152384 
L 172.370684 -301.428757 
L 172.286559 -304.70513 
L 172.184388 -307.981503 
L 172.095446 -311.257875 
L 172.048566 -314.534248 
L 172.064058 -317.810621 
L 172.149762 -321.086994 
L 172.300294 -324.363367 
L 172.499514 -327.639739 
L 172.72519 -330.916112 
L 172.95424 -334.192485 
L 173.167028 -337.468858 
L 173.349817 -340.745231 
L 173.495255 -344.021604 
L 173.601388 -347.297976 
L 173.669983 -350.574349 
L 173.704879 -353.850722 
L 173.710883 -357.127095 
L 173.693347 -360.403468 
L 173.658299 -363.67984 
L 173.61273 -366.956213 
L 173.5646 -370.232586 
L 173.522265 -373.508959 
L 173.493315 -376.785332 
L 173.48315 -380.061705 
L 174.207475 -380.061705 
L 174.207475 -380.061705 
L 174.19731 -376.785332 
L 174.16836 -373.508959 
L 174.126025 -370.232586 
L 174.077895 -366.956213 
L 174.032326 -363.67984 
L 173.997278 -360.403468 
L 173.979742 -357.127095 
L 173.985746 -353.850722 
L 174.020642 -350.574349 
L 174.089237 -347.297976 
L 174.19537 -344.021604 
L 174.340808 -340.745231 
L 174.523597 -337.468858 
L 174.736385 -334.192485 
L 174.965435 -330.916112 
L 175.191111 -327.639739 
L 175.390331 -324.363367 
L 175.540863 -321.086994 
L 175.626567 -317.810621 
L 175.642059 -314.534248 
L 175.595179 -311.257875 
L 175.506237 -307.981503 
L 175.404066 -304.70513 
L 175.319941 -301.428757 
L 175.280959 -298.152384 
L 175.304444 -294.876011 
L 175.394389 -291.599638 
L 175.54048 -288.323266 
L 175.71989 -285.046893 
L 175.901723 -281.77052 
L 176.053609 -278.494147 
L 176.149184 -275.217774 
L 176.174643 -271.941402 
L 176.13236 -268.665029 
L 176.040288 -265.388656 
L 175.927251 -262.112283 
L 175.825696 -258.83591 
L 175.764379 -255.559537 
L 175.763324 -252.283165 
L 175.832302 -249.006792 
L 175.972556 -245.730419 
L 176.180254 -242.454046 
L 176.449723 -239.177673 
L 176.775036 -235.901301 
L 177.149776 -232.624928 
L 177.566093 -229.348555 
L 178.014839 -226.072182 
L 178.488136 -222.795809 
L 178.984272 -219.519436 
L 179.512961 -216.243064 
L 180.097952 -212.966691 
L 180.774428 -209.690318 
L 181.580851 -206.413945 
L 182.547784 -203.137572 
L 183.688317 -199.861199 
L 184.994546 -196.584827 
L 186.442063 -193.308454 
L 188.000667 -190.032081 
L 189.646454 -186.755708 
L 191.369768 -183.479335 
L 193.175428 -180.202963 
L 195.075113 -176.92659 
L 197.075084 -173.650217 
L 199.163995 -170.373844 
L 201.305224 -167.097471 
L 203.436301 -163.821098 
L 205.475757 -160.544726 
L 207.335679 -157.268353 
L 208.936897 -153.99198 
L 210.223188 -150.715607 
L 211.171354 -147.439234 
L 211.795334 -144.162862 
L 212.144366 -140.886489 
L 212.296761 -137.610116 
L 212.351574 -134.333743 
L 212.420193 -131.05737 
L 212.619068 -127.780997 
L 213.06414 -124.504625 
L 213.867238 -121.228252 
L 215.134607 -117.951879 
L 216.967167 -114.675506 
L 219.460959 -111.399133 
L 222.704673 -108.122761 
L 226.770402 -104.846388 
L 231.694716 -101.570015 
L 237.450488 -98.293642 
L 243.914696 -95.017269 
L 250.841854 -91.740896 
L 257.854265 -88.464524 
L 264.457412 -85.188151 
L 270.082152 -81.911778 
L 274.147683 -78.635405 
L 276.134062 -75.359032 
L 275.652298 -72.08266 
L 272.502653 -68.806287 
L 266.714734 -65.529914 
L 258.563669 -62.253541 
L 248.555882 -58.977168 
L 237.379089 -55.700795 
z
" style="stroke: #1c1c1c; stroke-opacity: 0.8"/>
    </defs>
    <g clip-path="url(#pe6e4fafb2d)">
     <use xlink:href="#m086a900b57" x="0" y="421.12725" style="fill: #0c3b50; fill-opacity: 0.8; stroke: #1c1c1c; stroke-opacity: 0.8"/>
    </g>
   </g>
   <g id="FillBetweenPolyCollection_2">
    <defs>
     <path id="md27762ee22" d="M 491.255758 -56.375291 
L 367.878617 -56.375291 
L 354.061529 -58.917648 
L 342.124751 -61.460006 
L 333.327881 -64.002363 
L 328.370323 -66.54472 
L 327.278437 -69.087077 
L 329.503703 -71.629435 
L 334.16757 -74.171792 
L 340.338997 -76.714149 
L 347.242041 -79.256506 
L 354.345027 -81.798864 
L 361.343003 -84.341221 
L 368.081879 -86.883578 
L 374.476987 -89.425936 
L 380.460278 -91.968293 
L 385.964958 -94.51065 
L 390.936938 -97.053007 
L 395.354486 -99.595365 
L 399.239896 -102.137722 
L 402.655491 -104.680079 
L 405.685693 -107.222436 
L 408.413347 -109.764794 
L 410.900032 -112.307151 
L 413.177087 -114.849508 
L 415.248772 -117.391866 
L 417.104015 -119.934223 
L 418.730641 -122.47658 
L 420.126295 -125.018937 
L 421.302886 -127.561295 
L 422.284673 -130.103652 
L 423.102545 -132.646009 
L 423.787566 -135.188367 
L 424.365741 -137.730724 
L 424.854464 -140.273081 
L 425.260553 -142.815438 
L 425.580119 -145.357796 
L 425.800919 -147.900153 
L 425.907338 -150.44251 
L 425.886889 -152.984867 
L 425.736266 -155.527225 
L 425.465139 -158.069582 
L 425.097062 -160.611939 
L 424.668018 -163.154297 
L 424.223517 -165.696654 
L 423.814779 -168.239011 
L 423.493973 -170.781368 
L 423.308471 -173.323726 
L 423.294448 -175.866083 
L 423.470716 -178.40844 
L 423.834062 -180.950797 
L 424.357577 -183.493155 
L 424.993436 -186.035512 
L 425.680787 -188.577869 
L 426.357581 -191.120227 
L 426.972977 -193.662584 
L 427.495849 -196.204941 
L 427.916259 -198.747298 
L 428.240033 -201.289656 
L 428.480045 -203.832013 
L 428.649061 -206.37437 
L 428.757298 -208.916727 
L 428.814396 -211.459085 
L 428.832582 -214.001442 
L 428.82748 -216.543799 
L 428.815171 -219.086157 
L 428.807286 -221.628514 
L 428.807648 -224.170871 
L 428.813144 -226.713228 
L 428.818609 -229.255586 
L 428.822684 -231.797943 
L 428.830802 -234.3403 
L 428.853369 -236.882657 
L 428.900294 -239.425015 
L 428.975317 -241.967372 
L 429.073463 -244.509729 
L 429.182792 -247.052087 
L 429.289066 -249.594444 
L 429.380597 -252.136801 
L 429.451064 -254.679158 
L 429.4996 -257.221516 
L 429.528927 -259.763873 
L 429.542872 -262.30623 
L 429.544375 -264.848587 
L 429.534488 -267.390945 
L 429.512414 -269.933302 
L 429.47638 -272.475659 
L 429.425039 -275.018017 
L 429.358935 -277.560374 
L 429.281499 -280.102731 
L 429.199059 -282.645088 
L 429.119721 -285.187446 
L 429.051478 -287.729803 
L 429.000286 -290.27216 
L 428.968918 -292.814518 
L 428.957019 -295.356875 
L 428.962257 -297.899232 
L 428.981929 -300.441589 
L 429.01421 -302.983947 
L 429.058381 -305.526304 
L 429.113973 -308.068661 
L 430.020402 -308.068661 
L 430.020402 -308.068661 
L 430.075994 -305.526304 
L 430.120165 -302.983947 
L 430.152446 -300.441589 
L 430.172118 -297.899232 
L 430.177356 -295.356875 
L 430.165457 -292.814518 
L 430.134089 -290.27216 
L 430.082897 -287.729803 
L 430.014654 -285.187446 
L 429.935316 -282.645088 
L 429.852876 -280.102731 
L 429.77544 -277.560374 
L 429.709336 -275.018017 
L 429.657995 -272.475659 
L 429.621961 -269.933302 
L 429.599887 -267.390945 
L 429.59 -264.848587 
L 429.591503 -262.30623 
L 429.605448 -259.763873 
L 429.634775 -257.221516 
L 429.683311 -254.679158 
L 429.753778 -252.136801 
L 429.845309 -249.594444 
L 429.951583 -247.052087 
L 430.060912 -244.509729 
L 430.159058 -241.967372 
L 430.234081 -239.425015 
L 430.281006 -236.882657 
L 430.303573 -234.3403 
L 430.311691 -231.797943 
L 430.315766 -229.255586 
L 430.321231 -226.713228 
L 430.326727 -224.170871 
L 430.327089 -221.628514 
L 430.319204 -219.086157 
L 430.306895 -216.543799 
L 430.301793 -214.001442 
L 430.319979 -211.459085 
L 430.377077 -208.916727 
L 430.485314 -206.37437 
L 430.65433 -203.832013 
L 430.894342 -201.289656 
L 431.218116 -198.747298 
L 431.638526 -196.204941 
L 432.161398 -193.662584 
L 432.776794 -191.120227 
L 433.453588 -188.577869 
L 434.140939 -186.035512 
L 434.776798 -183.493155 
L 435.300313 -180.950797 
L 435.663659 -178.40844 
L 435.839927 -175.866083 
L 435.825904 -173.323726 
L 435.640402 -170.781368 
L 435.319596 -168.239011 
L 434.910858 -165.696654 
L 434.466357 -163.154297 
L 434.037313 -160.611939 
L 433.669236 -158.069582 
L 433.398109 -155.527225 
L 433.247486 -152.984867 
L 433.227037 -150.44251 
L 433.333456 -147.900153 
L 433.554256 -145.357796 
L 433.873822 -142.815438 
L 434.279911 -140.273081 
L 434.768634 -137.730724 
L 435.346809 -135.188367 
L 436.03183 -132.646009 
L 436.849702 -130.103652 
L 437.831489 -127.561295 
L 439.00808 -125.018937 
L 440.403734 -122.47658 
L 442.03036 -119.934223 
L 443.885603 -117.391866 
L 445.957288 -114.849508 
L 448.234343 -112.307151 
L 450.721028 -109.764794 
L 453.448682 -107.222436 
L 456.478884 -104.680079 
L 459.894479 -102.137722 
L 463.779889 -99.595365 
L 468.197437 -97.053007 
L 473.169417 -94.51065 
L 478.674097 -91.968293 
L 484.657388 -89.425936 
L 491.052496 -86.883578 
L 497.791372 -84.341221 
L 504.789348 -81.798864 
L 511.892334 -79.256506 
L 518.795378 -76.714149 
L 524.966805 -74.171792 
L 529.630672 -71.629435 
L 531.855937 -69.087077 
L 530.764052 -66.54472 
L 525.806494 -64.002363 
L 517.009624 -61.460006 
L 505.072846 -58.917648 
L 491.255758 -56.375291 
z
" style="stroke: #1c1c1c; stroke-opacity: 0.8"/>
    </defs>
    <g clip-path="url(#pe6e4fafb2d)">
     <use xlink:href="#md27762ee22" x="0" y="421.12725" style="fill: #c3608a; fill-opacity: 0.8; stroke: #1c1c1c; stroke-opacity: 0.8"/>
    </g>
   </g>
   <g id="line2d_8">
    <path d="M 173.845312 365.426455 
L 173.845312 188.866466 
" clip-path="url(#pe6e4fafb2d)" style="fill: none; stroke: #1c1c1c; stroke-width: 1.5; stroke-linecap: round"/>
   </g>
   <g id="line2d_9">
    <path d="M 173.845312 348.515527 
L 173.845312 284.374166 
" clip-path="url(#pe6e4fafb2d)" style="fill: none; stroke: #1c1c1c; stroke-width: 4.5; stroke-linecap: round"/>
   </g>
   <g id="line2d_10">
    <path d="M 173.845312 331.080375 
" clip-path="url(#pe6e4fafb2d)" style="fill: none; stroke: #1c1c1c; stroke-width: 1.2; stroke-linecap: round"/>
    <defs>
     <path id="m6f9c3dd064" d="M 1.875 0 
L -1.875 -0 
" style="stroke: #ffffff; stroke-width: 0.9"/>
    </defs>
    <g clip-path="url(#pe6e4fafb2d)">
     <use xlink:href="#m6f9c3dd064" x="173.845312" y="331.080375" style="fill: #ffffff; stroke: #ffffff; stroke-width: 0.9"/>
    </g>
   </g>
   <g id="line2d_11">
    <path d="M 429.567187 364.751959 
L 429.567187 290.048478 
" clip-path="url(#pe6e4fafb2d)" style="fill: none; stroke: #1c1c1c; stroke-width: 1.5; stroke-linecap: round"/>
   </g>
   <g id="line2d_12">
    <path d="M 429.567187 355.954083 
L 429.567187 329.373824 
" clip-path="url(#pe6e4fafb2d)" style="fill: none; stroke: #1c1c1c; stroke-width: 4.5; stroke-linecap: round"/>
   </g>
   <g id="line2d_13">
    <path d="M 429.567187 345.927891 
" clip-path="url(#pe6e4fafb2d)" style="fill: none; stroke: #1c1c1c; stroke-width: 1.2; stroke-linecap: round"/>
    <g clip-path="url(#pe6e4fafb2d)">
     <use xlink:href="#m6f9c3dd064" x="429.567187" y="345.927891" style="fill: #ffffff; stroke: #ffffff; stroke-width: 0.9"/>
    </g>
   </g>
   <g id="patch_3">
    <path d="M 45.984375 381.6445 
L 45.984375 24.8475 
" style="fill: none; stroke: #262626; stroke-linejoin: miter; stroke-linecap: square"/>
   </g>
   <g id="patch_4">
    <path d="M 45.984375 381.6445 
L 557.428125 381.6445 
" style="fill: none; stroke: #262626; stroke-linejoin: miter; stroke-linecap: square"/>
   </g>
   <g id="text_9">
    <text style="font-size: 16px; font-family: 'Arial', 'DejaVu Sans', 'Liberation Sans', 'Bitstream Vera Sans', sans-serif; text-anchor: middle; fill: #262626" x="301.70625" y="18.8475" transform="rotate(-0 301.70625 18.8475)">Integration Stability: Early vs. Late Horizon Error</text>
   </g>
  </g>
 </g>
 <defs>
  <clipPath id="pe6e4fafb2d">
   <rect x="45.984375" y="24.8475" width="511.44375" height="356.797"/>
  </clipPath>
 </defs>
</svg>
