<?xml version="1.0" encoding="utf-8" standalone="no"?>
<!DOCTYPE svg PUBLIC "-//W3C//DTD SVG 1.1//EN"
  "http://www.w3.org/Graphics/SVG/1.1/DTD/svg11.dtd">
<svg xmlns:xlink="http://www.w3.org/1999/xlink" width="564.530625pt" height="420.64125pt" viewBox="0 0 564.530625 420.64125" xmlns="http://www.w3.org/2000/svg" version="1.1">
 <metadata>
  <rdf:RDF xmlns:dc="http://purl.org/dc/elements/1.1/" xmlns:cc="http://creativecommons.org/ns#" xmlns:rdf="http://www.w3.org/1999/02/22-rdf-syntax-ns#">
   <cc:Work>
    <dc:type rdf:resource="http://purl.org/dc/dcmitype/StillImage"/>
    <dc:date>2026-05-05T23:27:41.173929</dc:date>
    <dc:format>image/svg+xml</dc:format>
    <dc:creator>
     <cc:Agent>
      <dc:title>Matplotlib v3.10.8, https://matplotlib.org/</dc:title>
     </cc:Agent>
    </dc:creator>
   </cc:Work>
  </rdf:RDF>
 </metadata>
 <defs>
  <style type="text/css">*{stroke-linejoin: round; stroke-linecap: butt}</style>
 </defs>
 <g id="figure_1">
  <g id="patch_1">
   <path d="M 0 420.64125 
L 564.530625 420.64125 
L 564.530625 0 
L 0 0 
z
" style="fill: #ffffff"/>
  </g>
  <g id="axes_1">
   <g id="patch_2">
    <path d="M 55.820625 377.02875 
L 557.330625 377.02875 
L 557.330625 24.6525 
L 55.820625 24.6525 
z
" style="fill: #ffffff"/>
   </g>
   <g id="matplotlib.axis_1">
    <g id="xtick_1">
     <g id="line2d_1">
      <defs>
       <path id="m3ee9af5284" d="M 0 0 
L 0 4.8 
" style="stroke: #262626"/>
      </defs>
      <g>
       <use xlink:href="#m3ee9af5284" x="105.971625" y="377.02875" style="fill: #262626; stroke: #262626"/>
      </g>
     </g>
     <g id="text_1">
      <text style="font-size: 12px; font-family: 'Arial', 'DejaVu Sans', 'Liberation Sans', 'Bitstream Vera Sans', sans-serif; text-anchor: middle; fill: #262626" x="105.971625" y="393.918125" transform="rotate(-0 105.971625 393.918125)">−4</text>
     </g>
    </g>
    <g id="xtick_2">
     <g id="line2d_2">
      <g>
       <use xlink:href="#m3ee9af5284" x="206.273625" y="377.02875" style="fill: #262626; stroke: #262626"/>
      </g>
     </g>
     <g id="text_2">
      <text style="font-size: 12px; font-family: 'Arial', 'DejaVu Sans', 'Liberation Sans', 'Bitstream Vera Sans', sans-serif; text-anchor: middle; fill: #262626" x="206.273625" y="393.918125" transform="rotate(-0 206.273625 393.918125)">−2</text>
     </g>
    </g>
    <g id="xtick_3">
     <g id="line2d_3">
      <g>
       <use xlink:href="#m3ee9af5284" x="306.575625" y="377.02875" style="fill: #262626; stroke: #262626"/>
      </g>
     </g>
     <g id="text_3">
      <text style="font-size: 12px; font-family: 'Arial', 'DejaVu Sans', 'Liberation Sans', 'Bitstream Vera Sans', sans-serif; text-anchor: middle; fill: #262626" x="306.575625" y="393.918125" transform="rotate(-0 306.575625 393.918125)">0</text>
     </g>
    </g>
    <g id="xtick_4">
     <g id="line2d_4">
      <g>
       <use xlink:href="#m3ee9af5284" x="406.877625" y="377.02875" style="fill: #262626; stroke: #262626"/>
      </g>
     </g>
     <g id="text_4">
      <text style="font-size: 12px; font-family: 'Arial', 'DejaVu Sans', 'Liberation Sans', 'Bitstream Vera Sans', sans-serif; text-anchor: middle; fill: #262626" x="406.877625" y="393.918125" transform="rotate(-0 406.877625 393.918125)">2</text>
     </g>
    </g>
    <g id="xtick_5">
     <g id="line2d_5">
      <g>
       <use xlink:href="#m3ee9af5284" x="507.179625" y="377.02875" style="fill: #262626; stroke: #262626"/>
      </g>
     </g>
     <g id="text_5">
      <text style="font-size: 12px; font-family: 'Arial', 'DejaVu Sans', 'Liberation Sans', 'Bitstream Vera Sans', sans-serif; text-anchor: middle; fill: #262626" x="507.179625" y="393.918125" transform="rotate(-0 507.179625 393.918125)">4</text>
     </g>
    </g>
    <g id="text_6">
     <text style="font-size: 14px; font-family: 'Arial', 'DejaVu Sans', 'Liberation Sans', 'Bitstream Vera Sans', sans-serif; text-anchor: middle; fill: #262626" x="306.575625" y="410.494687" transform="rotate(-0 306.575625 410.494687)">Directional Residual Error (°C)</text>
    </g>
   </g>
   <g id="matplotlib.axis_2">
    <g id="ytick_1">
     <g id="line2d_6">
      <defs>
       <path id="m97ccda3982" d="M 0 0 
L -4.8 0 
" style="stroke: #262626"/>
      </defs>
      <g>
       <use xlink:href="#m97ccda3982" x="55.820625" y="377.02875" style="fill: #262626; stroke: #262626"/>
      </g>
     </g>
     <g id="text_7">
      <text style="font-size: 12px; font-family: 'Arial', 'DejaVu Sans', 'Liberation Sans', 'Bitstream Vera Sans', sans-serif; text-anchor: end; fill: #262626" x="47.520625" y="381.323437" transform="rotate(-0 47.520625 381.323437)">0.00</text>
     </g>
    </g>
    <g id="ytick_2">
     <g id="line2d_7">
      <g>
       <use xlink:href="#m97ccda3982" x="55.820625" y="328.326488" style="fill: #262626; stroke: #262626"/>
      </g>
     </g>
     <g id="text_8">
      <text style="font-size: 12px; font-family: 'Arial', 'DejaVu Sans', 'Liberation Sans', 'Bitstream Vera Sans', sans-serif; text-anchor: end; fill: #262626" x="47.520625" y="332.621176" transform="rotate(-0 47.520625 332.621176)">0.05</text>
     </g>
    </g>
    <g id="ytick_3">
     <g id="line2d_8">
      <g>
       <use xlink:href="#m97ccda3982" x="55.820625" y="279.624226" style="fill: #262626; stroke: #262626"/>
      </g>
     </g>
     <g id="text_9">
      <text style="font-size: 12px; font-family: 'Arial', 'DejaVu Sans', 'Liberation Sans', 'Bitstream Vera Sans', sans-serif; text-anchor: end; fill: #262626" x="47.520625" y="283.918914" transform="rotate(-0 47.520625 283.918914)">0.10</text>
     </g>
    </g>
    <g id="ytick_4">
     <g id="line2d_9">
      <g>
       <use xlink:href="#m97ccda3982" x="55.820625" y="230.921964" style="fill: #262626; stroke: #262626"/>
      </g>
     </g>
     <g id="text_10">
      <text style="font-size: 12px; font-family: 'Arial', 'DejaVu Sans', 'Liberation Sans', 'Bitstream Vera Sans', sans-serif; text-anchor: end; fill: #262626" x="47.520625" y="235.216652" transform="rotate(-0 47.520625 235.216652)">0.15</text>
     </g>
    </g>
    <g id="ytick_5">
     <g id="line2d_10">
      <g>
       <use xlink:href="#m97ccda3982" x="55.820625" y="182.219702" style="fill: #262626; stroke: #262626"/>
      </g>
     </g>
     <g id="text_11">
      <text style="font-size: 12px; font-family: 'Arial', 'DejaVu Sans', 'Liberation Sans', 'Bitstream Vera Sans', sans-serif; text-anchor: end; fill: #262626" x="47.520625" y="186.51439" transform="rotate(-0 47.520625 186.51439)">0.20</text>
     </g>
    </g>
    <g id="ytick_6">
     <g id="line2d_11">
      <g>
       <use xlink:href="#m97ccda3982" x="55.820625" y="133.51744" style="fill: #262626; stroke: #262626"/>
      </g>
     </g>
     <g id="text_12">
      <text style="font-size: 12px; font-family: 'Arial', 'DejaVu Sans', 'Liberation Sans', 'Bitstream Vera Sans', sans-serif; text-anchor: end; fill: #262626" x="47.520625" y="137.812128" transform="rotate(-0 47.520625 137.812128)">0.25</text>
     </g>
    </g>
    <g id="ytick_7">
     <g id="line2d_12">
      <g>
       <use xlink:href="#m97ccda3982" x="55.820625" y="84.815178" style="fill: #262626; stroke: #262626"/>
      </g>
     </g>
     <g id="text_13">
      <text style="font-size: 12px; font-family: 'Arial', 'DejaVu Sans', 'Liberation Sans', 'Bitstream Vera Sans', sans-serif; text-anchor: end; fill: #262626" x="47.520625" y="89.109866" transform="rotate(-0 47.520625 89.109866)">0.30</text>
     </g>
    </g>
    <g id="ytick_8">
     <g id="line2d_13">
      <g>
       <use xlink:href="#m97ccda3982" x="55.820625" y="36.112916" style="fill: #262626; stroke: #262626"/>
      </g>
     </g>
     <g id="text_14">
      <text style="font-size: 12px; font-family: 'Arial', 'DejaVu Sans', 'Liberation Sans', 'Bitstream Vera Sans', sans-serif; text-anchor: end; fill: #262626" x="47.520625" y="40.407604" transform="rotate(-0 47.520625 40.407604)">0.35</text>
     </g>
    </g>
    <g id="text_15">
     <text style="font-size: 14px; font-family: 'Arial', 'DejaVu Sans', 'Liberation Sans', 'Bitstream Vera Sans', sans-serif; text-anchor: middle; fill: #262626" x="17.220938" y="200.840625" transform="rotate(-90 17.220938 200.840625)">Density</text>
    </g>
   </g>
   <g id="FillBetweenPolyCollection_1">
    <path d="M -1243.911741 377.028637 
L -1243.911741 377.02875 
L -1229.702431 377.02875 
L -1215.493121 377.02875 
L -1201.283811 377.02875 
L -1187.074501 377.02875 
L -1172.865191 377.02875 
L -1158.655881 377.02875 
L -1144.446571 377.02875 
L -1130.237261 377.02875 
L -1116.027951 377.02875 
L -1101.818641 377.02875 
L -1087.609331 377.02875 
L -1073.400021 377.02875 
L -1059.19071 377.02875 
L -1044.9814 377.02875 
L -1030.77209 377.02875 
L -1016.56278 377.02875 
L -1002.35347 377.02875 
L -988.14416 377.02875 
L -973.93485 377.02875 
L -959.72554 377.02875 
L -945.51623 377.02875 
L -931.30692 377.02875 
L -917.09761 377.02875 
L -902.8883 377.02875 
L -888.67899 377.02875 
L -874.46968 377.02875 
L -860.26037 377.02875 
L -846.05106 377.02875 
L -831.84175 377.02875 
L -817.63244 377.02875 
L -803.42313 377.02875 
L -789.213819 377.02875 
L -775.004509 377.02875 
L -760.795199 377.02875 
L -746.585889 377.02875 
L -732.376579 377.02875 
L -718.167269 377.02875 
L -703.957959 377.02875 
L -689.748649 377.02875 
L -675.539339 377.02875 
L -661.330029 377.02875 
L -647.120719 377.02875 
L -632.911409 377.02875 
L -618.702099 377.02875 
L -604.492789 377.02875 
L -590.283479 377.02875 
L -576.074169 377.02875 
L -561.864859 377.02875 
L -547.655549 377.02875 
L -533.446239 377.02875 
L -519.236928 377.02875 
L -505.027618 377.02875 
L -490.818308 377.02875 
L -476.608998 377.02875 
L -462.399688 377.02875 
L -448.190378 377.02875 
L -433.981068 377.02875 
L -419.771758 377.02875 
L -405.562448 377.02875 
L -391.353138 377.02875 
L -377.143828 377.02875 
L -362.934518 377.02875 
L -348.725208 377.02875 
L -334.515898 377.02875 
L -320.306588 377.02875 
L -306.097278 377.02875 
L -291.887968 377.02875 
L -277.678658 377.02875 
L -263.469347 377.02875 
L -249.260037 377.02875 
L -235.050727 377.02875 
L -220.841417 377.02875 
L -206.632107 377.02875 
L -192.422797 377.02875 
L -178.213487 377.02875 
L -164.004177 377.02875 
L -149.794867 377.02875 
L -135.585557 377.02875 
L -121.376247 377.02875 
L -107.166937 377.02875 
L -92.957627 377.02875 
L -78.748317 377.02875 
L -64.539007 377.02875 
L -50.329697 377.02875 
L -36.120387 377.02875 
L -21.911077 377.02875 
L -7.701767 377.02875 
L 6.507544 377.02875 
L 20.716854 377.02875 
L 34.926164 377.02875 
L 49.135474 377.02875 
L 63.344784 377.02875 
L 77.554094 377.02875 
L 91.763404 377.02875 
L 105.972714 377.02875 
L 120.182024 377.02875 
L 134.391334 377.02875 
L 148.600644 377.02875 
L 162.809954 377.02875 
L 177.019264 377.02875 
L 191.228574 377.02875 
L 205.437884 377.02875 
L 219.647194 377.02875 
L 233.856504 377.02875 
L 248.065814 377.02875 
L 262.275124 377.02875 
L 276.484435 377.02875 
L 290.693745 377.02875 
L 304.903055 377.02875 
L 319.112365 377.02875 
L 333.321675 377.02875 
L 347.530985 377.02875 
L 361.740295 377.02875 
L 375.949605 377.02875 
L 390.158915 377.02875 
L 404.368225 377.02875 
L 418.577535 377.02875 
L 432.786845 377.02875 
L 446.996155 377.02875 
L 461.205465 377.02875 
L 475.414775 377.02875 
L 489.624085 377.02875 
L 503.833395 377.02875 
L 518.042705 377.02875 
L 532.252016 377.02875 
L 546.461326 377.02875 
L 560.670636 377.02875 
L 574.879946 377.02875 
L 589.089256 377.02875 
L 603.298566 377.02875 
L 617.507876 377.02875 
L 631.717186 377.02875 
L 645.926496 377.02875 
L 660.135806 377.02875 
L 674.345116 377.02875 
L 688.554426 377.02875 
L 702.763736 377.02875 
L 716.973046 377.02875 
L 731.182356 377.02875 
L 745.391666 377.02875 
L 759.600976 377.02875 
L 773.810286 377.02875 
L 788.019596 377.02875 
L 802.228907 377.02875 
L 816.438217 377.02875 
L 830.647527 377.02875 
L 844.856837 377.02875 
L 859.066147 377.02875 
L 873.275457 377.02875 
L 887.484767 377.02875 
L 901.694077 377.02875 
L 915.903387 377.02875 
L 930.112697 377.02875 
L 944.322007 377.02875 
L 958.531317 377.02875 
L 972.740627 377.02875 
L 986.949937 377.02875 
L 1001.159247 377.02875 
L 1015.368557 377.02875 
L 1029.577867 377.02875 
L 1043.787177 377.02875 
L 1057.996488 377.02875 
L 1072.205798 377.02875 
L 1086.415108 377.02875 
L 1100.624418 377.02875 
L 1114.833728 377.02875 
L 1129.043038 377.02875 
L 1143.252348 377.02875 
L 1157.461658 377.02875 
L 1171.670968 377.02875 
L 1185.880278 377.02875 
L 1200.089588 377.02875 
L 1214.298898 377.02875 
L 1228.508208 377.02875 
L 1242.717518 377.02875 
L 1256.926828 377.02875 
L 1271.136138 377.02875 
L 1285.345448 377.02875 
L 1299.554758 377.02875 
L 1313.764068 377.02875 
L 1327.973379 377.02875 
L 1342.182689 377.02875 
L 1356.391999 377.02875 
L 1370.601309 377.02875 
L 1384.810619 377.02875 
L 1399.019929 377.02875 
L 1413.229239 377.02875 
L 1427.438549 377.02875 
L 1441.647859 377.02875 
L 1455.857169 377.02875 
L 1470.066479 377.02875 
L 1484.275789 377.02875 
L 1498.485099 377.02875 
L 1512.694409 377.02875 
L 1526.903719 377.02875 
L 1541.113029 377.02875 
L 1555.322339 377.02875 
L 1569.531649 377.02875 
L 1583.740959 377.02875 
L 1583.740959 377.02858 
L 1583.740959 377.02858 
L 1569.531649 377.027071 
L 1555.322339 377.019096 
L 1541.113029 376.994914 
L 1526.903719 376.950422 
L 1512.694409 376.894248 
L 1498.485099 376.842357 
L 1484.275789 376.826888 
L 1470.066479 376.873893 
L 1455.857169 376.947406 
L 1441.647859 376.990064 
L 1427.438549 376.996691 
L 1413.229239 376.991332 
L 1399.019929 376.986334 
L 1384.810619 376.972807 
L 1370.601309 376.922619 
L 1356.391999 376.824733 
L 1342.182689 376.727149 
L 1327.973379 376.669224 
L 1313.764068 376.63072 
L 1299.554758 376.6106 
L 1285.345448 376.62378 
L 1271.136138 376.663216 
L 1256.926828 376.705287 
L 1242.717518 376.717515 
L 1228.508208 376.653849 
L 1214.298898 376.491759 
L 1200.089588 376.355268 
L 1185.880278 376.322275 
L 1171.670968 376.276765 
L 1157.461658 376.222129 
L 1143.252348 376.14017 
L 1129.043038 375.862856 
L 1114.833728 375.592665 
L 1100.624418 375.605288 
L 1086.415108 375.650113 
L 1072.205798 375.527064 
L 1057.996488 375.419389 
L 1043.787177 375.352938 
L 1029.577867 375.235018 
L 1015.368557 375.255113 
L 1001.159247 375.448988 
L 986.949937 375.563981 
L 972.740627 375.604387 
L 958.531317 375.606623 
L 944.322007 375.529519 
L 930.112697 375.535262 
L 915.903387 375.627748 
L 901.694077 375.566777 
L 887.484767 375.329039 
L 873.275457 375.16831 
L 859.066147 375.165599 
L 844.856837 375.050748 
L 830.647527 374.865541 
L 816.438217 374.920376 
L 802.228907 375.037406 
L 788.019596 375.007255 
L 773.810286 374.964073 
L 759.600976 374.818535 
L 745.391666 374.442886 
L 731.182356 374.097106 
L 716.973046 373.888915 
L 702.763736 373.566214 
L 688.554426 373.100838 
L 674.345116 372.61141 
L 660.135806 372.09455 
L 645.926496 371.704419 
L 631.717186 371.410849 
L 617.507876 370.836897 
L 603.298566 369.894774 
L 589.089256 368.819701 
L 574.879946 367.796688 
L 560.670636 366.777154 
L 546.461326 365.546978 
L 532.252016 363.841217 
L 518.042705 361.413985 
L 503.833395 358.442467 
L 489.624085 355.432263 
L 475.414775 352.196522 
L 461.205465 348.074983 
L 446.996155 342.897362 
L 432.786845 336.503811 
L 418.577535 328.381113 
L 404.368225 318.00203 
L 390.158915 303.212966 
L 375.949605 279.733858 
L 361.740295 247.561389 
L 347.530985 207.215571 
L 333.321675 145.531751 
L 319.112365 69.088632 
L 304.903055 41.432321 
L 290.693745 96.291942 
L 276.484435 175.186002 
L 262.275124 227.099531 
L 248.065814 256.594937 
L 233.856504 276.504652 
L 219.647194 288.781761 
L 205.437884 295.358373 
L 191.228574 301.449855 
L 177.019264 308.979501 
L 162.809954 317.379409 
L 148.600644 327.662512 
L 134.391334 338.559288 
L 120.182024 347.024386 
L 105.972714 353.033132 
L 91.763404 357.98244 
L 77.554094 361.721752 
L 63.344784 364.073004 
L 49.135474 365.743844 
L 34.926164 367.173514 
L 20.716854 368.466029 
L 6.507544 369.31988 
L -7.701767 369.448182 
L -21.911077 369.234554 
L -36.120387 369.060418 
L -50.329697 368.857945 
L -64.539007 368.721391 
L -78.748317 368.854129 
L -92.957627 369.159536 
L -107.166937 369.472621 
L -121.376247 369.702097 
L -135.585557 369.896026 
L -149.794867 370.221091 
L -164.004177 370.681755 
L -178.213487 371.10107 
L -192.422797 371.388324 
L -206.632107 371.632718 
L -220.841417 371.861284 
L -235.050727 371.972491 
L -249.260037 371.993545 
L -263.469347 372.184036 
L -277.678658 372.703833 
L -291.887968 373.320029 
L -306.097278 373.748701 
L -320.306588 374.008811 
L -334.515898 374.257938 
L -348.725208 374.553891 
L -362.934518 374.828234 
L -377.143828 375.013058 
L -391.353138 375.139279 
L -405.562448 375.26167 
L -419.771758 375.35233 
L -433.981068 375.362295 
L -448.190378 375.292033 
L -462.399688 375.240746 
L -476.608998 375.319733 
L -490.818308 375.465899 
L -505.027618 375.570826 
L -519.236928 375.655751 
L -533.446239 375.760758 
L -547.655549 375.846689 
L -561.864859 375.910021 
L -576.074169 376.004436 
L -590.283479 376.116126 
L -604.492789 376.171194 
L -618.702099 376.171172 
L -632.911409 376.191469 
L -647.120719 376.239664 
L -661.330029 376.287362 
L -675.539339 376.346105 
L -689.748649 376.408381 
L -703.957959 376.44102 
L -718.167269 376.427022 
L -732.376579 376.38252 
L -746.585889 376.350566 
L -760.795199 376.347874 
L -775.004509 376.347781 
L -789.213819 376.343199 
L -803.42313 376.354516 
L -817.63244 376.387351 
L -831.84175 376.436375 
L -846.05106 376.485717 
L -860.26037 376.524266 
L -874.46968 376.575009 
L -888.67899 376.640094 
L -902.8883 376.682239 
L -917.09761 376.695937 
L -931.30692 376.706735 
L -945.51623 376.728304 
L -959.72554 376.760209 
L -973.93485 376.78417 
L -988.14416 376.791611 
L -1002.35347 376.814406 
L -1016.56278 376.865994 
L -1030.77209 376.913523 
L -1044.9814 376.944744 
L -1059.19071 376.972971 
L -1073.400021 376.990294 
L -1087.609331 376.98594 
L -1101.818641 376.973102 
L -1116.027951 376.972634 
L -1130.237261 376.989566 
L -1144.446571 377.009743 
L -1158.655881 377.018505 
L -1172.865191 377.015726 
L -1187.074501 377.012845 
L -1201.283811 377.017415 
L -1215.493121 377.024295 
L -1229.702431 377.027791 
L -1243.911741 377.028637 
z
" clip-path="url(#p0e532c679b)" style="fill: #2f4b7c; fill-opacity: 0.2; stroke: #2f4b7c; stroke-width: 2.5"/>
   </g>
   <g id="FillBetweenPolyCollection_2">
    <path d="M -1398.969497 377.028665 
L -1398.969497 377.02875 
L -1385.122873 377.02875 
L -1371.276249 377.02875 
L -1357.429625 377.02875 
L -1343.583001 377.02875 
L -1329.736377 377.02875 
L -1315.889753 377.02875 
L -1302.043129 377.02875 
L -1288.196505 377.02875 
L -1274.349881 377.02875 
L -1260.503257 377.02875 
L -1246.656633 377.02875 
L -1232.810009 377.02875 
L -1218.963385 377.02875 
L -1205.116761 377.02875 
L -1191.270137 377.02875 
L -1177.423512 377.02875 
L -1163.576888 377.02875 
L -1149.730264 377.02875 
L -1135.88364 377.02875 
L -1122.037016 377.02875 
L -1108.190392 377.02875 
L -1094.343768 377.02875 
L -1080.497144 377.02875 
L -1066.65052 377.02875 
L -1052.803896 377.02875 
L -1038.957272 377.02875 
L -1025.110648 377.02875 
L -1011.264024 377.02875 
L -997.4174 377.02875 
L -983.570776 377.02875 
L -969.724152 377.02875 
L -955.877528 377.02875 
L -942.030904 377.02875 
L -928.18428 377.02875 
L -914.337656 377.02875 
L -900.491032 377.02875 
L -886.644408 377.02875 
L -872.797784 377.02875 
L -858.95116 377.02875 
L -845.104536 377.02875 
L -831.257912 377.02875 
L -817.411288 377.02875 
L -803.564664 377.02875 
L -789.71804 377.02875 
L -775.871416 377.02875 
L -762.024792 377.02875 
L -748.178168 377.02875 
L -734.331544 377.02875 
L -720.48492 377.02875 
L -706.638296 377.02875 
L -692.791672 377.02875 
L -678.945048 377.02875 
L -665.098424 377.02875 
L -651.2518 377.02875 
L -637.405176 377.02875 
L -623.558552 377.02875 
L -609.711928 377.02875 
L -595.865304 377.02875 
L -582.01868 377.02875 
L -568.172056 377.02875 
L -554.325432 377.02875 
L -540.478808 377.02875 
L -526.632184 377.02875 
L -512.78556 377.02875 
L -498.938936 377.02875 
L -485.092312 377.02875 
L -471.245688 377.02875 
L -457.399063 377.02875 
L -443.552439 377.02875 
L -429.705815 377.02875 
L -415.859191 377.02875 
L -402.012567 377.02875 
L -388.165943 377.02875 
L -374.319319 377.02875 
L -360.472695 377.02875 
L -346.626071 377.02875 
L -332.779447 377.02875 
L -318.932823 377.02875 
L -305.086199 377.02875 
L -291.239575 377.02875 
L -277.392951 377.02875 
L -263.546327 377.02875 
L -249.699703 377.02875 
L -235.853079 377.02875 
L -222.006455 377.02875 
L -208.159831 377.02875 
L -194.313207 377.02875 
L -180.466583 377.02875 
L -166.619959 377.02875 
L -152.773335 377.02875 
L -138.926711 377.02875 
L -125.080087 377.02875 
L -111.233463 377.02875 
L -97.386839 377.02875 
L -83.540215 377.02875 
L -69.693591 377.02875 
L -55.846967 377.02875 
L -42.000343 377.02875 
L -28.153719 377.02875 
L -14.307095 377.02875 
L -0.460471 377.02875 
L 13.386153 377.02875 
L 27.232777 377.02875 
L 41.079401 377.02875 
L 54.926025 377.02875 
L 68.772649 377.02875 
L 82.619273 377.02875 
L 96.465897 377.02875 
L 110.312521 377.02875 
L 124.159145 377.02875 
L 138.005769 377.02875 
L 151.852393 377.02875 
L 165.699017 377.02875 
L 179.545641 377.02875 
L 193.392265 377.02875 
L 207.238889 377.02875 
L 221.085513 377.02875 
L 234.932137 377.02875 
L 248.778761 377.02875 
L 262.625386 377.02875 
L 276.47201 377.02875 
L 290.318634 377.02875 
L 304.165258 377.02875 
L 318.011882 377.02875 
L 331.858506 377.02875 
L 345.70513 377.02875 
L 359.551754 377.02875 
L 373.398378 377.02875 
L 387.245002 377.02875 
L 401.091626 377.02875 
L 414.93825 377.02875 
L 428.784874 377.02875 
L 442.631498 377.02875 
L 456.478122 377.02875 
L 470.324746 377.02875 
L 484.17137 377.02875 
L 498.017994 377.02875 
L 511.864618 377.02875 
L 525.711242 377.02875 
L 539.557866 377.02875 
L 553.40449 377.02875 
L 567.251114 377.02875 
L 581.097738 377.02875 
L 594.944362 377.02875 
L 608.790986 377.02875 
L 622.63761 377.02875 
L 636.484234 377.02875 
L 650.330858 377.02875 
L 664.177482 377.02875 
L 678.024106 377.02875 
L 691.87073 377.02875 
L 705.717354 377.02875 
L 719.563978 377.02875 
L 733.410602 377.02875 
L 747.257226 377.02875 
L 761.10385 377.02875 
L 774.950474 377.02875 
L 788.797098 377.02875 
L 802.643722 377.02875 
L 816.490346 377.02875 
L 830.33697 377.02875 
L 844.183594 377.02875 
L 858.030218 377.02875 
L 871.876842 377.02875 
L 885.723466 377.02875 
L 899.57009 377.02875 
L 913.416714 377.02875 
L 927.263338 377.02875 
L 941.109962 377.02875 
L 954.956586 377.02875 
L 968.80321 377.02875 
L 982.649834 377.02875 
L 996.496459 377.02875 
L 1010.343083 377.02875 
L 1024.189707 377.02875 
L 1038.036331 377.02875 
L 1051.882955 377.02875 
L 1065.729579 377.02875 
L 1079.576203 377.02875 
L 1093.422827 377.02875 
L 1107.269451 377.02875 
L 1121.116075 377.02875 
L 1134.962699 377.02875 
L 1148.809323 377.02875 
L 1162.655947 377.02875 
L 1176.502571 377.02875 
L 1190.349195 377.02875 
L 1204.195819 377.02875 
L 1218.042443 377.02875 
L 1231.889067 377.02875 
L 1245.735691 377.02875 
L 1259.582315 377.02875 
L 1273.428939 377.02875 
L 1287.275563 377.02875 
L 1301.122187 377.02875 
L 1314.968811 377.02875 
L 1328.815435 377.02875 
L 1342.662059 377.02875 
L 1356.508683 377.02875 
L 1356.508683 377.02856 
L 1356.508683 377.02856 
L 1342.662059 377.027256 
L 1328.815435 377.020837 
L 1314.968811 376.99851 
L 1301.122187 376.942617 
L 1287.275563 376.848293 
L 1273.428939 376.748418 
L 1259.582315 376.671035 
L 1245.735691 376.579862 
L 1231.889067 376.430909 
L 1218.042443 376.249551 
L 1204.195819 376.121614 
L 1190.349195 376.117788 
L 1176.502571 376.1735 
L 1162.655947 376.1636 
L 1148.809323 376.156009 
L 1134.962699 376.262735 
L 1121.116075 376.352593 
L 1107.269451 376.287815 
L 1093.422827 376.139637 
L 1079.576203 376.060023 
L 1065.729579 376.074237 
L 1051.882955 376.010981 
L 1038.036331 375.840586 
L 1024.189707 375.756031 
L 1010.343083 375.64896 
L 996.496459 375.308274 
L 982.649834 375.068281 
L 968.80321 375.191492 
L 954.956586 375.269307 
L 941.109962 375.098513 
L 927.263338 374.986656 
L 913.416714 374.920751 
L 899.57009 374.702338 
L 885.723466 374.597919 
L 871.876842 374.797592 
L 858.030218 374.988821 
L 844.183594 375.006112 
L 830.33697 375.00541 
L 816.490346 374.98305 
L 802.643722 374.824926 
L 788.797098 374.64697 
L 774.950474 374.500936 
L 761.10385 374.186131 
L 747.257226 373.739858 
L 733.410602 373.369776 
L 719.563978 372.924646 
L 705.717354 372.303686 
L 691.87073 371.830471 
L 678.024106 371.480027 
L 664.177482 370.637274 
L 650.330858 369.124903 
L 636.484234 367.645095 
L 622.63761 366.805074 
L 608.790986 366.366432 
L 594.944362 365.704367 
L 581.097738 364.444121 
L 567.251114 362.739128 
L 553.40449 360.965404 
L 539.557866 358.991688 
L 525.711242 356.313456 
L 511.864618 352.83794 
L 498.017994 348.891073 
L 484.17137 344.572972 
L 470.324746 339.578738 
L 456.478122 333.634211 
L 442.631498 326.745122 
L 428.784874 319.035011 
L 414.93825 310.534319 
L 401.091626 300.840873 
L 387.245002 288.142474 
L 373.398378 269.585463 
L 359.551754 244.574353 
L 345.70513 211.542175 
L 331.858506 163.504769 
L 318.011882 111.821313 
L 304.165258 99.888723 
L 290.318634 145.184721 
L 276.47201 207.202532 
L 262.625386 248.891057 
L 248.778761 270.242487 
L 234.932137 282.102178 
L 221.085513 289.321257 
L 207.238889 293.896274 
L 193.392265 299.117356 
L 179.545641 306.836157 
L 165.699017 315.606941 
L 151.852393 324.615967 
L 138.005769 334.046138 
L 124.159145 342.768462 
L 110.312521 349.615254 
L 96.465897 354.424943 
L 82.619273 357.539679 
L 68.772649 359.588943 
L 54.926025 361.074201 
L 41.079401 362.119543 
L 27.232777 362.675166 
L 13.386153 362.851363 
L -0.460471 363.020284 
L -14.307095 363.408577 
L -28.153719 363.905151 
L -42.000343 364.374521 
L -55.846967 364.836902 
L -69.693591 365.303207 
L -83.540215 365.702924 
L -97.386839 366.028169 
L -111.233463 366.343734 
L -125.080087 366.720608 
L -138.926711 367.25391 
L -152.773335 367.933156 
L -166.619959 368.581776 
L -180.466583 369.124109 
L -194.313207 369.674261 
L -208.159831 370.272064 
L -222.006455 370.850519 
L -235.853079 371.428583 
L -249.699703 372.036184 
L -263.546327 372.582609 
L -277.392951 372.984522 
L -291.239575 373.328565 
L -305.086199 373.724519 
L -318.932823 374.117835 
L -332.779447 374.420538 
L -346.626071 374.643232 
L -360.472695 374.821948 
L -374.319319 374.977664 
L -388.165943 375.149766 
L -402.012567 375.365478 
L -415.859191 375.58163 
L -429.705815 375.715473 
L -443.552439 375.73569 
L -457.399063 375.6972 
L -471.245688 375.658706 
L -485.092312 375.604654 
L -498.938936 375.524647 
L -512.78556 375.489792 
L -526.632184 375.547005 
L -540.478808 375.649218 
L -554.325432 375.737282 
L -568.172056 375.795844 
L -582.01868 375.841328 
L -595.865304 375.884311 
L -609.711928 375.923276 
L -623.558552 375.975242 
L -637.405176 376.05002 
L -651.2518 376.122926 
L -665.098424 376.182045 
L -678.945048 376.242729 
L -692.791672 376.324479 
L -706.638296 376.429362 
L -720.48492 376.525985 
L -734.331544 376.585141 
L -748.178168 376.604947 
L -762.024792 376.610909 
L -775.871416 376.642338 
L -789.71804 376.694891 
L -803.564664 376.722376 
L -817.411288 376.719337 
L -831.257912 376.717713 
L -845.104536 376.722729 
L -858.95116 376.716749 
L -872.797784 376.69237 
L -886.644408 376.66037 
L -900.491032 376.644398 
L -914.337656 376.66646 
L -928.18428 376.720364 
L -942.030904 376.778112 
L -955.877528 376.818074 
L -969.724152 376.831847 
L -983.570776 376.824782 
L -997.4174 376.804675 
L -1011.264024 376.770765 
L -1025.110648 376.733045 
L -1038.957272 376.717272 
L -1052.803896 376.733557 
L -1066.65052 376.770267 
L -1080.497144 376.814891 
L -1094.343768 376.852716 
L -1108.190392 376.868404 
L -1122.037016 376.865153 
L -1135.88364 376.862607 
L -1149.730264 376.8737 
L -1163.576888 376.899954 
L -1177.423512 376.934993 
L -1191.270137 376.966156 
L -1205.116761 376.987233 
L -1218.963385 377.000928 
L -1232.810009 377.009624 
L -1246.656633 377.014138 
L -1260.503257 377.015424 
L -1274.349881 377.013804 
L -1288.196505 377.01201 
L -1302.043129 377.014555 
L -1315.889753 377.019083 
L -1329.736377 377.020538 
L -1343.583001 377.020756 
L -1357.429625 377.023191 
L -1371.276249 377.026405 
L -1385.122873 377.028167 
L -1398.969497 377.028665 
z
" clip-path="url(#p0e532c679b)" style="fill: #665191; fill-opacity: 0.2; stroke: #665191; stroke-width: 2.5"/>
   </g>
   <g id="line2d_14">
    <path d="M 306.575625 377.02875 
L 306.575625 24.6525 
" clip-path="url(#p0e532c679b)" style="fill: none; stroke-dasharray: 3.7,1.6; stroke-dashoffset: 0; stroke: #000000"/>
   </g>
   <g id="patch_3">
    <path d="M 55.820625 377.02875 
L 55.820625 24.6525 
" style="fill: none; stroke: #262626; stroke-linejoin: miter; stroke-linecap: square"/>
   </g>
   <g id="patch_4">
    <path d="M 55.820625 377.02875 
L 557.330625 377.02875 
" style="fill: none; stroke: #262626; stroke-linejoin: miter; stroke-linecap: square"/>
   </g>
   <g id="text_16">
    <text style="font-size: 16px; font-family: 'Arial', 'DejaVu Sans', 'Liberation Sans', 'Bitstream Vera Sans', sans-serif; text-anchor: middle; fill: #262626" x="306.575625" y="18.6525" transform="rotate(-0 306.575625 18.6525)">Prediction Bias Validation Across Asymmetric Hardware Positions</text>
   </g>
   <g id="legend_1">
    <g id="patch_5">
     <path d="M 357.165 68.775 
L 548.930625 68.775 
Q 551.330625 68.775 551.330625 66.375 
L 551.330625 33.0525 
Q 551.330625 30.6525 548.930625 30.6525 
L 357.165 30.6525 
Q 354.765 30.6525 354.765 33.0525 
L 354.765 66.375 
Q 354.765 68.775 357.165 68.775 
z
" style="fill: #ffffff; opacity: 0.8; stroke: #cccccc; stroke-width: 0.8; stroke-linejoin: miter"/>
    </g>
    <g id="patch_6">
     <path d="M 359.565 44.188125 
L 383.565 44.188125 
L 383.565 35.788125 
L 359.565 35.788125 
z
" style="fill: #2f4b7c; fill-opacity: 0.2; stroke: #2f4b7c; stroke-width: 2.5; stroke-linejoin: miter"/>
    </g>
    <g id="text_17">
     <text style="font-size: 12px; font-family: 'Arial', 'DejaVu Sans', 'Liberation Sans', 'Bitstream Vera Sans', sans-serif; text-anchor: start; fill: #262626" x="393.165" y="44.188125" transform="rotate(-0 393.165 44.188125)">GPU 0 (Upstream Airflow)</text>
    </g>
    <g id="patch_7">
     <path d="M 359.565 61.449375 
L 383.565 61.449375 
L 383.565 53.049375 
L 359.565 53.049375 
z
" style="fill: #665191; fill-opacity: 0.2; stroke: #665191; stroke-width: 2.5; stroke-linejoin: miter"/>
    </g>
    <g id="text_18">
     <text style="font-size: 12px; font-family: 'Arial', 'DejaVu Sans', 'Liberation Sans', 'Bitstream Vera Sans', sans-serif; text-anchor: start; fill: #262626" x="393.165" y="61.449375" transform="rotate(-0 393.165 61.449375)">GPU 1 (Downstream Airflow)</text>
    </g>
   </g>
  </g>
 </g>
 <defs>
  <clipPath id="p0e532c679b">
   <rect x="55.820625" y="24.6525" width="501.51" height="352.37625"/>
  </clipPath>
 </defs>
</svg>
